NotoSansBengali-Bold.ufo
<glyph name="parenleft.beng" format="2">
  <advance width="467"/>
  <unicode hex="0028"/>
  <outline>
    <contour>
      <point x="237" y="-125" type="curve"/>
      <point x="395" y="-125" type="line"/>
      <point x="311" y="2"/>
      <point x="268" y="171"/>
      <point x="268" y="331" type="curve" smooth="yes"/>
      <point x="268" y="493"/>
      <point x="310" y="663"/>
      <point x="396" y="792" type="curve"/>
      <point x="237" y="792" type="line"/>
      <point x="143" y="666"/>
      <point x="100" y="497"/>
      <point x="100" y="333" type="curve" smooth="yes"/>
      <point x="100" y="164"/>
      <point x="144" y="-3"/>
    </contour>
  </outline>
</glyph>
<glyph name="parenright.beng" format="2">
  <advance width="467"/>
  <unicode hex="0029"/>
  <outline>
    <contour>
      <point x="71" y="-125" type="curve"/>
      <point x="230" y="-125" type="line"/>
      <point x="324" y="1"/>
      <point x="367" y="170"/>
      <point x="367" y="334" type="curve" smooth="yes"/>
      <point x="367" y="503"/>
      <point x="323" y="670"/>
      <point x="230" y="792" type="curve"/>
      <point x="72" y="792" type="line"/>
      <point x="156" y="665"/>
      <point x="199" y="496"/>
      <point x="199" y="336" type="curve" smooth="yes"/>
      <point x="199" y="174"/>
      <point x="156" y="4"/>
    </contour>
  </outline>
</glyph>
<glyph name="plus.beng" format="2">
  <advance width="637"/>
  <unicode hex="002B"/>
  <outline>
    <contour>
      <point x="251" y="259" type="line"/>
      <point x="251" y="88" type="line"/>
      <point x="385" y="88" type="line"/>
      <point x="385" y="259" type="line"/>
      <point x="564" y="259" type="line"/>
      <point x="564" y="388" type="line"/>
      <point x="385" y="388" type="line"/>
      <point x="385" y="563" type="line"/>
      <point x="251" y="563" type="line"/>
      <point x="251" y="388" type="line"/>
      <point x="72" y="388" type="line"/>
      <point x="72" y="259" type="line"/>
    </contour>
  </outline>
</glyph>
<glyph name="comma.beng" format="2">
  <advance width="336"/>
  <unicode hex="002C"/>
  <outline>
    <contour>
      <point x="274" y="146" type="line"/>
      <point x="107" y="146" type="line"/>
      <point x="98" y="66"/>
      <point x="82" y="-28"/>
      <point x="63" y="-119" type="curve"/>
      <point x="199" y="-119" type="line"/>
      <point x="232" y="-45"/>
      <point x="263" y="63"/>
      <point x="281" y="135" type="curve"/>
    </contour>
  </outline>
</glyph>
<glyph name="slash.beng" format="2">
  <advance width="555"/>
  <unicode hex="002F"/>
  <outline>
    <contour>
      <point x="339" y="792" type="line"/>
      <point x="53" y="-126" type="line"/>
      <point x="215" y="-126" type="line"/>
      <point x="501" y="792" type="line"/>
    </contour>
  </outline>
</glyph>
<glyph name="seven.beng" format="2">
  <advance width="578"/>
  <unicode hex="0037"/>
  <outline>
    <contour>
      <point x="342" y="554" type="line"/>
      <point x="101" y="0" type="line"/>
      <point x="299" y="0" type="line"/>
      <point x="545" y="599" type="line"/>
      <point x="545" y="713" type="line"/>
      <point x="38" y="713" type="line"/>
      <point x="38" y="554" type="line"/>
    </contour>
  </outline>
</glyph>
<glyph name="semicolon.beng" format="2">
  <advance width="351"/>
  <unicode hex="003B"/>
  <outline>
    <contour>
      <point x="273" y="146" type="line"/>
      <point x="106" y="146" type="line"/>
      <point x="97" y="66"/>
      <point x="79" y="-29"/>
      <point x="62" y="-119" type="curve"/>
      <point x="198" y="-119" type="line"/>
      <point x="231" y="-45"/>
      <point x="262" y="63"/>
      <point x="280" y="135" type="curve"/>
    </contour>
    <contour>
      <point x="178" y="373" type="curve" smooth="yes"/>
      <point x="232" y="373"/>
      <point x="279" y="400"/>
      <point x="279" y="467" type="curve" smooth="yes"/>
      <point x="279" y="535"/>
      <point x="232" y="560"/>
      <point x="178" y="560" type="curve" smooth="yes"/>
      <point x="121" y="560"/>
      <point x="75" y="535"/>
      <point x="75" y="467" type="curve"/>
      <point x="75" y="400"/>
      <point x="121" y="373"/>
    </contour>
  </outline>
</glyph>
<glyph name="equal.beng" format="2">
  <advance width="637"/>
  <unicode hex="003D"/>
  <outline>
    <contour>
      <point x="72" y="484" type="line"/>
      <point x="72" y="355" type="line"/>
      <point x="564" y="355" type="line"/>
      <point x="564" y="484" type="line"/>
    </contour>
    <contour>
      <point x="72" y="291" type="line"/>
      <point x="72" y="162" type="line"/>
      <point x="564" y="162" type="line"/>
      <point x="564" y="291" type="line"/>
    </contour>
  </outline>
</glyph>
<glyph name="greater.beng" format="2">
  <advance width="637"/>
  <unicode hex="003E"/>
  <outline>
    <contour>
      <point x="72" y="189" type="line"/>
      <point x="72" y="42" type="line"/>
      <point x="564" y="282" type="line"/>
      <point x="564" y="368" type="line"/>
      <point x="72" y="608" type="line"/>
      <point x="72" y="461" type="line"/>
      <point x="370" y="325" type="line"/>
    </contour>
  </outline>
</glyph>
<glyph name="bracketleft.beng" format="2">
  <advance width="451"/>
  <unicode hex="005B"/>
  <outline>
    <contour>
      <point x="128" y="792" type="line"/>
      <point x="128" y="-125" type="line"/>
      <point x="380" y="-125" type="line"/>
      <point x="380" y="-1" type="line"/>
      <point x="283" y="-1" type="line"/>
      <point x="283" y="668" type="line"/>
      <point x="380" y="668" type="line"/>
      <point x="380" y="792" type="line"/>
    </contour>
  </outline>
</glyph>
<glyph name="backslash.beng" format="2">
  <advance width="555"/>
  <unicode hex="005C"/>
  <outline>
    <contour>
      <point x="53" y="792" type="line"/>
      <point x="339" y="-125" type="line"/>
      <point x="501" y="-125" type="line"/>
      <point x="215" y="792" type="line"/>
    </contour>
  </outline>
</glyph>
<glyph name="bracketright.beng" format="2">
  <advance width="451"/>
  <unicode hex="005D"/>
  <outline>
    <contour>
      <point x="71" y="-1" type="line"/>
      <point x="71" y="-125" type="line"/>
      <point x="323" y="-125" type="line"/>
      <point x="323" y="792" type="line"/>
      <point x="71" y="792" type="line"/>
      <point x="71" y="668" type="line"/>
      <point x="168" y="668" type="line"/>
      <point x="168" y="-1" type="line"/>
    </contour>
  </outline>
</glyph>
<glyph name="asciicircum.beng" format="2">
  <advance width="637"/>
  <unicode hex="005E"/>
  <outline>
    <contour>
      <point x="275" y="717" type="line"/>
      <point x="41" y="244" type="line"/>
      <point x="189" y="244" type="line"/>
      <point x="318" y="525" type="line"/>
      <point x="446" y="244" type="line"/>
      <point x="595" y="244" type="line"/>
      <point x="361" y="717" type="line"/>
    </contour>
  </outline>
</glyph>
<glyph name="braceleft.beng" format="2">
  <advance width="513"/>
  <unicode hex="007B"/>
  <outline>
    <contour>
      <point x="71" y="400" type="curve"/>
      <point x="71" y="253" type="line"/>
      <point x="131" y="253"/>
      <point x="191" y="230"/>
      <point x="191" y="170" type="curve" smooth="yes"/>
      <point x="191" y="43" type="line" smooth="yes"/>
      <point x="191" y="-74"/>
      <point x="237" y="-125"/>
      <point x="442" y="-125" type="curve"/>
      <point x="442" y="11" type="line"/>
      <point x="403" y="12"/>
      <point x="349" y="14"/>
      <point x="349" y="63" type="curve" smooth="yes"/>
      <point x="349" y="204" type="line" smooth="yes"/>
      <point x="349" y="280"/>
      <point x="308" y="312"/>
      <point x="232" y="324" type="curve"/>
      <point x="232" y="330" type="line"/>
      <point x="306" y="340"/>
      <point x="349" y="372"/>
      <point x="349" y="453" type="curve" smooth="yes"/>
      <point x="349" y="604" type="line" smooth="yes"/>
      <point x="349" y="654"/>
      <point x="402" y="655"/>
      <point x="442" y="656" type="curve"/>
      <point x="442" y="792" type="line"/>
      <point x="234" y="792"/>
      <point x="191" y="740"/>
      <point x="191" y="626" type="curve" smooth="yes"/>
      <point x="191" y="483" type="line" smooth="yes"/>
      <point x="191" y="422"/>
      <point x="133" y="400"/>
    </contour>
  </outline>
</glyph>
<glyph name="bar.beng" format="2">
  <advance width="540"/>
  <unicode hex="007C"/>
  <outline>
    <contour>
      <point x="201" y="792" type="line"/>
      <point x="201" y="-125" type="line"/>
      <point x="336" y="-125" type="line"/>
      <point x="336" y="792" type="line"/>
    </contour>
  </outline>
</glyph>
<glyph name="braceright.beng" format="2">
  <advance width="513"/>
  <unicode hex="007D"/>
  <outline>
    <contour>
      <point x="442" y="266" type="curve"/>
      <point x="442" y="413" type="line"/>
      <point x="382" y="413"/>
      <point x="322" y="436"/>
      <point x="322" y="496" type="curve" smooth="yes"/>
      <point x="322" y="624" type="line" smooth="yes"/>
      <point x="322" y="741"/>
      <point x="276" y="792"/>
      <point x="71" y="792" type="curve"/>
      <point x="71" y="656" type="line"/>
      <point x="110" y="655"/>
      <point x="164" y="653"/>
      <point x="164" y="604" type="curve" smooth="yes"/>
      <point x="164" y="462" type="line" smooth="yes"/>
      <point x="164" y="386"/>
      <point x="205" y="354"/>
      <point x="281" y="342" type="curve"/>
      <point x="281" y="336" type="line"/>
      <point x="207" y="326"/>
      <point x="164" y="294"/>
      <point x="164" y="213" type="curve" smooth="yes"/>
      <point x="164" y="63" type="line" smooth="yes"/>
      <point x="164" y="13"/>
      <point x="111" y="12"/>
      <point x="71" y="11" type="curve"/>
      <point x="71" y="-125" type="line"/>
      <point x="279" y="-125"/>
      <point x="322" y="-73"/>
      <point x="322" y="41" type="curve" smooth="yes"/>
      <point x="322" y="183" type="line" smooth="yes"/>
      <point x="322" y="244"/>
      <point x="380" y="266"/>
    </contour>
  </outline>
</glyph>
<glyph name="asciitilde.beng" format="2">
  <advance width="637"/>
  <unicode hex="007E"/>
  <outline>
    <contour>
      <point x="80" y="366" type="curve"/>
      <point x="80" y="229" type="line"/>
      <point x="116" y="260"/>
      <point x="157" y="288"/>
      <point x="196" y="288" type="curve" smooth="yes"/>
      <point x="226" y="288"/>
      <point x="250" y="280"/>
      <point x="300" y="259" type="curve" smooth="yes"/>
      <point x="363" y="233"/>
      <point x="388" y="230"/>
      <point x="428" y="230" type="curve" smooth="yes"/>
      <point x="480" y="230"/>
      <point x="523" y="246"/>
      <point x="556" y="283" type="curve"/>
      <point x="556" y="420" type="line"/>
      <point x="522" y="387"/>
      <point x="481" y="361"/>
      <point x="440" y="361" type="curve" smooth="yes"/>
      <point x="412" y="361"/>
      <point x="385" y="368"/>
      <point x="336" y="388" type="curve" smooth="yes"/>
      <point x="274" y="413"/>
      <point x="248" y="419"/>
      <point x="208" y="419" type="curve" smooth="yes"/>
      <point x="156" y="419"/>
      <point x="113" y="400"/>
    </contour>
  </outline>
</glyph>
<glyph name="multiply.beng" format="2">
  <advance width="637"/>
  <unicode hex="00D7"/>
  <outline>
    <contour>
      <point x="316" y="236" type="line"/>
      <point x="459" y="93" type="line"/>
      <point x="550" y="184" type="line"/>
      <point x="409" y="326" type="line"/>
      <point x="553" y="469" type="line"/>
      <point x="459" y="559" type="line"/>
      <point x="316" y="417" type="line"/>
      <point x="176" y="559" type="line"/>
      <point x="83" y="467" type="line"/>
      <point x="224" y="326" type="line"/>
      <point x="84" y="184" type="line"/>
      <point x="176" y="94" type="line"/>
    </contour>
  </outline>
</glyph>
<glyph name="divide.beng" format="2">
  <advance width="637"/>
  <unicode hex="00F7"/>
  <outline>
    <contour>
      <point x="72" y="388" type="line"/>
      <point x="72" y="259" type="line"/>
      <point x="564" y="259" type="line"/>
      <point x="564" y="388" type="line"/>
    </contour>
    <contour>
      <point x="318" y="68" type="curve" smooth="yes"/>
      <point x="359" y="68"/>
      <point x="395" y="91"/>
      <point x="395" y="151" type="curve" smooth="yes"/>
      <point x="395" y="213"/>
      <point x="359" y="234"/>
      <point x="318" y="234" type="curve" smooth="yes"/>
      <point x="276" y="234"/>
      <point x="240" y="213"/>
      <point x="240" y="151" type="curve" smooth="yes"/>
      <point x="240" y="91"/>
      <point x="276" y="68"/>
    </contour>
    <contour>
      <point x="318" y="413" type="curve" smooth="yes"/>
      <point x="359" y="413"/>
      <point x="395" y="436"/>
      <point x="395" y="496" type="curve" smooth="yes"/>
      <point x="395" y="556"/>
      <point x="359" y="579"/>
      <point x="318" y="579" type="curve" smooth="yes"/>
      <point x="276" y="579"/>
      <point x="240" y="556"/>
      <point x="240" y="496" type="curve" smooth="yes"/>
      <point x="240" y="436"/>
      <point x="276" y="413"/>
    </contour>
  </outline>
</glyph>
<glyph name="uni0951" format="2">
  <unicode hex="0951"/>
  <outline>
    <contour>
      <point x="-200" y="917" type="line"/>
      <point x="-310" y="917" type="line"/>
      <point x="-310" y="623" type="line"/>
      <point x="-200" y="623" type="line"/>
    </contour>
  </outline>
</glyph>
<glyph name="uni0952" format="2">
  <unicode hex="0952"/>
  <outline>
    <contour>
      <point x="-469" y="-206" type="line"/>
      <point x="-43" y="-206" type="line"/>
      <point x="-43" y="-99" type="line"/>
      <point x="-469" y="-99" type="line"/>
    </contour>
  </outline>
</glyph>
<glyph name="dandadeva" format="2">
  <advance width="419"/>
  <unicode hex="0964"/>
  <outline>
    <contour>
      <point x="165" y="0" type="line"/>
      <point x="340" y="0" type="line"/>
      <point x="340" y="622" type="line"/>
      <point x="165" y="622" type="line"/>
    </contour>
  </outline>
</glyph>
<glyph name="dbldandadeva" format="2">
  <advance width="673"/>
  <unicode hex="0965"/>
  <outline>
    <contour>
      <point x="419" y="0" type="line"/>
      <point x="594" y="0" type="line"/>
      <point x="594" y="622" type="line"/>
      <point x="419" y="622" type="line"/>
    </contour>
    <contour>
      <point x="165" y="0" type="line"/>
      <point x="340" y="0" type="line"/>
      <point x="340" y="622" type="line"/>
      <point x="165" y="622" type="line"/>
    </contour>
  </outline>
</glyph>
<glyph name="uni0980" format="2">
  <advance width="618"/>
  <unicode hex="0980"/>
  <outline>
    <contour>
      <point x="349" y="248" type="curve"/>
      <point x="330" y="388" type="line"/>
      <point x="316" y="384"/>
      <point x="302" y="382"/>
      <point x="285" y="382" type="curve" smooth="yes"/>
      <point x="238" y="382"/>
      <point x="223" y="400"/>
      <point x="223" y="433" type="curve" smooth="yes"/>
      <point x="223" y="484"/>
      <point x="263" y="520"/>
      <point x="309" y="520" type="curve" smooth="yes"/>
      <point x="325" y="520"/>
      <point x="338" y="516"/>
      <point x="346" y="508" type="curve" smooth="yes"/>
      <point x="355" y="498"/>
      <point x="359" y="485"/>
      <point x="359" y="443" type="curve" smooth="yes"/>
      <point x="359" y="128" type="line" smooth="yes"/>
      <point x="359" y="-40"/>
      <point x="469" y="-45"/>
      <point x="588" y="-49" type="curve"/>
      <point x="604" y="103" type="line"/>
      <point x="540" y="106"/>
      <point x="537" y="128"/>
      <point x="537" y="171" type="curve" smooth="yes"/>
      <point x="537" y="456" type="line" smooth="yes"/>
      <point x="537" y="538"/>
      <point x="515" y="584"/>
      <point x="478" y="615" type="curve" smooth="yes"/>
      <point x="441" y="646"/>
      <point x="389" y="660"/>
      <point x="327" y="660" type="curve" smooth="yes"/>
      <point x="166" y="660"/>
      <point x="42" y="565"/>
      <point x="42" y="418" type="curve" smooth="yes"/>
      <point x="42" y="309"/>
      <point x="114" y="240"/>
      <point x="266" y="240" type="curve" smooth="yes"/>
      <point x="296" y="240"/>
      <point x="323" y="243"/>
    </contour>
  </outline>
</glyph>
<glyph name="candrabindubeng" format="2">
  <unicode hex="0981"/>
  <outline>
    <contour>
      <point x="63" y="885" type="curve"/>
      <point x="-70" y="897" type="line"/>
      <point x="-77" y="812"/>
      <point x="-110" y="773"/>
      <point x="-167" y="773" type="curve" smooth="yes"/>
      <point x="-235" y="773"/>
      <point x="-257" y="818"/>
      <point x="-264" y="896" type="curve"/>
      <point x="-397" y="884" type="line"/>
      <point x="-383" y="754"/>
      <point x="-316" y="664"/>
      <point x="-163" y="664" type="curve" smooth="yes"/>
      <point x="-10" y="664"/>
      <point x="51" y="760"/>
    </contour>
    <contour>
      <point x="-110" y="848" type="curve" smooth="yes"/>
      <point x="-110" y="878"/>
      <point x="-129" y="900"/>
      <point x="-169" y="900" type="curve" smooth="yes"/>
      <point x="-209" y="900"/>
      <point x="-228" y="878"/>
      <point x="-228" y="848" type="curve" smooth="yes"/>
      <point x="-228" y="818"/>
      <point x="-209" y="796"/>
      <point x="-169" y="796" type="curve" smooth="yes"/>
      <point x="-129" y="796"/>
      <point x="-110" y="818"/>
    </contour>
  </outline>
</glyph>
<glyph name="anusvarabeng" format="2">
  <advance width="453"/>
  <unicode hex="0982"/>
  <outline>
    <contour>
      <point x="152" y="320" type="curve"/>
      <point x="53" y="198" type="line"/>
      <point x="159" y="134"/>
      <point x="250" y="38"/>
      <point x="319" y="-54" type="curve"/>
      <point x="443" y="23" type="line"/>
      <point x="369" y="148"/>
      <point x="266" y="255"/>
    </contour>
    <contour>
      <point x="58" y="471" type="curve" smooth="yes"/>
      <point x="58" y="378"/>
      <point x="131" y="319"/>
      <point x="226" y="319" type="curve" smooth="yes"/>
      <point x="322" y="319"/>
      <point x="395" y="378"/>
      <point x="395" y="471" type="curve" smooth="yes"/>
      <point x="395" y="562"/>
      <point x="322" y="622"/>
      <point x="226" y="622" type="curve" smooth="yes"/>
      <point x="131" y="622"/>
      <point x="58" y="561"/>
    </contour>
    <contour>
      <point x="184" y="471" type="curve" smooth="yes"/>
      <point x="184" y="493"/>
      <point x="202" y="511"/>
      <point x="226" y="511" type="curve" smooth="yes"/>
      <point x="251" y="511"/>
      <point x="269" y="493"/>
      <point x="269" y="471" type="curve" smooth="yes"/>
      <point x="269" y="446"/>
      <point x="251" y="429"/>
      <point x="226" y="429" type="curve" smooth="yes"/>
      <point x="202" y="429"/>
      <point x="184" y="446"/>
    </contour>
  </outline>
</glyph>
<glyph name="visargabeng" format="2">
  <advance width="453"/>
  <unicode hex="0983"/>
  <outline>
    <contour>
      <point x="58" y="471" type="curve" smooth="yes"/>
      <point x="58" y="378"/>
      <point x="131" y="319"/>
      <point x="226" y="319" type="curve" smooth="yes"/>
      <point x="322" y="319"/>
      <point x="395" y="378"/>
      <point x="395" y="471" type="curve" smooth="yes"/>
      <point x="395" y="562"/>
      <point x="322" y="622"/>
      <point x="226" y="622" type="curve" smooth="yes"/>
      <point x="131" y="622"/>
      <point x="58" y="561"/>
    </contour>
    <contour>
      <point x="184" y="471" type="curve" smooth="yes"/>
      <point x="184" y="493"/>
      <point x="202" y="511"/>
      <point x="226" y="511" type="curve" smooth="yes"/>
      <point x="251" y="511"/>
      <point x="269" y="493"/>
      <point x="269" y="471" type="curve" smooth="yes"/>
      <point x="269" y="446"/>
      <point x="251" y="429"/>
      <point x="226" y="429" type="curve" smooth="yes"/>
      <point x="202" y="429"/>
      <point x="184" y="446"/>
    </contour>
    <contour>
      <point x="58" y="152" type="curve" smooth="yes"/>
      <point x="58" y="59"/>
      <point x="131" y="0"/>
      <point x="226" y="0" type="curve" smooth="yes"/>
      <point x="322" y="0"/>
      <point x="395" y="59"/>
      <point x="395" y="152" type="curve" smooth="yes"/>
      <point x="395" y="243"/>
      <point x="322" y="303"/>
      <point x="226" y="303" type="curve" smooth="yes"/>
      <point x="131" y="303"/>
      <point x="58" y="242"/>
    </contour>
    <contour>
      <point x="184" y="152" type="curve" smooth="yes"/>
      <point x="184" y="174"/>
      <point x="202" y="192"/>
      <point x="226" y="192" type="curve" smooth="yes"/>
      <point x="251" y="192"/>
      <point x="269" y="174"/>
      <point x="269" y="152" type="curve" smooth="yes"/>
      <point x="269" y="127"/>
      <point x="251" y="110"/>
      <point x="226" y="110" type="curve" smooth="yes"/>
      <point x="202" y="110"/>
      <point x="184" y="127"/>
    </contour>
  </outline>
</glyph>
<glyph name="aabeng" format="2">
  <advance width="1335"/>
  <unicode hex="0986"/>
  <outline>
    <contour>
      <point x="1020" y="622" type="line"/>
      <point x="-10" y="622" type="line"/>
      <point x="-10" y="484" type="line"/>
      <point x="760" y="484" type="line"/>
      <point x="760" y="235" type="line" smooth="yes"/>
      <point x="760" y="218"/>
      <point x="760" y="188"/>
      <point x="763" y="169" type="curve"/>
      <point x="736" y="198"/>
      <point x="694" y="223"/>
      <point x="648" y="244" type="curve"/>
      <point x="573" y="138" type="line"/>
      <point x="640" y="109"/>
      <point x="707" y="64"/>
      <point x="760" y="0" type="curve"/>
      <point x="935" y="0" type="line"/>
      <point x="935" y="484" type="line"/>
      <point x="1020" y="484" type="line"/>
    </contour>
    <contour>
      <point x="426" y="60" type="curve" smooth="yes"/>
      <point x="621" y="60"/>
      <point x="697" y="153"/>
      <point x="697" y="261" type="curve" smooth="yes"/>
      <point x="697" y="378"/>
      <point x="615" y="463"/>
      <point x="467" y="463" type="curve" smooth="yes"/>
      <point x="366" y="463"/>
      <point x="285" y="427"/>
      <point x="285" y="335" type="curve" smooth="yes"/>
      <point x="285" y="312"/>
      <point x="291" y="279"/>
      <point x="305" y="253" type="curve"/>
      <point x="458" y="272" type="line"/>
      <point x="455" y="281"/>
      <point x="453" y="290"/>
      <point x="453" y="300" type="curve" smooth="yes"/>
      <point x="453" y="316"/>
      <point x="465" y="329"/>
      <point x="483" y="329" type="curve" smooth="yes"/>
      <point x="509" y="329"/>
      <point x="524" y="309"/>
      <point x="524" y="280" type="curve" smooth="yes"/>
      <point x="524" y="223"/>
      <point x="479" y="202"/>
      <point x="404" y="202" type="curve" smooth="yes"/>
      <point x="280" y="202"/>
      <point x="224" y="277"/>
      <point x="173" y="450" type="curve"/>
      <point x="13" y="407" type="line"/>
      <point x="90" y="156"/>
      <point x="216" y="60"/>
    </contour>
    <contour>
      <point x="347" y="400" type="curve"/>
      <point x="499" y="403" type="line"/>
      <point x="491" y="460"/>
      <point x="463" y="497"/>
      <point x="389" y="528" type="curve"/>
      <point x="341" y="536" type="line"/>
      <point x="243" y="492" type="line"/>
      <point x="306" y="477"/>
      <point x="342" y="444"/>
    </contour>
    <contour>
      <point x="1345" y="622" type="line"/>
      <point x="1259" y="622" type="line"/>
      <point x="1235" y="692" type="line"/>
      <point x="1085" y="692" type="line"/>
      <point x="1085" y="631" type="line" smooth="yes"/>
      <point x="1085" y="612"/>
      <point x="1086" y="584"/>
      <point x="1089" y="566" type="curve"/>
      <point x="1074" y="606"/>
      <point x="1045" y="622"/>
      <point x="1020" y="622" type="curve" smooth="yes"/>
      <point x="1000" y="622" type="line"/>
      <point x="1000" y="484" type="line"/>
      <point x="1007" y="484" type="line" smooth="yes"/>
      <point x="1046" y="484"/>
      <point x="1069" y="465"/>
      <point x="1085" y="427" type="curve"/>
      <point x="1085" y="0" type="line"/>
      <point x="1260" y="0" type="line"/>
      <point x="1260" y="484" type="line"/>
      <point x="1345" y="484" type="line"/>
    </contour>
  </outline>
</glyph>
<glyph name="ibeng" format="2">
  <advance width="598"/>
  <unicode hex="0987"/>
  <outline>
    <contour>
      <point x="355" y="622" type="curve"/>
      <point x="522" y="622" type="line"/>
      <point x="518" y="698"/>
      <point x="503" y="745"/>
      <point x="468" y="774" type="curve" smooth="yes"/>
      <point x="432" y="803"/>
      <point x="392" y="812"/>
      <point x="311" y="812" type="curve" smooth="yes"/>
      <point x="261" y="812" type="line" smooth="yes"/>
      <point x="213" y="812"/>
      <point x="194" y="815"/>
      <point x="180" y="826" type="curve" smooth="yes"/>
      <point x="167" y="836"/>
      <point x="162" y="851"/>
      <point x="162" y="877" type="curve" smooth="yes"/>
      <point x="162" y="883"/>
      <point x="163" y="893"/>
      <point x="165" y="905" type="curve"/>
      <point x="0" y="915" type="line"/>
      <point x="-4" y="891"/>
      <point x="-6" y="872"/>
      <point x="-6" y="853" type="curve" smooth="yes"/>
      <point x="-6" y="799"/>
      <point x="6" y="760"/>
      <point x="30" y="733" type="curve" smooth="yes"/>
      <point x="69" y="689"/>
      <point x="131" y="675"/>
      <point x="246" y="675" type="curve" smooth="yes"/>
      <point x="297" y="675" type="line" smooth="yes"/>
      <point x="341" y="675"/>
      <point x="352" y="659"/>
    </contour>
    <component base="habeng"/>
  </outline>
</glyph>
<glyph name="iibeng" format="2">
  <advance width="743"/>
  <unicode hex="0988"/>
  <outline>
    <contour>
      <point x="246" y="48" type="curve" smooth="yes"/>
      <point x="328" y="48"/>
      <point x="383" y="82"/>
      <point x="438" y="171" type="curve" smooth="yes"/>
      <point x="467" y="218"/>
      <point x="521" y="276"/>
      <point x="585" y="303" type="curve"/>
      <point x="558" y="361" type="line"/>
      <point x="521" y="306"/>
      <point x="489" y="233"/>
      <point x="489" y="162" type="curve" smooth="yes"/>
      <point x="489" y="109"/>
      <point x="500" y="37"/>
      <point x="520" y="-14" type="curve"/>
      <point x="690" y="21" type="line"/>
      <point x="674" y="70"/>
      <point x="665" y="127"/>
      <point x="665" y="178" type="curve" smooth="yes"/>
      <point x="665" y="236"/>
      <point x="672" y="297"/>
      <point x="698" y="349" type="curve"/>
      <point x="573" y="457" type="line"/>
      <point x="496" y="420"/>
      <point x="406" y="344"/>
      <point x="345" y="260" type="curve"/>
      <point x="442" y="257" type="line"/>
      <point x="443" y="270"/>
      <point x="444" y="288"/>
      <point x="444" y="305" type="curve"/>
      <point x="416" y="408"/>
      <point x="343" y="463"/>
      <point x="218" y="463" type="curve" smooth="yes"/>
      <point x="121" y="463"/>
      <point x="36" y="429"/>
      <point x="36" y="335" type="curve" smooth="yes"/>
      <point x="36" y="308"/>
      <point x="43" y="276"/>
      <point x="54" y="254" type="curve"/>
      <point x="208" y="278" type="line"/>
      <point x="205" y="286"/>
      <point x="204" y="292"/>
      <point x="204" y="302" type="curve" smooth="yes"/>
      <point x="204" y="317"/>
      <point x="215" y="329"/>
      <point x="232" y="329" type="curve" smooth="yes"/>
      <point x="264" y="329"/>
      <point x="280" y="296"/>
      <point x="280" y="262" type="curve" smooth="yes"/>
      <point x="280" y="231"/>
      <point x="273" y="216"/>
      <point x="262" y="206" type="curve" smooth="yes"/>
      <point x="249" y="194"/>
      <point x="239" y="190"/>
      <point x="227" y="190" type="curve" smooth="yes"/>
      <point x="208" y="190"/>
      <point x="192" y="204"/>
      <point x="172" y="235" type="curve"/>
      <point x="58" y="167" type="line"/>
      <point x="100" y="95"/>
      <point x="160" y="48"/>
    </contour>
    <contour>
      <point x="753" y="622" type="line"/>
      <point x="-10" y="622" type="line"/>
      <point x="-10" y="484" type="line"/>
      <point x="753" y="484" type="line"/>
    </contour>
    <contour>
      <point x="133" y="400" type="curve"/>
      <point x="285" y="403" type="line"/>
      <point x="277" y="460"/>
      <point x="249" y="497"/>
      <point x="175" y="528" type="curve"/>
      <point x="127" y="536" type="line"/>
      <point x="29" y="492" type="line"/>
      <point x="92" y="477"/>
      <point x="128" y="444"/>
    </contour>
    <contour>
      <point x="485" y="622" type="curve"/>
      <point x="652" y="622" type="line"/>
      <point x="648" y="698"/>
      <point x="633" y="745"/>
      <point x="598" y="774" type="curve" smooth="yes"/>
      <point x="562" y="803"/>
      <point x="522" y="812"/>
      <point x="441" y="812" type="curve" smooth="yes"/>
      <point x="305" y="812" type="line" smooth="yes"/>
      <point x="257" y="812"/>
      <point x="238" y="815"/>
      <point x="224" y="826" type="curve" smooth="yes"/>
      <point x="211" y="836"/>
      <point x="206" y="851"/>
      <point x="206" y="877" type="curve" smooth="yes"/>
      <point x="206" y="883"/>
      <point x="207" y="893"/>
      <point x="209" y="905" type="curve"/>
      <point x="44" y="915" type="line"/>
      <point x="40" y="891"/>
      <point x="38" y="872"/>
      <point x="38" y="853" type="curve" smooth="yes"/>
      <point x="38" y="799"/>
      <point x="50" y="760"/>
      <point x="74" y="733" type="curve" smooth="yes"/>
      <point x="113" y="689"/>
      <point x="175" y="675"/>
      <point x="290" y="675" type="curve" smooth="yes"/>
      <point x="427" y="675" type="line" smooth="yes"/>
      <point x="471" y="675"/>
      <point x="482" y="659"/>
    </contour>
  </outline>
</glyph>
<glyph name="ubeng" format="2">
  <advance width="782"/>
  <unicode hex="0989"/>
  <outline>
    <contour>
      <point x="508" y="622" type="curve"/>
      <point x="675" y="622" type="line"/>
      <point x="671" y="698"/>
      <point x="656" y="745"/>
      <point x="621" y="774" type="curve" smooth="yes"/>
      <point x="585" y="803"/>
      <point x="545" y="812"/>
      <point x="464" y="812" type="curve" smooth="yes"/>
      <point x="335" y="812" type="line" smooth="yes"/>
      <point x="287" y="812"/>
      <point x="268" y="815"/>
      <point x="254" y="826" type="curve" smooth="yes"/>
      <point x="241" y="836"/>
      <point x="236" y="851"/>
      <point x="236" y="877" type="curve" smooth="yes"/>
      <point x="236" y="883"/>
      <point x="237" y="893"/>
      <point x="239" y="905" type="curve"/>
      <point x="74" y="915" type="line"/>
      <point x="70" y="891"/>
      <point x="68" y="872"/>
      <point x="68" y="853" type="curve" smooth="yes"/>
      <point x="68" y="799"/>
      <point x="80" y="760"/>
      <point x="104" y="733" type="curve" smooth="yes"/>
      <point x="143" y="689"/>
      <point x="205" y="675"/>
      <point x="320" y="675" type="curve" smooth="yes"/>
      <point x="450" y="675" type="line" smooth="yes"/>
      <point x="494" y="675"/>
      <point x="505" y="659"/>
    </contour>
    <component base="ddabeng"/>
  </outline>
</glyph>
<glyph name="uubeng" format="2">
  <advance width="913"/>
  <unicode hex="098A"/>
  <outline>
    <contour>
      <point x="923" y="622" type="line"/>
      <point x="-10" y="622" type="line"/>
      <point x="-10" y="484" type="line"/>
      <point x="411" y="484" type="line"/>
      <point x="411" y="397" type="line" smooth="yes"/>
      <point x="411" y="338"/>
      <point x="425" y="299"/>
      <point x="450" y="271" type="curve" smooth="yes"/>
      <point x="478" y="240"/>
      <point x="523" y="227"/>
      <point x="578" y="227" type="curve" smooth="yes"/>
      <point x="633" y="227"/>
      <point x="683" y="242"/>
      <point x="732" y="277" type="curve"/>
      <point x="711" y="280" type="line"/>
      <point x="713" y="272"/>
      <point x="714" y="264"/>
      <point x="714" y="255" type="curve" smooth="yes"/>
      <point x="714" y="187"/>
      <point x="656" y="158"/>
      <point x="587" y="158" type="curve" smooth="yes"/>
      <point x="503" y="158"/>
      <point x="407" y="192"/>
      <point x="340" y="423" type="curve"/>
      <point x="198" y="380" type="line"/>
      <point x="236" y="277"/>
      <point x="292" y="203"/>
      <point x="339" y="154" type="curve"/>
      <point x="336" y="150" type="line"/>
      <point x="254" y="215"/>
      <point x="194" y="303"/>
      <point x="149" y="414" type="curve"/>
      <point x="13" y="364" type="line"/>
      <point x="116" y="128"/>
      <point x="283" y="17"/>
      <point x="579" y="17" type="curve" smooth="yes"/>
      <point x="799" y="17"/>
      <point x="885" y="110"/>
      <point x="885" y="238" type="curve" smooth="yes"/>
      <point x="885" y="319"/>
      <point x="859" y="372"/>
      <point x="808" y="443" type="curve"/>
      <point x="683" y="421" type="line"/>
      <point x="662" y="383"/>
      <point x="637" y="362"/>
      <point x="612" y="362" type="curve" smooth="yes"/>
      <point x="593" y="362"/>
      <point x="586" y="373"/>
      <point x="586" y="396" type="curve" smooth="yes"/>
      <point x="586" y="484" type="line"/>
      <point x="923" y="484" type="line"/>
    </contour>
    <contour>
      <point x="639" y="622" type="curve"/>
      <point x="806" y="622" type="line"/>
      <point x="802" y="698"/>
      <point x="787" y="745"/>
      <point x="752" y="774" type="curve" smooth="yes"/>
      <point x="716" y="803"/>
      <point x="676" y="812"/>
      <point x="595" y="812" type="curve" smooth="yes"/>
      <point x="445" y="812" type="line" smooth="yes"/>
      <point x="397" y="812"/>
      <point x="378" y="815"/>
      <point x="364" y="826" type="curve" smooth="yes"/>
      <point x="351" y="836"/>
      <point x="346" y="851"/>
      <point x="346" y="877" type="curve" smooth="yes"/>
      <point x="346" y="883"/>
      <point x="347" y="893"/>
      <point x="349" y="905" type="curve"/>
      <point x="184" y="915" type="line"/>
      <point x="180" y="891"/>
      <point x="178" y="872"/>
      <point x="178" y="853" type="curve" smooth="yes"/>
      <point x="178" y="799"/>
      <point x="190" y="760"/>
      <point x="214" y="733" type="curve" smooth="yes"/>
      <point x="253" y="689"/>
      <point x="315" y="675"/>
      <point x="430" y="675" type="curve" smooth="yes"/>
      <point x="581" y="675" type="line" smooth="yes"/>
      <point x="625" y="675"/>
      <point x="636" y="659"/>
    </contour>
  </outline>
</glyph>
<glyph name="rvocalicbeng" format="2">
  <advance width="1003"/>
  <unicode hex="098B"/>
  <outline>
    <contour>
      <point x="654" y="692" type="line"/>
      <point x="506" y="692" type="line"/>
      <point x="506" y="447" type="line"/>
      <point x="395" y="419"/>
      <point x="272" y="379"/>
      <point x="151" y="319" type="curve"/>
      <point x="213" y="164" type="line"/>
      <point x="370" y="133"/>
      <point x="448" y="62"/>
      <point x="504" y="0" type="curve"/>
      <point x="679" y="0" type="line"/>
      <point x="679" y="622" type="line"/>
    </contour>
    <contour>
      <point x="504" y="314" type="curve"/>
      <point x="504" y="252" type="line"/>
      <point x="504" y="219"/>
      <point x="505" y="193"/>
      <point x="507" y="171" type="curve"/>
      <point x="451" y="216"/>
      <point x="411" y="235"/>
      <point x="346" y="255" type="curve"/>
      <point x="410" y="284"/>
      <point x="449" y="300"/>
    </contour>
    <contour>
      <point x="387" y="412" type="curve"/>
      <point x="517" y="446" type="line"/>
      <point x="493" y="513"/>
      <point x="464" y="575"/>
      <point x="431" y="625" type="curve"/>
      <point x="296" y="532" type="line"/>
      <point x="336" y="499"/>
      <point x="368" y="455"/>
    </contour>
    <contour>
      <point x="206" y="410" type="curve" smooth="yes"/>
      <point x="305" y="410"/>
      <point x="360" y="448"/>
      <point x="458" y="565" type="curve"/>
      <point x="431" y="625" type="line"/>
      <point x="310" y="598" type="line"/>
      <point x="287" y="560"/>
      <point x="263" y="545"/>
      <point x="239" y="545" type="curve" smooth="yes"/>
      <point x="218" y="545"/>
      <point x="212" y="556"/>
      <point x="212" y="572" type="curve" smooth="yes"/>
      <point x="212" y="581"/>
      <point x="214" y="589"/>
      <point x="219" y="600" type="curve"/>
      <point x="64" y="628" type="line"/>
      <point x="52" y="601"/>
      <point x="44" y="572"/>
      <point x="44" y="544" type="curve" smooth="yes"/>
      <point x="44" y="462"/>
      <point x="102" y="410"/>
    </contour>
    <contour>
      <point x="906" y="692" type="line"/>
      <point x="756" y="692" type="line"/>
      <point x="756" y="308" type="line" smooth="yes"/>
      <point x="756" y="280"/>
      <point x="759" y="242"/>
      <point x="762" y="216" type="curve"/>
      <point x="789" y="214" type="line"/>
      <point x="748" y="264"/>
      <point x="682" y="308"/>
      <point x="600" y="331" type="curve"/>
      <point x="570" y="214" type="line"/>
      <point x="661" y="172"/>
      <point x="707" y="134"/>
      <point x="756" y="75" type="curve"/>
      <point x="931" y="75" type="line"/>
      <point x="931" y="622" type="line"/>
    </contour>
  </outline>
</glyph>
<glyph name="lvocalicbeng" format="2">
  <advance width="686"/>
  <unicode hex="098C"/>
  <outline>
    <contour>
      <point x="228" y="342" type="curve" smooth="yes"/>
      <point x="111" y="342"/>
      <point x="29" y="296"/>
      <point x="29" y="203" type="curve" smooth="yes"/>
      <point x="29" y="178"/>
      <point x="34" y="156"/>
      <point x="42" y="131" type="curve"/>
      <point x="202" y="161" type="line"/>
      <point x="200" y="167"/>
      <point x="199" y="173"/>
      <point x="199" y="182" type="curve" smooth="yes"/>
      <point x="199" y="196"/>
      <point x="209" y="209"/>
      <point x="231" y="209" type="curve" smooth="yes"/>
      <point x="253" y="209"/>
      <point x="265" y="199"/>
      <point x="265" y="182" type="curve" smooth="yes"/>
      <point x="265" y="157"/>
      <point x="242" y="139"/>
      <point x="169" y="136" type="curve"/>
      <point x="190" y="0" type="line"/>
      <point x="213" y="0" type="line" smooth="yes"/>
      <point x="457" y="0"/>
      <point x="660" y="58"/>
      <point x="660" y="254" type="curve" smooth="yes"/>
      <point x="660" y="341"/>
      <point x="638" y="446"/>
      <point x="393" y="520" type="curve" smooth="yes"/>
      <point x="247" y="564"/>
      <point x="230" y="572"/>
      <point x="230" y="595" type="curve" smooth="yes"/>
      <point x="230" y="608"/>
      <point x="236" y="620"/>
      <point x="255" y="641" type="curve"/>
      <point x="130" y="722" type="line"/>
      <point x="78" y="674"/>
      <point x="51" y="633"/>
      <point x="51" y="579" type="curve" smooth="yes"/>
      <point x="51" y="503"/>
      <point x="90" y="441"/>
      <point x="261" y="393" type="curve" smooth="yes"/>
      <point x="439" y="343"/>
      <point x="480" y="308"/>
      <point x="480" y="241" type="curve" smooth="yes"/>
      <point x="480" y="199"/>
      <point x="453" y="155"/>
      <point x="371" y="141" type="curve"/>
      <point x="366" y="62" type="line"/>
      <point x="400" y="94"/>
      <point x="428" y="141"/>
      <point x="428" y="200" type="curve" smooth="yes"/>
      <point x="428" y="280"/>
      <point x="350" y="342"/>
    </contour>
  </outline>
</glyph>
<glyph name="ebeng" format="2">
  <advance width="827"/>
  <unicode hex="098F"/>
  <outline>
    <contour>
      <point x="558" y="628" type="curve" smooth="yes"/>
      <point x="399" y="628"/>
      <point x="268" y="492"/>
      <point x="268" y="382" type="curve" smooth="yes"/>
      <point x="268" y="290"/>
      <point x="334" y="246"/>
      <point x="423" y="246" type="curve" smooth="yes"/>
      <point x="466" y="246"/>
      <point x="494" y="250"/>
      <point x="519" y="256" type="curve"/>
      <point x="511" y="389" type="line"/>
      <point x="500" y="387"/>
      <point x="487" y="386"/>
      <point x="476" y="386" type="curve" smooth="yes"/>
      <point x="448" y="386"/>
      <point x="440" y="396"/>
      <point x="440" y="412" type="curve" smooth="yes"/>
      <point x="440" y="443"/>
      <point x="491" y="490"/>
      <point x="534" y="490" type="curve" smooth="yes"/>
      <point x="548" y="490"/>
      <point x="560" y="486"/>
      <point x="567" y="477" type="curve" smooth="yes"/>
      <point x="576" y="466"/>
      <point x="579" y="450"/>
      <point x="579" y="425" type="curve" smooth="yes"/>
      <point x="579" y="150" type="line"/>
      <point x="536" y="188"/>
      <point x="507" y="195"/>
      <point x="461" y="195" type="curve" smooth="yes"/>
      <point x="415" y="195"/>
      <point x="365" y="183"/>
      <point x="305" y="183" type="curve" smooth="yes"/>
      <point x="239" y="183"/>
      <point x="201" y="202"/>
      <point x="201" y="275" type="curve" smooth="yes"/>
      <point x="201" y="304"/>
      <point x="204" y="330"/>
      <point x="210" y="355" type="curve"/>
      <point x="42" y="379" type="line"/>
      <point x="33" y="346"/>
      <point x="28" y="301"/>
      <point x="28" y="265" type="curve" smooth="yes"/>
      <point x="28" y="81"/>
      <point x="152" y="41"/>
      <point x="279" y="41" type="curve" smooth="yes"/>
      <point x="359" y="41"/>
      <point x="418" y="54"/>
      <point x="484" y="54" type="curve" smooth="yes"/>
      <point x="540" y="54"/>
      <point x="559" y="37"/>
      <point x="582" y="0" type="curve"/>
      <point x="754" y="0" type="line"/>
      <point x="754" y="443" type="line" smooth="yes"/>
      <point x="754" y="533"/>
      <point x="727" y="568"/>
      <point x="698" y="590" type="curve" smooth="yes"/>
      <point x="664" y="616"/>
      <point x="630" y="628"/>
    </contour>
  </outline>
</glyph>
<glyph name="aibeng" format="2">
  <advance width="976"/>
  <unicode hex="0990"/>
  <outline>
    <contour>
      <point x="558" y="628" type="curve" smooth="yes"/>
      <point x="399" y="628"/>
      <point x="268" y="492"/>
      <point x="268" y="382" type="curve" smooth="yes"/>
      <point x="268" y="290"/>
      <point x="334" y="246"/>
      <point x="423" y="246" type="curve" smooth="yes"/>
      <point x="466" y="246"/>
      <point x="494" y="250"/>
      <point x="519" y="256" type="curve"/>
      <point x="511" y="389" type="line"/>
      <point x="500" y="387"/>
      <point x="487" y="386"/>
      <point x="476" y="386" type="curve" smooth="yes"/>
      <point x="448" y="386"/>
      <point x="440" y="396"/>
      <point x="440" y="412" type="curve" smooth="yes"/>
      <point x="440" y="443"/>
      <point x="491" y="490"/>
      <point x="534" y="490" type="curve" smooth="yes"/>
      <point x="548" y="490"/>
      <point x="560" y="486"/>
      <point x="567" y="477" type="curve" smooth="yes"/>
      <point x="576" y="466"/>
      <point x="579" y="450"/>
      <point x="579" y="425" type="curve" smooth="yes"/>
      <point x="579" y="150" type="line"/>
      <point x="536" y="188"/>
      <point x="507" y="195"/>
      <point x="461" y="195" type="curve" smooth="yes"/>
      <point x="415" y="195"/>
      <point x="365" y="183"/>
      <point x="305" y="183" type="curve" smooth="yes"/>
      <point x="239" y="183"/>
      <point x="201" y="202"/>
      <point x="201" y="275" type="curve" smooth="yes"/>
      <point x="201" y="304"/>
      <point x="204" y="330"/>
      <point x="210" y="355" type="curve"/>
      <point x="42" y="379" type="line"/>
      <point x="33" y="346"/>
      <point x="28" y="301"/>
      <point x="28" y="265" type="curve" smooth="yes"/>
      <point x="28" y="81"/>
      <point x="152" y="41"/>
      <point x="279" y="41" type="curve" smooth="yes"/>
      <point x="359" y="41"/>
      <point x="418" y="54"/>
      <point x="484" y="54" type="curve" smooth="yes"/>
      <point x="540" y="54"/>
      <point x="559" y="37"/>
      <point x="582" y="0" type="curve"/>
      <point x="754" y="0" type="line"/>
      <point x="754" y="443" type="line" smooth="yes"/>
      <point x="754" y="530"/>
      <point x="727" y="568"/>
      <point x="698" y="590" type="curve" smooth="yes"/>
      <point x="664" y="616"/>
      <point x="630" y="628"/>
    </contour>
    <contour>
      <point x="936" y="588" type="curve" smooth="yes"/>
      <point x="936" y="648"/>
      <point x="913" y="698"/>
      <point x="873" y="732" type="curve" smooth="yes"/>
      <point x="828" y="770"/>
      <point x="775" y="790"/>
      <point x="657" y="807" type="curve" smooth="yes"/>
      <point x="573" y="819" type="line" smooth="yes"/>
      <point x="531" y="825"/>
      <point x="506" y="830"/>
      <point x="492" y="843" type="curve" smooth="yes"/>
      <point x="484" y="851"/>
      <point x="480" y="861"/>
      <point x="480" y="877" type="curve" smooth="yes"/>
      <point x="480" y="885"/>
      <point x="480" y="895"/>
      <point x="482" y="907" type="curve"/>
      <point x="317" y="917" type="line"/>
      <point x="314" y="903"/>
      <point x="312" y="882"/>
      <point x="312" y="868" type="curve" smooth="yes"/>
      <point x="312" y="746"/>
      <point x="376" y="696"/>
      <point x="507" y="679" type="curve" smooth="yes"/>
      <point x="616" y="665" type="line" smooth="yes"/>
      <point x="675" y="657"/>
      <point x="707" y="648"/>
      <point x="731" y="632" type="curve" smooth="yes"/>
      <point x="752" y="618"/>
      <point x="763" y="597"/>
      <point x="763" y="572" type="curve" smooth="yes"/>
      <point x="763" y="510"/>
      <point x="719" y="485"/>
      <point x="671" y="471" type="curve"/>
      <point x="686" y="306" type="line"/>
      <point x="827" y="364"/>
      <point x="936" y="454"/>
    </contour>
  </outline>
</glyph>
<glyph name="obeng" format="2">
  <advance width="830"/>
  <unicode hex="0993"/>
  <outline>
    <contour>
      <point x="568" y="629" type="curve" smooth="yes"/>
      <point x="419" y="629"/>
      <point x="272" y="543"/>
      <point x="272" y="419" type="curve" smooth="yes"/>
      <point x="272" y="340"/>
      <point x="331" y="280"/>
      <point x="448" y="269" type="curve"/>
      <point x="478" y="404" type="line"/>
      <point x="453" y="406"/>
      <point x="448" y="418"/>
      <point x="448" y="428" type="curve" smooth="yes"/>
      <point x="448" y="456"/>
      <point x="506" y="494"/>
      <point x="560" y="494" type="curve" smooth="yes"/>
      <point x="590" y="494"/>
      <point x="604" y="480"/>
      <point x="604" y="459" type="curve" smooth="yes"/>
      <point x="604" y="419"/>
      <point x="572" y="398"/>
      <point x="501" y="373" type="curve"/>
      <point x="553" y="247" type="line"/>
      <point x="668" y="288"/>
      <point x="780" y="366"/>
      <point x="780" y="473" type="curve" smooth="yes"/>
      <point x="780" y="567"/>
      <point x="707" y="629"/>
    </contour>
    <contour>
      <point x="792" y="221" type="curve" smooth="yes"/>
      <point x="792" y="289"/>
      <point x="751" y="339"/>
      <point x="687" y="378" type="curve"/>
      <point x="547" y="302" type="line"/>
      <point x="592" y="282"/>
      <point x="614" y="266"/>
      <point x="614" y="234" type="curve" smooth="yes"/>
      <point x="614" y="187"/>
      <point x="567" y="169"/>
      <point x="503" y="169" type="curve" smooth="yes"/>
      <point x="345" y="169"/>
      <point x="249" y="263"/>
      <point x="181" y="510" type="curve"/>
      <point x="16" y="463" type="line"/>
      <point x="118" y="125"/>
      <point x="296" y="24"/>
      <point x="514" y="24" type="curve" smooth="yes"/>
      <point x="697" y="24"/>
      <point x="792" y="105"/>
    </contour>
  </outline>
</glyph>
<glyph name="aubeng" format="2">
  <advance width="996"/>
  <unicode hex="0994"/>
  <outline>
    <contour>
      <point x="568" y="629" type="curve" smooth="yes"/>
      <point x="419" y="629"/>
      <point x="272" y="543"/>
      <point x="272" y="419" type="curve" smooth="yes"/>
      <point x="272" y="340"/>
      <point x="331" y="280"/>
      <point x="448" y="269" type="curve"/>
      <point x="478" y="404" type="line"/>
      <point x="453" y="406"/>
      <point x="448" y="418"/>
      <point x="448" y="428" type="curve" smooth="yes"/>
      <point x="448" y="456"/>
      <point x="506" y="494"/>
      <point x="560" y="494" type="curve" smooth="yes"/>
      <point x="590" y="494"/>
      <point x="604" y="480"/>
      <point x="604" y="459" type="curve" smooth="yes"/>
      <point x="604" y="419"/>
      <point x="572" y="398"/>
      <point x="501" y="373" type="curve"/>
      <point x="553" y="247" type="line"/>
      <point x="631" y="275"/>
      <point x="703" y="320"/>
      <point x="741" y="379" type="curve"/>
      <point x="758" y="420" type="line"/>
      <point x="764" y="437"/>
      <point x="767" y="454"/>
      <point x="767" y="473" type="curve" smooth="yes"/>
      <point x="767" y="575"/>
      <point x="707" y="629"/>
    </contour>
    <contour>
      <point x="792" y="221" type="curve" smooth="yes"/>
      <point x="792" y="289"/>
      <point x="751" y="339"/>
      <point x="687" y="378" type="curve"/>
      <point x="547" y="302" type="line"/>
      <point x="592" y="282"/>
      <point x="614" y="266"/>
      <point x="614" y="234" type="curve" smooth="yes"/>
      <point x="614" y="187"/>
      <point x="567" y="169"/>
      <point x="503" y="169" type="curve" smooth="yes"/>
      <point x="345" y="169"/>
      <point x="249" y="263"/>
      <point x="181" y="510" type="curve"/>
      <point x="16" y="463" type="line"/>
      <point x="118" y="125"/>
      <point x="296" y="24"/>
      <point x="514" y="24" type="curve" smooth="yes"/>
      <point x="697" y="24"/>
      <point x="792" y="105"/>
    </contour>
    <contour>
      <point x="956" y="588" type="curve" smooth="yes"/>
      <point x="956" y="648"/>
      <point x="933" y="698"/>
      <point x="893" y="732" type="curve" smooth="yes"/>
      <point x="848" y="770"/>
      <point x="795" y="790"/>
      <point x="677" y="807" type="curve" smooth="yes"/>
      <point x="593" y="819" type="line" smooth="yes"/>
      <point x="551" y="825"/>
      <point x="526" y="830"/>
      <point x="512" y="843" type="curve" smooth="yes"/>
      <point x="504" y="851"/>
      <point x="500" y="861"/>
      <point x="500" y="877" type="curve" smooth="yes"/>
      <point x="500" y="885"/>
      <point x="500" y="895"/>
      <point x="502" y="907" type="curve"/>
      <point x="337" y="917" type="line"/>
      <point x="334" y="903"/>
      <point x="332" y="882"/>
      <point x="332" y="868" type="curve" smooth="yes"/>
      <point x="332" y="746"/>
      <point x="396" y="696"/>
      <point x="527" y="679" type="curve" smooth="yes"/>
      <point x="636" y="665" type="line" smooth="yes"/>
      <point x="695" y="657"/>
      <point x="727" y="648"/>
      <point x="751" y="632" type="curve" smooth="yes"/>
      <point x="772" y="618"/>
      <point x="783" y="597"/>
      <point x="783" y="572" type="curve" smooth="yes"/>
      <point x="783" y="511"/>
      <point x="754" y="486"/>
      <point x="699" y="462" type="curve"/>
      <point x="706" y="306" type="line"/>
      <point x="847" y="364"/>
      <point x="956" y="454"/>
    </contour>
  </outline>
</glyph>
<glyph name="kabeng" format="2">
  <advance width="878"/>
  <unicode hex="0995"/>
  <outline>
    <contour>
      <point x="888" y="622" type="line"/>
      <point x="-10" y="622" type="line"/>
      <point x="-10" y="484" type="line"/>
      <point x="392" y="484" type="line"/>
      <point x="392" y="441" type="line"/>
      <point x="409" y="468" type="line"/>
      <point x="274" y="437"/>
      <point x="144" y="393"/>
      <point x="14" y="327" type="curve"/>
      <point x="77" y="170" type="line"/>
      <point x="219" y="143"/>
      <point x="303" y="95"/>
      <point x="386" y="0" type="curve"/>
      <point x="561" y="0" type="line"/>
      <point x="561" y="359" type="line"/>
      <point x="558" y="418" type="line"/>
      <point x="558" y="484" type="line"/>
      <point x="888" y="484" type="line"/>
    </contour>
    <contour>
      <point x="386" y="337" type="line"/>
      <point x="386" y="233" type="line" smooth="yes"/>
      <point x="386" y="203"/>
      <point x="389" y="167"/>
      <point x="392" y="141" type="curve"/>
      <point x="419" y="139" type="line"/>
      <point x="372" y="199"/>
      <point x="282" y="247"/>
      <point x="214" y="260" type="curve"/>
      <point x="276" y="289"/>
      <point x="334" y="311"/>
      <point x="404" y="328" type="curve"/>
    </contour>
    <contour>
      <point x="852" y="241" type="curve" smooth="yes"/>
      <point x="852" y="368"/>
      <point x="719" y="449"/>
      <point x="548" y="465" type="curve"/>
      <point x="550" y="333" type="line"/>
      <point x="642" y="319"/>
      <point x="679" y="296"/>
      <point x="679" y="268" type="curve" smooth="yes"/>
      <point x="679" y="252"/>
      <point x="668" y="241"/>
      <point x="645" y="241" type="curve" smooth="yes"/>
      <point x="632" y="241"/>
      <point x="620" y="242"/>
      <point x="611" y="244" type="curve"/>
      <point x="605" y="106" type="line"/>
      <point x="630" y="101"/>
      <point x="659" y="99"/>
      <point x="690" y="99" type="curve" smooth="yes"/>
      <point x="818" y="99"/>
      <point x="852" y="163"/>
    </contour>
  </outline>
</glyph>
<glyph name="khabeng" format="2">
  <advance width="799"/>
  <unicode hex="0996"/>
  <outline>
    <contour>
      <point x="809" y="622" type="line"/>
      <point x="724" y="622" type="line"/>
      <point x="699" y="692" type="line"/>
      <point x="549" y="692" type="line"/>
      <point x="549" y="273" type="line" smooth="yes"/>
      <point x="549" y="238"/>
      <point x="549" y="207"/>
      <point x="551" y="177" type="curve"/>
      <point x="484" y="230"/>
      <point x="419" y="267"/>
      <point x="279" y="286" type="curve"/>
      <point x="158" y="333" type="line"/>
      <point x="201" y="184" type="line"/>
      <point x="374" y="148"/>
      <point x="451" y="107"/>
      <point x="549" y="0" type="curve"/>
      <point x="724" y="0" type="line"/>
      <point x="724" y="484" type="line"/>
      <point x="809" y="484" type="line"/>
    </contour>
    <contour>
      <point x="508" y="456" type="curve" smooth="yes"/>
      <point x="508" y="523"/>
      <point x="475" y="586"/>
      <point x="436" y="625" type="curve"/>
      <point x="267" y="523" type="line"/>
      <point x="300" y="504"/>
      <point x="338" y="471"/>
      <point x="338" y="439" type="curve" smooth="yes"/>
      <point x="338" y="382"/>
      <point x="264" y="355"/>
      <point x="158" y="333" type="curve"/>
      <point x="180" y="272" type="line"/>
      <point x="271" y="242" type="line"/>
      <point x="456" y="266"/>
      <point x="508" y="353"/>
    </contour>
    <contour>
      <point x="206" y="410" type="curve" smooth="yes"/>
      <point x="321" y="410"/>
      <point x="369" y="473"/>
      <point x="438" y="567" type="curve"/>
      <point x="436" y="625" type="line"/>
      <point x="310" y="598" type="line"/>
      <point x="287" y="560"/>
      <point x="263" y="545"/>
      <point x="239" y="545" type="curve" smooth="yes"/>
      <point x="218" y="545"/>
      <point x="212" y="556"/>
      <point x="212" y="572" type="curve" smooth="yes"/>
      <point x="212" y="581"/>
      <point x="214" y="589"/>
      <point x="219" y="600" type="curve"/>
      <point x="64" y="628" type="line"/>
      <point x="52" y="601"/>
      <point x="44" y="572"/>
      <point x="44" y="544" type="curve" smooth="yes"/>
      <point x="44" y="462"/>
      <point x="102" y="410"/>
    </contour>
  </outline>
</glyph>
<glyph name="gabeng" format="2">
  <advance width="747"/>
  <unicode hex="0997"/>
  <outline>
    <contour>
      <point x="497" y="0" type="line"/>
      <point x="672" y="0" type="line"/>
      <point x="672" y="484" type="line"/>
      <point x="757" y="484" type="line"/>
      <point x="757" y="622" type="line"/>
      <point x="671" y="622" type="line"/>
      <point x="647" y="692" type="line"/>
      <point x="497" y="692" type="line"/>
      <point x="497" y="614" type="line" smooth="yes"/>
      <point x="497" y="575"/>
      <point x="498" y="530"/>
      <point x="500" y="514" type="curve"/>
      <point x="541" y="490" type="line"/>
      <point x="452" y="586"/>
      <point x="383" y="629"/>
      <point x="293" y="629" type="curve" smooth="yes"/>
      <point x="169" y="629"/>
      <point x="93" y="555"/>
      <point x="15" y="452" type="curve"/>
      <point x="139" y="347" type="line"/>
      <point x="169" y="364"/>
      <point x="189" y="372"/>
      <point x="215" y="372" type="curve" smooth="yes"/>
      <point x="233" y="372"/>
      <point x="243" y="362"/>
      <point x="243" y="346" type="curve" smooth="yes"/>
      <point x="243" y="319"/>
      <point x="220" y="302"/>
      <point x="135" y="262" type="curve"/>
      <point x="228" y="132" type="line"/>
      <point x="347" y="191"/>
      <point x="412" y="269"/>
      <point x="412" y="350" type="curve" smooth="yes"/>
      <point x="412" y="429"/>
      <point x="358" y="475"/>
      <point x="277" y="475" type="curve" smooth="yes"/>
      <point x="228" y="475"/>
      <point x="201" y="464"/>
      <point x="168" y="447" type="curve"/>
      <point x="174" y="439" type="line"/>
      <point x="208" y="473"/>
      <point x="234" y="497"/>
      <point x="299" y="497" type="curve" smooth="yes"/>
      <point x="383" y="497"/>
      <point x="445" y="426"/>
      <point x="503" y="357" type="curve"/>
      <point x="497" y="403" type="line"/>
    </contour>
  </outline>
</glyph>
<glyph name="ghabeng" format="2">
  <advance width="689"/>
  <unicode hex="0998"/>
  <outline>
    <contour>
      <point x="699" y="622" type="line"/>
      <point x="-10" y="622" type="line"/>
      <point x="-10" y="484" type="line"/>
      <point x="439" y="484" type="line"/>
      <point x="439" y="229" type="line" smooth="yes"/>
      <point x="439" y="192"/>
      <point x="440" y="169"/>
      <point x="441" y="152" type="curve"/>
      <point x="377" y="201"/>
      <point x="303" y="226"/>
      <point x="230" y="239" type="curve"/>
      <point x="240" y="216" type="line"/>
      <point x="290" y="247"/>
      <point x="342" y="272"/>
      <point x="405" y="298" type="curve"/>
      <point x="339" y="412" type="line"/>
      <point x="304" y="392"/>
      <point x="281" y="384"/>
      <point x="257" y="384" type="curve" smooth="yes"/>
      <point x="229" y="384"/>
      <point x="215" y="399"/>
      <point x="215" y="423" type="curve" smooth="yes"/>
      <point x="215" y="453"/>
      <point x="237" y="478"/>
      <point x="287" y="507" type="curve"/>
      <point x="144" y="557" type="line"/>
      <point x="68" y="514"/>
      <point x="36" y="475"/>
      <point x="36" y="414" type="curve" smooth="yes"/>
      <point x="36" y="342"/>
      <point x="93" y="293"/>
      <point x="190" y="293" type="curve" smooth="yes"/>
      <point x="206" y="293"/>
      <point x="219" y="294"/>
      <point x="232" y="296" type="curve"/>
      <point x="168" y="313" type="line"/>
      <point x="123" y="294"/>
      <point x="80" y="269"/>
      <point x="47" y="246" type="curve"/>
      <point x="96" y="136" type="line"/>
      <point x="255" y="118"/>
      <point x="351" y="73"/>
      <point x="439" y="0" type="curve"/>
      <point x="614" y="0" type="line"/>
      <point x="614" y="484" type="line"/>
      <point x="699" y="484" type="line"/>
    </contour>
  </outline>
</glyph>
<glyph name="ngabeng" format="2">
  <advance width="793"/>
  <unicode hex="0999"/>
  <outline>
    <contour>
      <point x="467" y="0" type="curve" smooth="yes"/>
      <point x="663" y="0"/>
      <point x="767" y="84"/>
      <point x="767" y="224" type="curve" smooth="yes"/>
      <point x="767" y="290"/>
      <point x="744" y="348"/>
      <point x="701" y="405" type="curve"/>
      <point x="566" y="388" type="line"/>
      <point x="536" y="357"/>
      <point x="508" y="334"/>
      <point x="476" y="334" type="curve" smooth="yes"/>
      <point x="457" y="334"/>
      <point x="450" y="342"/>
      <point x="450" y="375" type="curve" smooth="yes"/>
      <point x="450" y="472" type="line" smooth="yes"/>
      <point x="450" y="506"/>
      <point x="465" y="528"/>
      <point x="488" y="528" type="curve" smooth="yes"/>
      <point x="503" y="528"/>
      <point x="511" y="520"/>
      <point x="511" y="509" type="curve" smooth="yes"/>
      <point x="511" y="494"/>
      <point x="496" y="482"/>
      <point x="463" y="482" type="curve" smooth="yes"/>
      <point x="375" y="482"/>
      <point x="307" y="544"/>
      <point x="249" y="623" type="curve"/>
      <point x="136" y="540" type="line"/>
      <point x="197" y="463"/>
      <point x="288" y="380"/>
      <point x="452" y="380" type="curve" smooth="yes"/>
      <point x="560" y="380"/>
      <point x="656" y="418"/>
      <point x="656" y="509" type="curve" smooth="yes"/>
      <point x="656" y="583"/>
      <point x="601" y="631"/>
      <point x="494" y="631" type="curve" smooth="yes"/>
      <point x="352" y="631"/>
      <point x="279" y="538"/>
      <point x="279" y="419" type="curve" smooth="yes"/>
      <point x="279" y="378" type="line" smooth="yes"/>
      <point x="279" y="310"/>
      <point x="294" y="271"/>
      <point x="319" y="243" type="curve" smooth="yes"/>
      <point x="347" y="212"/>
      <point x="392" y="199"/>
      <point x="442" y="199" type="curve" smooth="yes"/>
      <point x="526" y="199"/>
      <point x="599" y="231"/>
      <point x="656" y="291" type="curve"/>
      <point x="554" y="324" type="line"/>
      <point x="581" y="298"/>
      <point x="596" y="268"/>
      <point x="596" y="236" type="curve" smooth="yes"/>
      <point x="596" y="172"/>
      <point x="534" y="145"/>
      <point x="452" y="145" type="curve" smooth="yes"/>
      <point x="307" y="145"/>
      <point x="226" y="233"/>
      <point x="174" y="439" type="curve"/>
      <point x="13" y="396" type="line"/>
      <point x="102" y="81"/>
      <point x="280" y="0"/>
    </contour>
  </outline>
</glyph>
<glyph name="cabeng" format="2">
  <advance width="612"/>
  <unicode hex="099A"/>
  <outline>
    <contour>
      <point x="622" y="622" type="line"/>
      <point x="-10" y="622" type="line"/>
      <point x="-10" y="484" type="line"/>
      <point x="72" y="484" type="line"/>
      <point x="72" y="230" type="line" smooth="yes"/>
      <point x="72" y="134"/>
      <point x="96" y="93"/>
      <point x="133" y="61" type="curve" smooth="yes"/>
      <point x="167" y="31"/>
      <point x="219" y="18"/>
      <point x="281" y="18" type="curve" smooth="yes"/>
      <point x="369" y="18"/>
      <point x="444" y="51"/>
      <point x="500" y="102" type="curve" smooth="yes"/>
      <point x="551" y="149"/>
      <point x="584" y="210"/>
      <point x="584" y="282" type="curve" smooth="yes"/>
      <point x="584" y="327"/>
      <point x="570" y="361"/>
      <point x="542" y="383" type="curve" smooth="yes"/>
      <point x="514" y="405"/>
      <point x="477" y="414"/>
      <point x="419" y="414" type="curve" smooth="yes"/>
      <point x="391" y="414" type="line" smooth="yes"/>
      <point x="308" y="414"/>
      <point x="267" y="441"/>
      <point x="229" y="493" type="curve"/>
      <point x="207" y="365" type="line"/>
      <point x="228" y="338"/>
      <point x="251" y="317"/>
      <point x="277" y="301" type="curve" smooth="yes"/>
      <point x="307" y="282"/>
      <point x="337" y="272"/>
      <point x="375" y="272" type="curve" smooth="yes"/>
      <point x="382" y="272" type="line" smooth="yes"/>
      <point x="404" y="272"/>
      <point x="411" y="261"/>
      <point x="411" y="247" type="curve" smooth="yes"/>
      <point x="411" y="227"/>
      <point x="395" y="202"/>
      <point x="369" y="183" type="curve" smooth="yes"/>
      <point x="348" y="168"/>
      <point x="323" y="156"/>
      <point x="291" y="156" type="curve" smooth="yes"/>
      <point x="279" y="156"/>
      <point x="268" y="159"/>
      <point x="261" y="166" type="curve" smooth="yes"/>
      <point x="252" y="174"/>
      <point x="247" y="185"/>
      <point x="247" y="214" type="curve" smooth="yes"/>
      <point x="247" y="289" type="line" smooth="yes"/>
      <point x="247" y="306"/>
      <point x="245" y="328"/>
      <point x="244" y="342" type="curve"/>
      <point x="243" y="461" type="line"/>
      <point x="243" y="484" type="line"/>
      <point x="622" y="484" type="line"/>
    </contour>
  </outline>
</glyph>
<glyph name="chabeng" format="2">
  <advance width="765"/>
  <unicode hex="099B"/>
  <outline>
    <contour>
      <point x="708" y="275" type="curve" smooth="yes"/>
      <point x="708" y="363"/>
      <point x="652" y="459"/>
      <point x="460" y="459" type="curve" smooth="yes"/>
      <point x="412" y="459"/>
      <point x="383" y="456"/>
      <point x="365" y="454" type="curve"/>
      <point x="373" y="347" type="line"/>
      <point x="385" y="349"/>
      <point x="399" y="350"/>
      <point x="406" y="350" type="curve" smooth="yes"/>
      <point x="489" y="350"/>
      <point x="532" y="321"/>
      <point x="532" y="268" type="curve" smooth="yes"/>
      <point x="532" y="191"/>
      <point x="464" y="147"/>
      <point x="304" y="147" type="curve" smooth="yes"/>
      <point x="234" y="147"/>
      <point x="179" y="152"/>
      <point x="141" y="157" type="curve"/>
      <point x="129" y="16" type="line"/>
      <point x="326" y="13"/>
      <point x="513" y="-8"/>
      <point x="721" y="-61" type="curve"/>
      <point x="761" y="78" type="line"/>
      <point x="662" y="105"/>
      <point x="506" y="119"/>
      <point x="391" y="123" type="curve"/>
      <point x="422" y="60" type="line"/>
      <point x="573" y="69"/>
      <point x="708" y="127"/>
    </contour>
    <contour>
      <point x="251" y="176" type="curve" smooth="yes"/>
      <point x="405" y="176"/>
      <point x="512" y="253"/>
      <point x="512" y="356" type="curve" smooth="yes"/>
      <point x="512" y="395"/>
      <point x="490" y="413"/>
      <point x="459" y="434" type="curve" smooth="yes"/>
      <point x="440" y="447"/>
      <point x="418" y="455"/>
      <point x="404" y="455" type="curve"/>
      <point x="322" y="455" type="line" smooth="yes"/>
      <point x="243" y="455"/>
      <point x="214" y="476"/>
      <point x="178" y="524" type="curve"/>
      <point x="161" y="435" type="line"/>
      <point x="202" y="386"/>
      <point x="246" y="348"/>
      <point x="309" y="348" type="curve" smooth="yes"/>
      <point x="330" y="348" type="line" smooth="yes"/>
      <point x="340" y="348"/>
      <point x="345" y="343"/>
      <point x="345" y="337" type="curve" smooth="yes"/>
      <point x="345" y="316"/>
      <point x="305" y="299"/>
      <point x="259" y="299" type="curve" smooth="yes"/>
      <point x="245" y="299"/>
      <point x="236" y="301"/>
      <point x="230" y="307" type="curve" smooth="yes"/>
      <point x="225" y="312"/>
      <point x="221" y="320"/>
      <point x="221" y="342" type="curve" smooth="yes"/>
      <point x="221" y="355" type="line" smooth="yes"/>
      <point x="221" y="362"/>
      <point x="221" y="373"/>
      <point x="220" y="385" type="curve"/>
      <point x="218" y="463" type="line"/>
      <point x="218" y="499" type="line"/>
      <point x="52" y="499" type="line"/>
      <point x="52" y="356" type="line" smooth="yes"/>
      <point x="52" y="287"/>
      <point x="64" y="253"/>
      <point x="90" y="225" type="curve" smooth="yes"/>
      <point x="121" y="192"/>
      <point x="173" y="176"/>
    </contour>
    <contour>
      <point x="-10" y="484" type="line"/>
      <point x="775" y="484" type="line"/>
      <point x="775" y="622" type="line"/>
      <point x="-10" y="622" type="line"/>
    </contour>
  </outline>
</glyph>
<glyph name="jabeng" format="2">
  <advance width="1046"/>
  <unicode hex="099C"/>
  <outline>
    <contour>
      <point x="459" y="18" type="curve" smooth="yes"/>
      <point x="671" y="18"/>
      <point x="744" y="125"/>
      <point x="744" y="234" type="curve" smooth="yes"/>
      <point x="744" y="259"/>
      <point x="741" y="287"/>
      <point x="733" y="312" type="curve"/>
      <point x="551" y="368" type="line"/>
      <point x="528" y="352"/>
      <point x="506" y="341"/>
      <point x="485" y="341" type="curve" smooth="yes"/>
      <point x="467" y="341"/>
      <point x="456" y="350"/>
      <point x="456" y="365" type="curve" smooth="yes"/>
      <point x="456" y="408"/>
      <point x="532" y="444"/>
      <point x="652" y="490" type="curve"/>
      <point x="721" y="486"/>
      <point x="789" y="484"/>
      <point x="855" y="484" type="curve" smooth="yes"/>
      <point x="1056" y="484" type="line"/>
      <point x="1056" y="622" type="line"/>
      <point x="-10" y="622" type="line"/>
      <point x="-10" y="484" type="line"/>
      <point x="290" y="484" type="line" smooth="yes"/>
      <point x="317" y="484"/>
      <point x="351" y="485"/>
      <point x="376" y="487" type="curve"/>
      <point x="311" y="445"/>
      <point x="281" y="399"/>
      <point x="281" y="346" type="curve" smooth="yes"/>
      <point x="281" y="246"/>
      <point x="359" y="208"/>
      <point x="456" y="208" type="curve" smooth="yes"/>
      <point x="549" y="208"/>
      <point x="601" y="237"/>
      <point x="682" y="306" type="curve"/>
      <point x="548" y="310" type="line"/>
      <point x="564" y="291"/>
      <point x="576" y="265"/>
      <point x="576" y="239" type="curve" smooth="yes"/>
      <point x="576" y="200"/>
      <point x="543" y="163"/>
      <point x="453" y="163" type="curve" smooth="yes"/>
      <point x="319" y="163"/>
      <point x="225" y="243"/>
      <point x="174" y="450" type="curve"/>
      <point x="13" y="407" type="line"/>
      <point x="95" y="109"/>
      <point x="275" y="18"/>
    </contour>
    <contour>
      <point x="965" y="170" type="curve" smooth="yes"/>
      <point x="965" y="241"/>
      <point x="977" y="289"/>
      <point x="1002" y="340" type="curve"/>
      <point x="929" y="453" type="line"/>
      <point x="907" y="451"/>
      <point x="883" y="450"/>
      <point x="875" y="450" type="curve" smooth="yes"/>
      <point x="771" y="450"/>
      <point x="735" y="473"/>
      <point x="710" y="507" type="curve"/>
      <point x="540" y="482" type="line"/>
      <point x="591" y="392"/>
      <point x="677" y="339"/>
      <point x="809" y="320" type="curve"/>
      <point x="795" y="273"/>
      <point x="789" y="222"/>
      <point x="789" y="182" type="curve" smooth="yes"/>
      <point x="789" y="109"/>
      <point x="800" y="48"/>
      <point x="820" y="-14" type="curve"/>
      <point x="990" y="21" type="line"/>
      <point x="974" y="70"/>
      <point x="965" y="127"/>
    </contour>
  </outline>
</glyph>
<glyph name="jhabeng" format="2">
  <advance width="885"/>
  <unicode hex="099D"/>
  <outline>
    <contour>
      <point x="561" y="622" type="line"/>
      <point x="-10" y="622" type="line"/>
      <point x="-10" y="484" type="line"/>
      <point x="393" y="484" type="line"/>
      <point x="393" y="442" type="line"/>
      <point x="408" y="468" type="line"/>
      <point x="273" y="437"/>
      <point x="144" y="393"/>
      <point x="14" y="327" type="curve"/>
      <point x="77" y="170" type="line"/>
      <point x="219" y="143"/>
      <point x="303" y="95"/>
      <point x="386" y="0" type="curve"/>
      <point x="561" y="0" type="line"/>
    </contour>
    <contour>
      <point x="386" y="358" type="line"/>
      <point x="386" y="233" type="line"/>
      <point x="386" y="203"/>
      <point x="389" y="167"/>
      <point x="392" y="141" type="curve"/>
      <point x="419" y="139" type="line"/>
      <point x="372" y="199"/>
      <point x="282" y="247"/>
      <point x="214" y="260" type="curve"/>
      <point x="276" y="290"/>
      <point x="334" y="311"/>
      <point x="404" y="328" type="curve"/>
    </contour>
    <contour>
      <point x="895" y="622" type="line"/>
      <point x="809" y="622" type="line"/>
      <point x="785" y="692" type="line"/>
      <point x="635" y="692" type="line"/>
      <point x="635" y="308" type="line" smooth="yes"/>
      <point x="635" y="280"/>
      <point x="638" y="242"/>
      <point x="641" y="216" type="curve"/>
      <point x="668" y="214" type="line"/>
      <point x="627" y="264"/>
      <point x="561" y="308"/>
      <point x="479" y="331" type="curve"/>
      <point x="449" y="214" type="line"/>
      <point x="540" y="172"/>
      <point x="586" y="134"/>
      <point x="635" y="75" type="curve"/>
      <point x="810" y="75" type="line"/>
      <point x="810" y="484" type="line"/>
      <point x="895" y="484" type="line"/>
    </contour>
  </outline>
</glyph>
<glyph name="nyabeng" format="2">
  <advance width="1120"/>
  <unicode hex="099E"/>
  <outline>
    <contour>
      <point x="558" y="628" type="curve" smooth="yes"/>
      <point x="399" y="628"/>
      <point x="268" y="492"/>
      <point x="268" y="382" type="curve" smooth="yes"/>
      <point x="268" y="290"/>
      <point x="334" y="246"/>
      <point x="423" y="246" type="curve" smooth="yes"/>
      <point x="466" y="246"/>
      <point x="494" y="250"/>
      <point x="519" y="256" type="curve"/>
      <point x="511" y="389" type="line"/>
      <point x="500" y="387"/>
      <point x="487" y="386"/>
      <point x="476" y="386" type="curve" smooth="yes"/>
      <point x="448" y="386"/>
      <point x="440" y="396"/>
      <point x="440" y="412" type="curve" smooth="yes"/>
      <point x="440" y="443"/>
      <point x="491" y="490"/>
      <point x="534" y="490" type="curve" smooth="yes"/>
      <point x="548" y="490"/>
      <point x="560" y="486"/>
      <point x="567" y="477" type="curve" smooth="yes"/>
      <point x="576" y="466"/>
      <point x="579" y="450"/>
      <point x="579" y="425" type="curve" smooth="yes"/>
      <point x="579" y="150" type="line"/>
      <point x="536" y="188"/>
      <point x="507" y="195"/>
      <point x="461" y="195" type="curve" smooth="yes"/>
      <point x="415" y="195"/>
      <point x="365" y="183"/>
      <point x="305" y="183" type="curve" smooth="yes"/>
      <point x="239" y="183"/>
      <point x="201" y="202"/>
      <point x="201" y="275" type="curve" smooth="yes"/>
      <point x="201" y="304"/>
      <point x="204" y="330"/>
      <point x="210" y="355" type="curve"/>
      <point x="42" y="379" type="line"/>
      <point x="33" y="346"/>
      <point x="28" y="301"/>
      <point x="28" y="265" type="curve" smooth="yes"/>
      <point x="28" y="81"/>
      <point x="152" y="41"/>
      <point x="279" y="41" type="curve" smooth="yes"/>
      <point x="359" y="41"/>
      <point x="418" y="54"/>
      <point x="484" y="54" type="curve" smooth="yes"/>
      <point x="540" y="54"/>
      <point x="559" y="37"/>
      <point x="582" y="0" type="curve"/>
      <point x="754" y="0" type="line"/>
      <point x="754" y="140" type="line" smooth="yes"/>
      <point x="754" y="176"/>
      <point x="752" y="215"/>
      <point x="747" y="247" type="curve"/>
      <point x="754" y="298" type="line"/>
      <point x="754" y="415" type="line"/>
      <point x="751" y="437" type="line"/>
      <point x="751" y="522"/>
      <point x="728" y="566"/>
      <point x="695" y="591" type="curve" smooth="yes"/>
      <point x="665" y="614"/>
      <point x="630" y="628"/>
    </contour>
    <contour>
      <point x="916" y="620" type="curve" smooth="yes"/>
      <point x="827" y="620"/>
      <point x="766" y="585"/>
      <point x="709" y="526" type="curve"/>
      <point x="743" y="384" type="line"/>
      <point x="792" y="463"/>
      <point x="840" y="497"/>
      <point x="884" y="497" type="curve" smooth="yes"/>
      <point x="901" y="497"/>
      <point x="912" y="492"/>
      <point x="912" y="476" type="curve" smooth="yes"/>
      <point x="912" y="455"/>
      <point x="885" y="444"/>
      <point x="838" y="436" type="curve"/>
      <point x="866" y="321" type="line"/>
      <point x="1043" y="357"/>
      <point x="1076" y="426"/>
      <point x="1076" y="493" type="curve" smooth="yes"/>
      <point x="1076" y="565"/>
      <point x="1020" y="620"/>
    </contour>
    <contour>
      <point x="910" y="154" type="curve" smooth="yes"/>
      <point x="1027" y="154"/>
      <point x="1080" y="218"/>
      <point x="1080" y="287" type="curve" smooth="yes"/>
      <point x="1080" y="355"/>
      <point x="1033" y="390"/>
      <point x="989" y="413" type="curve"/>
      <point x="873" y="355" type="line"/>
      <point x="902" y="340"/>
      <point x="919" y="328"/>
      <point x="919" y="305" type="curve" smooth="yes"/>
      <point x="919" y="285"/>
      <point x="904" y="277"/>
      <point x="878" y="277" type="curve" smooth="yes"/>
      <point x="823" y="277"/>
      <point x="765" y="321"/>
      <point x="742" y="431" type="curve"/>
      <point x="670" y="335" type="line"/>
      <point x="718" y="253" type="line"/>
      <point x="754" y="196"/>
      <point x="816" y="154"/>
    </contour>
  </outline>
</glyph>
<glyph name="ttabeng" format="2">
  <advance width="612"/>
  <unicode hex="099F"/>
  <outline>
    <contour>
      <point x="622" y="622" type="line"/>
      <point x="-10" y="622" type="line"/>
      <point x="-10" y="484" type="line"/>
      <point x="72" y="484" type="line"/>
      <point x="72" y="230" type="line" smooth="yes"/>
      <point x="72" y="134"/>
      <point x="96" y="93"/>
      <point x="133" y="61" type="curve" smooth="yes"/>
      <point x="167" y="31"/>
      <point x="219" y="18"/>
      <point x="281" y="18" type="curve" smooth="yes"/>
      <point x="369" y="18"/>
      <point x="444" y="51"/>
      <point x="500" y="102" type="curve" smooth="yes"/>
      <point x="551" y="149"/>
      <point x="584" y="210"/>
      <point x="584" y="282" type="curve" smooth="yes"/>
      <point x="584" y="347"/>
      <point x="552" y="422"/>
      <point x="420" y="422" type="curve" smooth="yes"/>
      <point x="380" y="422"/>
      <point x="348" y="416"/>
      <point x="318" y="409" type="curve"/>
      <point x="340" y="270" type="line"/>
      <point x="352" y="272"/>
      <point x="365" y="274"/>
      <point x="379" y="274" type="curve" smooth="yes"/>
      <point x="402" y="274"/>
      <point x="414" y="265"/>
      <point x="414" y="247" type="curve" smooth="yes"/>
      <point x="414" y="226"/>
      <point x="393" y="201"/>
      <point x="372" y="186" type="curve" smooth="yes"/>
      <point x="348" y="169"/>
      <point x="323" y="156"/>
      <point x="291" y="156" type="curve" smooth="yes"/>
      <point x="279" y="156"/>
      <point x="268" y="159"/>
      <point x="261" y="166" type="curve" smooth="yes"/>
      <point x="252" y="174"/>
      <point x="247" y="185"/>
      <point x="247" y="214" type="curve" smooth="yes"/>
      <point x="247" y="484" type="line"/>
      <point x="622" y="484" type="line"/>
    </contour>
    <contour>
      <point x="368" y="622" type="curve"/>
      <point x="535" y="622" type="line"/>
      <point x="531" y="698"/>
      <point x="516" y="745"/>
      <point x="481" y="774" type="curve" smooth="yes"/>
      <point x="445" y="803"/>
      <point x="405" y="812"/>
      <point x="324" y="812" type="curve" smooth="yes"/>
      <point x="266" y="812" type="line" smooth="yes"/>
      <point x="218" y="812"/>
      <point x="199" y="815"/>
      <point x="185" y="826" type="curve" smooth="yes"/>
      <point x="172" y="836"/>
      <point x="167" y="851"/>
      <point x="167" y="877" type="curve" smooth="yes"/>
      <point x="167" y="883"/>
      <point x="168" y="893"/>
      <point x="170" y="905" type="curve"/>
      <point x="5" y="915" type="line"/>
      <point x="1" y="891"/>
      <point x="-1" y="872"/>
      <point x="-1" y="853" type="curve" smooth="yes"/>
      <point x="-1" y="799"/>
      <point x="11" y="760"/>
      <point x="35" y="733" type="curve" smooth="yes"/>
      <point x="74" y="689"/>
      <point x="136" y="675"/>
      <point x="251" y="675" type="curve" smooth="yes"/>
      <point x="310" y="675" type="line" smooth="yes"/>
      <point x="354" y="675"/>
      <point x="365" y="659"/>
    </contour>
  </outline>
</glyph>
<glyph name="tthabeng" format="2">
  <advance width="660"/>
  <unicode hex="09A0"/>
  <outline>
    <contour>
      <point x="335" y="0" type="curve" smooth="yes"/>
      <point x="519" y="0"/>
      <point x="620" y="86"/>
      <point x="620" y="237" type="curve" smooth="yes"/>
      <point x="620" y="323"/>
      <point x="591" y="399"/>
      <point x="512" y="486" type="curve"/>
      <point x="532" y="485"/>
      <point x="547" y="484"/>
      <point x="576" y="484" type="curve" smooth="yes"/>
      <point x="670" y="484" type="line"/>
      <point x="670" y="622" type="line"/>
      <point x="370" y="622" type="line"/>
      <point x="317" y="665"/>
      <point x="288" y="694"/>
      <point x="288" y="727" type="curve" smooth="yes"/>
      <point x="288" y="751"/>
      <point x="295" y="768"/>
      <point x="331" y="801" type="curve"/>
      <point x="209" y="917" type="line"/>
      <point x="152" y="875"/>
      <point x="116" y="832"/>
      <point x="116" y="771" type="curve" smooth="yes"/>
      <point x="116" y="726"/>
      <point x="136" y="682"/>
      <point x="193" y="622" type="curve"/>
      <point x="-10" y="622" type="line"/>
      <point x="-10" y="484" type="line"/>
      <point x="240" y="484" type="line"/>
      <point x="245" y="465"/>
      <point x="246" y="447"/>
      <point x="246" y="437" type="curve" smooth="yes"/>
      <point x="246" y="360"/>
      <point x="201" y="299"/>
      <point x="60" y="286" type="curve"/>
      <point x="16" y="142" type="line"/>
      <point x="83" y="67"/>
      <point x="194" y="0"/>
    </contour>
    <contour>
      <point x="325" y="142" type="curve" smooth="yes"/>
      <point x="241" y="142"/>
      <point x="196" y="187"/>
      <point x="161" y="232" type="curve"/>
      <point x="139" y="154" type="line"/>
      <point x="331" y="197"/>
      <point x="391" y="275"/>
      <point x="391" y="399" type="curve" smooth="yes"/>
      <point x="391" y="439"/>
      <point x="369" y="498"/>
      <point x="348" y="530" type="curve"/>
      <point x="316" y="523" type="line"/>
      <point x="401" y="429"/>
      <point x="441" y="354"/>
      <point x="441" y="264" type="curve" smooth="yes"/>
      <point x="441" y="169"/>
      <point x="379" y="142"/>
    </contour>
  </outline>
</glyph>
<glyph name="ddhabeng" format="2">
  <advance width="612"/>
  <unicode hex="09A2"/>
  <outline>
    <contour>
      <point x="622" y="622" type="line"/>
      <point x="-10" y="622" type="line"/>
      <point x="-10" y="484" type="line"/>
      <point x="72" y="484" type="line"/>
      <point x="72" y="230" type="line" smooth="yes"/>
      <point x="72" y="134"/>
      <point x="96" y="93"/>
      <point x="133" y="61" type="curve" smooth="yes"/>
      <point x="167" y="31"/>
      <point x="219" y="18"/>
      <point x="281" y="18" type="curve" smooth="yes"/>
      <point x="369" y="18"/>
      <point x="444" y="51"/>
      <point x="500" y="102" type="curve" smooth="yes"/>
      <point x="551" y="149"/>
      <point x="584" y="210"/>
      <point x="584" y="282" type="curve" smooth="yes"/>
      <point x="584" y="347"/>
      <point x="552" y="422"/>
      <point x="420" y="422" type="curve" smooth="yes"/>
      <point x="380" y="422"/>
      <point x="348" y="416"/>
      <point x="318" y="409" type="curve"/>
      <point x="340" y="270" type="line"/>
      <point x="352" y="272"/>
      <point x="365" y="274"/>
      <point x="379" y="274" type="curve" smooth="yes"/>
      <point x="402" y="274"/>
      <point x="414" y="265"/>
      <point x="414" y="247" type="curve" smooth="yes"/>
      <point x="414" y="226"/>
      <point x="393" y="201"/>
      <point x="372" y="186" type="curve" smooth="yes"/>
      <point x="348" y="169"/>
      <point x="323" y="156"/>
      <point x="291" y="156" type="curve" smooth="yes"/>
      <point x="279" y="156"/>
      <point x="268" y="159"/>
      <point x="261" y="166" type="curve" smooth="yes"/>
      <point x="252" y="174"/>
      <point x="247" y="185"/>
      <point x="247" y="214" type="curve" smooth="yes"/>
      <point x="247" y="484" type="line"/>
      <point x="622" y="484" type="line"/>
    </contour>
  </outline>
</glyph>
<glyph name="nnabeng" format="2">
  <advance width="683"/>
  <unicode hex="09A3"/>
  <outline>
    <contour>
      <point x="693" y="622" type="line"/>
      <point x="607" y="622" type="line"/>
      <point x="583" y="692" type="line"/>
      <point x="433" y="692" type="line"/>
      <point x="433" y="618" type="line" smooth="yes"/>
      <point x="433" y="591"/>
      <point x="434" y="555"/>
      <point x="437" y="520" type="curve"/>
      <point x="465" y="504" type="line"/>
      <point x="412" y="557"/>
      <point x="340" y="629"/>
      <point x="230" y="629" type="curve" smooth="yes"/>
      <point x="113" y="629"/>
      <point x="33" y="548"/>
      <point x="33" y="448" type="curve" smooth="yes"/>
      <point x="33" y="322"/>
      <point x="108" y="246"/>
      <point x="297" y="224" type="curve"/>
      <point x="318" y="384" type="line"/>
      <point x="226" y="387"/>
      <point x="211" y="416"/>
      <point x="211" y="444" type="curve" smooth="yes"/>
      <point x="211" y="469"/>
      <point x="230" y="485"/>
      <point x="261" y="485" type="curve" smooth="yes"/>
      <point x="324" y="485"/>
      <point x="378" y="432"/>
      <point x="440" y="357" type="curve"/>
      <point x="433" y="403" type="line"/>
      <point x="433" y="0" type="line"/>
      <point x="608" y="0" type="line"/>
      <point x="608" y="484" type="line"/>
      <point x="693" y="484" type="line"/>
    </contour>
  </outline>
</glyph>
<glyph name="tabeng" format="2">
  <advance width="765"/>
  <unicode hex="09A4"/>
  <outline>
    <contour>
      <point x="456" y="26" type="curve" smooth="yes"/>
      <point x="648" y="26"/>
      <point x="741" y="114"/>
      <point x="741" y="243" type="curve" smooth="yes"/>
      <point x="741" y="366"/>
      <point x="655" y="459"/>
      <point x="490" y="459" type="curve" smooth="yes"/>
      <point x="391" y="459"/>
      <point x="296" y="420"/>
      <point x="296" y="314" type="curve" smooth="yes"/>
      <point x="296" y="294"/>
      <point x="300" y="263"/>
      <point x="314" y="233" type="curve"/>
      <point x="479" y="252" type="line"/>
      <point x="475" y="263"/>
      <point x="473" y="274"/>
      <point x="473" y="288" type="curve" smooth="yes"/>
      <point x="473" y="310"/>
      <point x="487" y="325"/>
      <point x="509" y="325" type="curve" smooth="yes"/>
      <point x="544" y="325"/>
      <point x="566" y="299"/>
      <point x="566" y="257" type="curve" smooth="yes"/>
      <point x="566" y="193"/>
      <point x="508" y="171"/>
      <point x="432" y="171" type="curve" smooth="yes"/>
      <point x="307" y="171"/>
      <point x="226" y="252"/>
      <point x="174" y="450" type="curve"/>
      <point x="13" y="407" type="line"/>
      <point x="98" y="115"/>
      <point x="261" y="26"/>
    </contour>
    <contour>
      <point x="775" y="622" type="line"/>
      <point x="-10" y="622" type="line"/>
      <point x="-10" y="484" type="line"/>
      <point x="775" y="484" type="line"/>
    </contour>
  </outline>
</glyph>
<glyph name="thabeng" format="2">
  <advance width="779"/>
  <unicode hex="09A5"/>
  <outline>
    <contour>
      <point x="789" y="622" type="line"/>
      <point x="703" y="622" type="line"/>
      <point x="679" y="692" type="line"/>
      <point x="529" y="692" type="line"/>
      <point x="529" y="273" type="line" smooth="yes"/>
      <point x="529" y="238"/>
      <point x="529" y="207"/>
      <point x="531" y="177" type="curve"/>
      <point x="464" y="230"/>
      <point x="399" y="267"/>
      <point x="259" y="287" type="curve"/>
      <point x="140" y="329" type="line"/>
      <point x="181" y="184" type="line"/>
      <point x="343" y="150"/>
      <point x="429" y="107"/>
      <point x="529" y="0" type="curve"/>
      <point x="704" y="0" type="line"/>
      <point x="704" y="484" type="line"/>
      <point x="789" y="484" type="line"/>
    </contour>
    <contour>
      <point x="249" y="626" type="curve" smooth="yes"/>
      <point x="116" y="626"/>
      <point x="37" y="565"/>
      <point x="37" y="477" type="curve" smooth="yes"/>
      <point x="37" y="417"/>
      <point x="71" y="377"/>
      <point x="109" y="343" type="curve"/>
      <point x="235" y="426" type="line"/>
      <point x="218" y="440"/>
      <point x="213" y="452"/>
      <point x="213" y="463" type="curve" smooth="yes"/>
      <point x="213" y="481"/>
      <point x="228" y="498"/>
      <point x="256" y="498" type="curve" smooth="yes"/>
      <point x="298" y="498"/>
      <point x="318" y="471"/>
      <point x="318" y="444" type="curve" smooth="yes"/>
      <point x="318" y="381"/>
      <point x="246" y="351"/>
      <point x="140" y="329" type="curve"/>
      <point x="179" y="266" type="line"/>
      <point x="251" y="242" type="line"/>
      <point x="399" y="264"/>
      <point x="488" y="325"/>
      <point x="488" y="446" type="curve" smooth="yes"/>
      <point x="488" y="531"/>
      <point x="421" y="626"/>
    </contour>
  </outline>
</glyph>
<glyph name="nabeng" format="2">
  <advance width="659"/>
  <unicode hex="09A8"/>
  <outline>
    <contour>
      <point x="669" y="622" type="line"/>
      <point x="-10" y="622" type="line"/>
      <point x="-10" y="484" type="line"/>
      <point x="409" y="484" type="line"/>
      <point x="409" y="398" type="line" smooth="yes"/>
      <point x="409" y="371"/>
      <point x="410" y="330"/>
      <point x="412" y="300" type="curve"/>
      <point x="431" y="312" type="line"/>
      <point x="357" y="377"/>
      <point x="282" y="411"/>
      <point x="201" y="411" type="curve" smooth="yes"/>
      <point x="111" y="411"/>
      <point x="24" y="363"/>
      <point x="24" y="249" type="curve" smooth="yes"/>
      <point x="24" y="168"/>
      <point x="88" y="97"/>
      <point x="187" y="60" type="curve"/>
      <point x="260" y="197" type="line"/>
      <point x="222" y="211"/>
      <point x="203" y="222"/>
      <point x="203" y="242" type="curve" smooth="yes"/>
      <point x="203" y="258"/>
      <point x="216" y="266"/>
      <point x="235" y="266" type="curve" smooth="yes"/>
      <point x="296" y="266"/>
      <point x="368" y="219"/>
      <point x="431" y="140" type="curve"/>
      <point x="409" y="185" type="line"/>
      <point x="409" y="0" type="line"/>
      <point x="584" y="0" type="line"/>
      <point x="584" y="484" type="line"/>
      <point x="669" y="484" type="line"/>
    </contour>
  </outline>
</glyph>
<glyph name="pabeng" format="2">
  <advance width="796"/>
  <unicode hex="09AA"/>
  <outline>
    <contour>
      <point x="806" y="622" type="line"/>
      <point x="720" y="622" type="line"/>
      <point x="696" y="692" type="line"/>
      <point x="546" y="692" type="line"/>
      <point x="546" y="565" type="line" smooth="yes"/>
      <point x="546" y="538"/>
      <point x="548" y="500"/>
      <point x="550" y="477" type="curve"/>
      <point x="565" y="492" type="line"/>
      <point x="482" y="583"/>
      <point x="408" y="629"/>
      <point x="313" y="629" type="curve" smooth="yes"/>
      <point x="197" y="629"/>
      <point x="118" y="563"/>
      <point x="12" y="445" type="curve"/>
      <point x="122" y="342" type="line"/>
      <point x="144" y="355"/>
      <point x="163" y="363"/>
      <point x="183" y="363" type="curve" smooth="yes"/>
      <point x="207" y="363"/>
      <point x="218" y="353"/>
      <point x="218" y="333" type="curve" smooth="yes"/>
      <point x="218" y="314"/>
      <point x="207" y="298"/>
      <point x="177" y="276" type="curve"/>
      <point x="208" y="283" type="line"/>
      <point x="230" y="317" type="line"/>
      <point x="155" y="260" type="line"/>
      <point x="265" y="154" type="line"/>
      <point x="570" y="419" type="line"/>
      <point x="473" y="517" type="line"/>
      <point x="356" y="422" type="line" smooth="yes"/>
      <point x="327" y="398"/>
      <point x="283" y="358"/>
      <point x="267" y="336" type="curve"/>
      <point x="320" y="317" type="line"/>
      <point x="326" y="335"/>
      <point x="328" y="355"/>
      <point x="328" y="373" type="curve" smooth="yes"/>
      <point x="328" y="420"/>
      <point x="293" y="463"/>
      <point x="222" y="463" type="curve" smooth="yes"/>
      <point x="194" y="463"/>
      <point x="157" y="452"/>
      <point x="128" y="427" type="curve"/>
      <point x="170" y="418" type="line"/>
      <point x="232" y="474"/>
      <point x="259" y="495"/>
      <point x="321" y="495" type="curve" smooth="yes"/>
      <point x="407" y="495"/>
      <point x="471" y="435"/>
      <point x="564" y="314" type="curve"/>
      <point x="546" y="389" type="line"/>
      <point x="546" y="0" type="line"/>
      <point x="721" y="0" type="line"/>
      <point x="721" y="484" type="line"/>
      <point x="806" y="484" type="line"/>
    </contour>
  </outline>
</glyph>
<glyph name="phabeng" format="2">
  <advance width="907"/>
  <unicode hex="09AB"/>
  <outline>
    <contour>
      <point x="917" y="622" type="line"/>
      <point x="-10" y="622" type="line"/>
      <point x="-10" y="484" type="line"/>
      <point x="111" y="484" type="line"/>
      <point x="63" y="518" type="line"/>
      <point x="18" y="414" type="line"/>
      <point x="84" y="401"/>
      <point x="137" y="388"/>
      <point x="189" y="364" type="curve"/>
      <point x="122" y="337"/>
      <point x="76" y="315"/>
      <point x="26" y="288" type="curve"/>
      <point x="86" y="142" type="line"/>
      <point x="229" y="123"/>
      <point x="329" y="75"/>
      <point x="415" y="0" type="curve"/>
      <point x="590" y="0" type="line"/>
      <point x="590" y="325" type="line"/>
      <point x="669" y="316"/>
      <point x="708" y="297"/>
      <point x="708" y="268" type="curve" smooth="yes"/>
      <point x="708" y="252"/>
      <point x="697" y="241"/>
      <point x="674" y="241" type="curve" smooth="yes"/>
      <point x="661" y="241"/>
      <point x="649" y="242"/>
      <point x="640" y="244" type="curve"/>
      <point x="634" y="106" type="line"/>
      <point x="659" y="101"/>
      <point x="688" y="99"/>
      <point x="719" y="99" type="curve" smooth="yes"/>
      <point x="848" y="99"/>
      <point x="881" y="163"/>
      <point x="881" y="241" type="curve" smooth="yes"/>
      <point x="881" y="296"/>
      <point x="858" y="338"/>
      <point x="820" y="373" type="curve" smooth="yes"/>
      <point x="748" y="439"/>
      <point x="643" y="463"/>
      <point x="485" y="463" type="curve" smooth="yes"/>
      <point x="415" y="463" type="line"/>
      <point x="415" y="217" type="line" smooth="yes"/>
      <point x="415" y="194"/>
      <point x="415" y="174"/>
      <point x="417" y="152" type="curve"/>
      <point x="364" y="197"/>
      <point x="279" y="234"/>
      <point x="210" y="247" type="curve"/>
      <point x="216" y="236" type="line"/>
      <point x="264" y="259"/>
      <point x="326" y="284"/>
      <point x="371" y="298" type="curve"/>
      <point x="362" y="412" type="line"/>
      <point x="321" y="444"/>
      <point x="270" y="468"/>
      <point x="220" y="488" type="curve"/>
      <point x="181" y="484" type="line"/>
      <point x="917" y="484" type="line"/>
    </contour>
  </outline>
</glyph>
<glyph name="babeng" format="2">
  <advance width="636"/>
  <unicode hex="09AC"/>
  <outline>
    <contour>
      <point x="646" y="622" type="line"/>
      <point x="-10" y="622" type="line"/>
      <point x="-10" y="484" type="line"/>
      <point x="393" y="484" type="line"/>
      <point x="393" y="442" type="line"/>
      <point x="408" y="468" type="line"/>
      <point x="274" y="437"/>
      <point x="144" y="393"/>
      <point x="14" y="327" type="curve"/>
      <point x="77" y="170" type="line"/>
      <point x="219" y="143"/>
      <point x="303" y="95"/>
      <point x="386" y="0" type="curve"/>
      <point x="561" y="0" type="line"/>
      <point x="561" y="484" type="line"/>
      <point x="646" y="484" type="line"/>
    </contour>
    <contour>
      <point x="386" y="336" type="line"/>
      <point x="386" y="233" type="line" smooth="yes"/>
      <point x="386" y="203"/>
      <point x="389" y="167"/>
      <point x="392" y="141" type="curve"/>
      <point x="419" y="139" type="line"/>
      <point x="372" y="199"/>
      <point x="282" y="247"/>
      <point x="214" y="260" type="curve"/>
      <point x="276" y="290"/>
      <point x="334" y="311"/>
      <point x="404" y="328" type="curve"/>
    </contour>
  </outline>
</glyph>
<glyph name="bhabeng" format="2">
  <advance width="782"/>
  <unicode hex="09AD"/>
  <outline>
    <contour>
      <point x="463" y="23" type="curve" smooth="yes"/>
      <point x="656" y="23"/>
      <point x="754" y="111"/>
      <point x="754" y="242" type="curve" smooth="yes"/>
      <point x="754" y="309"/>
      <point x="731" y="374"/>
      <point x="677" y="442" type="curve"/>
      <point x="535" y="354" type="line"/>
      <point x="561" y="335"/>
      <point x="582" y="298"/>
      <point x="582" y="262" type="curve" smooth="yes"/>
      <point x="582" y="194"/>
      <point x="521" y="168"/>
      <point x="451" y="168" type="curve" smooth="yes"/>
      <point x="320" y="168"/>
      <point x="231" y="233"/>
      <point x="174" y="450" type="curve"/>
      <point x="13" y="407" type="line"/>
      <point x="99" y="107"/>
      <point x="274" y="23"/>
    </contour>
    <contour>
      <point x="435" y="231" type="curve" smooth="yes"/>
      <point x="555" y="231"/>
      <point x="616" y="294"/>
      <point x="693" y="381" type="curve"/>
      <point x="677" y="442" type="line"/>
      <point x="539" y="419" type="line"/>
      <point x="516" y="381"/>
      <point x="492" y="366"/>
      <point x="468" y="366" type="curve" smooth="yes"/>
      <point x="447" y="366"/>
      <point x="441" y="377"/>
      <point x="441" y="393" type="curve" smooth="yes"/>
      <point x="441" y="402"/>
      <point x="443" y="410"/>
      <point x="448" y="421" type="curve"/>
      <point x="293" y="449" type="line"/>
      <point x="281" y="422"/>
      <point x="273" y="393"/>
      <point x="273" y="365" type="curve" smooth="yes"/>
      <point x="273" y="283"/>
      <point x="331" y="231"/>
    </contour>
    <contour>
      <point x="792" y="622" type="line"/>
      <point x="-10" y="622" type="line"/>
      <point x="-10" y="484" type="line"/>
      <point x="792" y="484" type="line"/>
    </contour>
  </outline>
</glyph>
<glyph name="mabeng" format="2">
  <advance width="675"/>
  <unicode hex="09AE"/>
  <outline>
    <contour>
      <point x="685" y="622" type="line"/>
      <point x="-10" y="622" type="line"/>
      <point x="-10" y="484" type="line"/>
      <point x="425" y="484" type="line"/>
      <point x="425" y="332" type="line" smooth="yes"/>
      <point x="425" y="306"/>
      <point x="427" y="265"/>
      <point x="428" y="235" type="curve"/>
      <point x="443" y="242" type="line"/>
      <point x="374" y="317"/>
      <point x="303" y="343"/>
      <point x="218" y="343" type="curve" smooth="yes"/>
      <point x="127" y="343"/>
      <point x="35" y="306"/>
      <point x="35" y="191" type="curve" smooth="yes"/>
      <point x="35" y="91"/>
      <point x="106" y="33"/>
      <point x="223" y="1" type="curve"/>
      <point x="271" y="136" type="line"/>
      <point x="234" y="149"/>
      <point x="214" y="162"/>
      <point x="214" y="181" type="curve" smooth="yes"/>
      <point x="214" y="197"/>
      <point x="227" y="205"/>
      <point x="246" y="205" type="curve" smooth="yes"/>
      <point x="308" y="205"/>
      <point x="382" y="152"/>
      <point x="444" y="69" type="curve"/>
      <point x="425" y="120" type="line"/>
      <point x="425" y="0" type="line"/>
      <point x="600" y="0" type="line"/>
      <point x="600" y="484" type="line"/>
      <point x="685" y="484" type="line"/>
    </contour>
    <contour>
      <point x="349" y="307" type="curve" smooth="yes"/>
      <point x="349" y="444"/>
      <point x="276" y="486"/>
      <point x="131" y="513" type="curve"/>
      <point x="52" y="527" type="line"/>
      <point x="24" y="411" type="line"/>
      <point x="148" y="401"/>
      <point x="171" y="368"/>
      <point x="174" y="296" type="curve"/>
      <point x="343" y="256" type="line"/>
      <point x="347" y="272"/>
      <point x="349" y="291"/>
    </contour>
  </outline>
</glyph>
<glyph name="yabeng" format="2">
  <advance width="672"/>
  <unicode hex="09AF"/>
  <outline>
    <contour>
      <point x="682" y="622" type="line"/>
      <point x="-10" y="622" type="line"/>
      <point x="-10" y="484" type="line"/>
      <point x="111" y="484" type="line"/>
      <point x="63" y="518" type="line"/>
      <point x="18" y="414" type="line"/>
      <point x="84" y="401"/>
      <point x="137" y="388"/>
      <point x="189" y="364" type="curve"/>
      <point x="122" y="337"/>
      <point x="76" y="315"/>
      <point x="26" y="288" type="curve"/>
      <point x="86" y="142" type="line"/>
      <point x="229" y="123"/>
      <point x="326" y="79"/>
      <point x="422" y="0" type="curve"/>
      <point x="597" y="0" type="line"/>
      <point x="597" y="484" type="line"/>
      <point x="682" y="484" type="line"/>
    </contour>
    <contour>
      <point x="422" y="484" type="line"/>
      <point x="422" y="228" type="line" smooth="yes"/>
      <point x="422" y="182"/>
      <point x="423" y="159"/>
      <point x="427" y="128" type="curve"/>
      <point x="441" y="138" type="line"/>
      <point x="373" y="195"/>
      <point x="286" y="234"/>
      <point x="210" y="247" type="curve"/>
      <point x="215" y="235" type="line"/>
      <point x="263" y="258"/>
      <point x="326" y="284"/>
      <point x="371" y="298" type="curve"/>
      <point x="362" y="412" type="line"/>
      <point x="321" y="444"/>
      <point x="270" y="468"/>
      <point x="220" y="488" type="curve"/>
      <point x="181" y="484" type="line"/>
    </contour>
  </outline>
</glyph>
<glyph name="labeng" format="2">
  <advance width="800"/>
  <unicode hex="09B2"/>
  <outline>
    <contour>
      <point x="810" y="622" type="line"/>
      <point x="-10" y="622" type="line"/>
      <point x="-10" y="484" type="line"/>
      <point x="550" y="484" type="line"/>
      <point x="550" y="461" type="line" smooth="yes"/>
      <point x="550" y="433"/>
      <point x="552" y="397"/>
      <point x="558" y="367" type="curve"/>
      <point x="592" y="382" type="line"/>
      <point x="565" y="411"/>
      <point x="528" y="432"/>
      <point x="481" y="432" type="curve" smooth="yes"/>
      <point x="432" y="432"/>
      <point x="390" y="402"/>
      <point x="374" y="350" type="curve"/>
      <point x="407" y="348" type="line"/>
      <point x="349" y="404"/>
      <point x="298" y="435"/>
      <point x="207" y="435" type="curve" smooth="yes"/>
      <point x="101" y="435"/>
      <point x="24" y="372"/>
      <point x="24" y="269" type="curve" smooth="yes"/>
      <point x="24" y="159"/>
      <point x="109" y="92"/>
      <point x="234" y="56" type="curve"/>
      <point x="282" y="195" type="line"/>
      <point x="236" y="207"/>
      <point x="202" y="223"/>
      <point x="202" y="257" type="curve" smooth="yes"/>
      <point x="202" y="277"/>
      <point x="216" y="291"/>
      <point x="242" y="291" type="curve" smooth="yes"/>
      <point x="293" y="291"/>
      <point x="320" y="252"/>
      <point x="331" y="200" type="curve"/>
      <point x="481" y="208" type="line"/>
      <point x="478" y="217"/>
      <point x="477" y="229"/>
      <point x="477" y="242" type="curve" smooth="yes"/>
      <point x="477" y="279"/>
      <point x="497" y="289"/>
      <point x="515" y="289" type="curve" smooth="yes"/>
      <point x="545" y="289"/>
      <point x="562" y="270"/>
      <point x="578" y="248" type="curve"/>
      <point x="550" y="299" type="line"/>
      <point x="550" y="0" type="line"/>
      <point x="725" y="0" type="line"/>
      <point x="725" y="484" type="line"/>
      <point x="810" y="484" type="line"/>
    </contour>
  </outline>
</glyph>
<glyph name="shabeng" format="2">
  <advance width="748"/>
  <unicode hex="09B6"/>
  <outline>
    <contour>
      <point x="758" y="622" type="line"/>
      <point x="672" y="622" type="line"/>
      <point x="648" y="692" type="line"/>
      <point x="498" y="692" type="line"/>
      <point x="498" y="610" type="line" smooth="yes"/>
      <point x="498" y="586"/>
      <point x="499" y="563"/>
      <point x="501" y="535" type="curve"/>
      <point x="498" y="503" type="line"/>
      <point x="498" y="0" type="line"/>
      <point x="673" y="0" type="line"/>
      <point x="673" y="484" type="line"/>
      <point x="758" y="484" type="line"/>
    </contour>
    <contour>
      <point x="355" y="629" type="curve" smooth="yes"/>
      <point x="271" y="629"/>
      <point x="198" y="571"/>
      <point x="198" y="446" type="curve" smooth="yes"/>
      <point x="198" y="332"/>
      <point x="256" y="247"/>
      <point x="409" y="239" type="curve"/>
      <point x="423" y="387" type="line"/>
      <point x="365" y="389"/>
      <point x="320" y="401"/>
      <point x="320" y="445" type="curve" smooth="yes"/>
      <point x="320" y="473"/>
      <point x="340" y="491"/>
      <point x="371" y="491" type="curve" smooth="yes"/>
      <point x="429" y="491"/>
      <point x="480" y="426"/>
      <point x="526" y="346" type="curve"/>
      <point x="538" y="505" type="line"/>
      <point x="485" y="589"/>
      <point x="432" y="629"/>
    </contour>
    <contour>
      <point x="80" y="629" type="curve" smooth="yes"/>
      <point x="51" y="629"/>
      <point x="23" y="626"/>
      <point x="-12" y="619" type="curve"/>
      <point x="3" y="480" type="line"/>
      <point x="28" y="487"/>
      <point x="57" y="491"/>
      <point x="77" y="491" type="curve" smooth="yes"/>
      <point x="111" y="491"/>
      <point x="138" y="480"/>
      <point x="138" y="444" type="curve" smooth="yes"/>
      <point x="138" y="409"/>
      <point x="111" y="394"/>
      <point x="41" y="387" type="curve"/>
      <point x="50" y="239" type="line"/>
      <point x="204" y="239"/>
      <point x="263" y="334"/>
      <point x="263" y="431" type="curve" smooth="yes"/>
      <point x="263" y="571"/>
      <point x="180" y="629"/>
    </contour>
  </outline>
</glyph>
<glyph name="ssabeng" format="2">
  <advance width="681"/>
  <unicode hex="09B7"/>
  <outline>
    <contour>
      <point x="691" y="622" type="line"/>
      <point x="-10" y="622" type="line"/>
      <point x="-10" y="484" type="line"/>
      <point x="431" y="484" type="line"/>
      <point x="431" y="436" type="line" smooth="yes"/>
      <point x="431" y="415"/>
      <point x="432" y="386"/>
      <point x="435" y="364" type="curve"/>
      <point x="431" y="297" type="line"/>
      <point x="431" y="216" type="line" smooth="yes"/>
      <point x="431" y="197"/>
      <point x="432" y="168"/>
      <point x="433" y="151" type="curve"/>
      <point x="371" y="199"/>
      <point x="286" y="236"/>
      <point x="216" y="246" type="curve"/>
      <point x="263" y="269"/>
      <point x="318" y="290"/>
      <point x="367" y="307" type="curve"/>
      <point x="281" y="390" type="line"/>
      <point x="207" y="370" type="line"/>
      <point x="149" y="348"/>
      <point x="73" y="315"/>
      <point x="26" y="288" type="curve"/>
      <point x="86" y="142" type="line"/>
      <point x="233" y="125"/>
      <point x="335" y="79"/>
      <point x="431" y="0" type="curve"/>
      <point x="606" y="0" type="line"/>
      <point x="606" y="484" type="line"/>
      <point x="691" y="484" type="line"/>
    </contour>
    <contour>
      <point x="63" y="518" type="line"/>
      <point x="18" y="414" type="line"/>
      <point x="177" y="381"/>
      <point x="369" y="304"/>
      <point x="478" y="199" type="curve"/>
      <point x="543" y="298" type="line"/>
      <point x="434" y="395"/>
      <point x="292" y="466"/>
      <point x="184" y="499" type="curve"/>
    </contour>
  </outline>
</glyph>
<glyph name="sabeng" format="2">
  <advance width="723"/>
  <unicode hex="09B8"/>
  <outline>
    <contour>
      <point x="733" y="622" type="line"/>
      <point x="-10" y="622" type="line"/>
      <point x="-10" y="484" type="line"/>
      <point x="473" y="484" type="line"/>
      <point x="473" y="447" type="line" smooth="yes"/>
      <point x="473" y="426"/>
      <point x="474" y="406"/>
      <point x="476" y="384" type="curve"/>
      <point x="489" y="390" type="line"/>
      <point x="462" y="413"/>
      <point x="441" y="422"/>
      <point x="408" y="422" type="curve" smooth="yes"/>
      <point x="358" y="422"/>
      <point x="324" y="389"/>
      <point x="290" y="331" type="curve"/>
      <point x="269" y="318" type="line"/>
      <point x="225" y="240"/>
      <point x="213" y="227"/>
      <point x="192" y="227" type="curve" smooth="yes"/>
      <point x="170" y="227"/>
      <point x="155" y="243"/>
      <point x="134" y="277" type="curve"/>
      <point x="21" y="208" type="line"/>
      <point x="66" y="127"/>
      <point x="118" y="85"/>
      <point x="196" y="85" type="curve" smooth="yes"/>
      <point x="272" y="85"/>
      <point x="317" y="113"/>
      <point x="373" y="202" type="curve" smooth="yes"/>
      <point x="422" y="279"/>
      <point x="430" y="284"/>
      <point x="453" y="284" type="curve" smooth="yes"/>
      <point x="467" y="284"/>
      <point x="481" y="270"/>
      <point x="499" y="249" type="curve"/>
      <point x="473" y="290" type="line"/>
      <point x="473" y="0" type="line"/>
      <point x="648" y="0" type="line"/>
      <point x="648" y="484" type="line"/>
      <point x="733" y="484" type="line"/>
    </contour>
    <contour>
      <point x="226" y="227" type="curve"/>
      <point x="338" y="308" type="line"/>
      <point x="332" y="424"/>
      <point x="305" y="476"/>
      <point x="158" y="502" type="curve"/>
      <point x="64" y="546" type="line"/>
      <point x="23" y="411" type="line"/>
      <point x="99" y="404"/>
      <point x="140" y="395"/>
      <point x="172" y="373" type="curve" smooth="yes"/>
      <point x="208" y="348"/>
      <point x="219" y="305"/>
    </contour>
  </outline>
</glyph>
<glyph name="nuktabeng" format="2">
  <unicode hex="09BC"/>
  <outline>
    <contour>
      <point x="-321" y="-214" type="curve" smooth="yes"/>
      <point x="-270" y="-214"/>
      <point x="-237" y="-183"/>
      <point x="-237" y="-136" type="curve" smooth="yes"/>
      <point x="-237" y="-90"/>
      <point x="-270" y="-58"/>
      <point x="-321" y="-58" type="curve" smooth="yes"/>
      <point x="-373" y="-58"/>
      <point x="-406" y="-90"/>
      <point x="-406" y="-136" type="curve" smooth="yes"/>
      <point x="-406" y="-183"/>
      <point x="-373" y="-214"/>
    </contour>
  </outline>
</glyph>
<glyph name="aavowelsignbeng" format="2">
  <advance width="325"/>
  <unicode hex="09BE"/>
  <outline>
    <contour>
      <point x="335" y="622" type="line"/>
      <point x="249" y="622" type="line"/>
      <point x="225" y="692" type="line"/>
      <point x="75" y="692" type="line"/>
      <point x="75" y="631" type="line" smooth="yes"/>
      <point x="75" y="612"/>
      <point x="76" y="584"/>
      <point x="79" y="566" type="curve"/>
      <point x="64" y="606"/>
      <point x="35" y="622"/>
      <point x="10" y="622" type="curve" smooth="yes"/>
      <point x="-10" y="622" type="line"/>
      <point x="-10" y="484" type="line"/>
      <point x="-3" y="484" type="line" smooth="yes"/>
      <point x="36" y="484"/>
      <point x="59" y="465"/>
      <point x="75" y="427" type="curve"/>
      <point x="75" y="0" type="line"/>
      <point x="250" y="0" type="line"/>
      <point x="250" y="484" type="line"/>
      <point x="335" y="484" type="line"/>
    </contour>
  </outline>
</glyph>
<glyph name="ivowelsignbeng" format="2">
  <advance width="325"/>
  <unicode hex="09BF"/>
  <outline>
    <contour>
      <point x="335" y="622" type="line"/>
      <point x="243" y="622" type="line"/>
      <point x="231" y="636"/>
      <point x="214" y="662"/>
      <point x="201" y="684" type="curve"/>
      <point x="242" y="732"/>
      <point x="284" y="779"/>
      <point x="372" y="779" type="curve" smooth="yes"/>
      <point x="457" y="779"/>
      <point x="531" y="745"/>
      <point x="700" y="644" type="curve"/>
      <point x="778" y="761" type="line"/>
      <point x="578" y="881"/>
      <point x="476" y="917"/>
      <point x="351" y="917" type="curve" smooth="yes"/>
      <point x="221" y="917"/>
      <point x="130" y="875"/>
      <point x="10" y="706" type="curve"/>
      <point x="31" y="678"/>
      <point x="55" y="648"/>
      <point x="80" y="622" type="curve"/>
      <point x="-10" y="622" type="line"/>
      <point x="-10" y="484" type="line"/>
      <point x="75" y="484" type="line"/>
      <point x="75" y="0" type="line"/>
      <point x="250" y="0" type="line"/>
      <point x="250" y="484" type="line"/>
      <point x="335" y="484" type="line"/>
    </contour>
  </outline>
</glyph>
<glyph name="iivowelsignbeng" format="2">
  <advance width="325"/>
  <unicode hex="09C0"/>
  <outline>
    <contour>
      <point x="335" y="484" type="line"/>
      <point x="335" y="622" type="line"/>
      <point x="247" y="622" type="line"/>
      <point x="218" y="823"/>
      <point x="50" y="917"/>
      <point x="-246" y="917" type="curve" smooth="yes"/>
      <point x="-463" y="917"/>
      <point x="-552" y="857"/>
      <point x="-552" y="769" type="curve" smooth="yes"/>
      <point x="-552" y="731"/>
      <point x="-537" y="706"/>
      <point x="-514" y="689" type="curve" smooth="yes"/>
      <point x="-479" y="663"/>
      <point x="-433" y="657"/>
      <point x="-362" y="657" type="curve" smooth="yes"/>
      <point x="-304" y="657" type="line" smooth="yes"/>
      <point x="-276" y="657"/>
      <point x="-266" y="654"/>
      <point x="-257" y="645" type="curve" smooth="yes"/>
      <point x="-250" y="638"/>
      <point x="-246" y="626"/>
      <point x="-246" y="615" type="curve"/>
      <point x="-76" y="615" type="line"/>
      <point x="-76" y="665"/>
      <point x="-91" y="698"/>
      <point x="-118" y="721" type="curve" smooth="yes"/>
      <point x="-150" y="748"/>
      <point x="-190" y="759"/>
      <point x="-273" y="759" type="curve" smooth="yes"/>
      <point x="-363" y="759" type="line" smooth="yes"/>
      <point x="-383" y="759"/>
      <point x="-395" y="760"/>
      <point x="-395" y="771" type="curve" smooth="yes"/>
      <point x="-395" y="781"/>
      <point x="-374" y="798"/>
      <point x="-267" y="798" type="curve" smooth="yes"/>
      <point x="-44" y="798"/>
      <point x="34" y="734"/>
      <point x="71" y="622" type="curve"/>
      <point x="-10" y="622" type="line"/>
      <point x="-10" y="484" type="line"/>
      <point x="75" y="484" type="line"/>
      <point x="75" y="0" type="line"/>
      <point x="250" y="0" type="line"/>
      <point x="250" y="484" type="line"/>
    </contour>
  </outline>
</glyph>
<glyph name="rvocalicvowelsignbeng" format="2">
  <unicode hex="09C3"/>
  <outline>
    <contour>
      <point x="-380" y="-59" type="curve"/>
      <point x="-327" y="-181" type="line"/>
      <point x="-230" y="-192"/>
      <point x="-119" y="-216"/>
      <point x="-16" y="-271" type="curve"/>
      <point x="45" y="-172" type="line"/>
      <point x="-32" y="-126"/>
      <point x="-145" y="-89"/>
      <point x="-243" y="-84" type="curve"/>
      <point x="-254" y="-119" type="line"/>
      <point x="-208" y="-96"/>
      <point x="-105" y="-63"/>
      <point x="-55" y="-48" type="curve"/>
      <point x="-97" y="63" type="line"/>
      <point x="-182" y="32"/>
      <point x="-303" y="-20"/>
    </contour>
  </outline>
</glyph>
<glyph name="rrvocalicvowelsignbeng" format="2">
  <unicode hex="09C4"/>
  <outline>
    <contour>
      <point x="-380" y="-59" type="curve"/>
      <point x="-330" y="-174" type="line"/>
      <point x="-278" y="-178"/>
      <point x="-223" y="-187"/>
      <point x="-162" y="-203" type="curve" smooth="yes"/>
      <point x="-112" y="-216"/>
      <point x="-56" y="-233"/>
      <point x="-8" y="-259" type="curve"/>
      <point x="46" y="-163" type="line"/>
      <point x="-34" y="-124"/>
      <point x="-146" y="-91"/>
      <point x="-244" y="-86" type="curve"/>
      <point x="-254" y="-119" type="line"/>
      <point x="-208" y="-96"/>
      <point x="-105" y="-63"/>
      <point x="-55" y="-48" type="curve"/>
      <point x="-97" y="63" type="line"/>
      <point x="-182" y="32"/>
      <point x="-303" y="-20"/>
    </contour>
    <contour>
      <point x="-378" y="-225" type="curve"/>
      <point x="-327" y="-341" type="line"/>
      <point x="-230" y="-350"/>
      <point x="-152" y="-363"/>
      <point x="-66" y="-394" type="curve"/>
      <point x="-21" y="-299" type="line"/>
      <point x="-93" y="-270"/>
      <point x="-160" y="-255"/>
      <point x="-250" y="-248" type="curve"/>
      <point x="-256" y="-277" type="line"/>
      <point x="-210" y="-254"/>
      <point x="-112" y="-222"/>
      <point x="-62" y="-207" type="curve"/>
      <point x="-105" y="-116" type="line"/>
      <point x="-191" y="-145"/>
      <point x="-301" y="-187"/>
    </contour>
  </outline>
</glyph>
<glyph name="evowelsignbeng" format="2">
  <advance width="415"/>
  <unicode hex="09C7"/>
  <outline>
    <contour>
      <point x="425" y="622" type="line"/>
      <point x="-10" y="622" type="line"/>
      <point x="-10" y="484" type="line"/>
      <point x="67" y="484" type="line" smooth="yes"/>
      <point x="114" y="484"/>
      <point x="137" y="485"/>
      <point x="158" y="488" type="curve"/>
      <point x="222" y="537" type="line"/>
      <point x="101" y="484"/>
      <point x="33" y="378"/>
      <point x="33" y="260" type="curve" smooth="yes"/>
      <point x="33" y="75"/>
      <point x="138" y="-5"/>
      <point x="293" y="-5" type="curve" smooth="yes"/>
      <point x="345" y="-5"/>
      <point x="383" y="2"/>
      <point x="424" y="19" type="curve"/>
      <point x="376" y="149" type="line"/>
      <point x="356" y="140"/>
      <point x="336" y="136"/>
      <point x="310" y="136" type="curve" smooth="yes"/>
      <point x="261" y="136"/>
      <point x="208" y="163"/>
      <point x="208" y="263" type="curve" smooth="yes"/>
      <point x="208" y="347"/>
      <point x="263" y="423"/>
      <point x="360" y="484" type="curve"/>
      <point x="425" y="484" type="line"/>
    </contour>
  </outline>
</glyph>
<glyph name="aivowelsignbeng" format="2">
  <advance width="415"/>
  <unicode hex="09C8"/>
  <outline>
    <contour>
      <point x="258" y="622" type="curve"/>
      <point x="425" y="622" type="line"/>
      <point x="421" y="700"/>
      <point x="408" y="745"/>
      <point x="373" y="774" type="curve" smooth="yes"/>
      <point x="337" y="803"/>
      <point x="299" y="812"/>
      <point x="232" y="812" type="curve" smooth="yes"/>
      <point x="230" y="812" type="line" smooth="yes"/>
      <point x="190" y="812"/>
      <point x="172" y="814"/>
      <point x="158" y="826" type="curve" smooth="yes"/>
      <point x="145" y="837"/>
      <point x="141" y="851"/>
      <point x="141" y="874" type="curve" smooth="yes"/>
      <point x="141" y="883"/>
      <point x="142" y="893"/>
      <point x="144" y="905" type="curve"/>
      <point x="-21" y="915" type="line"/>
      <point x="-25" y="891"/>
      <point x="-27" y="872"/>
      <point x="-27" y="853" type="curve" smooth="yes"/>
      <point x="-27" y="799"/>
      <point x="-16" y="761"/>
      <point x="8" y="733" type="curve" smooth="yes"/>
      <point x="46" y="688"/>
      <point x="107" y="675"/>
      <point x="212" y="675" type="curve" smooth="yes"/>
      <point x="214" y="675" type="line" smooth="yes"/>
      <point x="242" y="675"/>
      <point x="257" y="660"/>
    </contour>
    <component base="evowelsignbeng"/>
  </outline>
</glyph>
<glyph name="viramabeng" format="2">
  <unicode hex="09CD"/>
  <outline>
    <contour>
      <point x="-172" y="-6" type="line"/>
      <point x="-234" y="-127" type="line"/>
      <point x="65" y="-271" type="line"/>
      <point x="123" y="-162" type="line"/>
    </contour>
  </outline>
</glyph>
<glyph name="khandatabeng" format="2">
  <advance width="606"/>
  <unicode hex="09CE"/>
  <outline>
    <contour>
      <point x="314" y="631" type="curve" smooth="yes"/>
      <point x="141" y="631"/>
      <point x="30" y="545"/>
      <point x="30" y="411" type="curve" smooth="yes"/>
      <point x="30" y="292"/>
      <point x="98" y="220"/>
      <point x="277" y="144" type="curve" smooth="yes"/>
      <point x="406" y="89"/>
      <point x="450" y="69"/>
      <point x="474" y="-14" type="curve"/>
      <point x="638" y="21" type="line"/>
      <point x="626" y="149"/>
      <point x="533" y="208"/>
      <point x="397" y="261" type="curve" smooth="yes"/>
      <point x="250" y="318"/>
      <point x="205" y="339"/>
      <point x="205" y="408" type="curve" smooth="yes"/>
      <point x="205" y="456"/>
      <point x="241" y="496"/>
      <point x="313" y="496" type="curve" smooth="yes"/>
      <point x="356" y="496"/>
      <point x="377" y="485"/>
      <point x="377" y="465" type="curve" smooth="yes"/>
      <point x="377" y="445"/>
      <point x="366" y="437"/>
      <point x="334" y="437" type="curve" smooth="yes"/>
      <point x="321" y="437"/>
      <point x="307" y="439"/>
      <point x="289" y="443" type="curve"/>
      <point x="265" y="320" type="line"/>
      <point x="298" y="309"/>
      <point x="333" y="302"/>
      <point x="362" y="302" type="curve" smooth="yes"/>
      <point x="488" y="302"/>
      <point x="552" y="359"/>
      <point x="552" y="461" type="curve" smooth="yes"/>
      <point x="552" y="555"/>
      <point x="474" y="631"/>
    </contour>
  </outline>
</glyph>
<glyph name="aulengthmarkbeng" format="2">
  <advance width="325"/>
  <unicode hex="09D7"/>
  <outline>
    <contour>
      <point x="250" y="0" type="line"/>
      <point x="250" y="484" type="line"/>
      <point x="335" y="484" type="line"/>
      <point x="335" y="622" type="line"/>
      <point x="-10" y="622" type="line"/>
      <point x="-10" y="484" type="line"/>
      <point x="75" y="484" type="line"/>
      <point x="75" y="0" type="line"/>
    </contour>
    <contour>
      <point x="81" y="622" type="curve"/>
      <point x="248" y="622" type="line"/>
      <point x="244" y="698"/>
      <point x="229" y="745"/>
      <point x="194" y="774" type="curve" smooth="yes"/>
      <point x="158" y="803"/>
      <point x="118" y="812"/>
      <point x="37" y="812" type="curve" smooth="yes"/>
      <point x="-120" y="812" type="line" smooth="yes"/>
      <point x="-168" y="812"/>
      <point x="-187" y="815"/>
      <point x="-201" y="826" type="curve" smooth="yes"/>
      <point x="-214" y="836"/>
      <point x="-219" y="851"/>
      <point x="-219" y="877" type="curve" smooth="yes"/>
      <point x="-219" y="883"/>
      <point x="-218" y="893"/>
      <point x="-216" y="905" type="curve"/>
      <point x="-381" y="915" type="line"/>
      <point x="-385" y="891"/>
      <point x="-387" y="872"/>
      <point x="-387" y="853" type="curve" smooth="yes"/>
      <point x="-387" y="799"/>
      <point x="-375" y="760"/>
      <point x="-351" y="733" type="curve" smooth="yes"/>
      <point x="-312" y="689"/>
      <point x="-250" y="675"/>
      <point x="-135" y="675" type="curve" smooth="yes"/>
      <point x="23" y="675" type="line" smooth="yes"/>
      <point x="67" y="675"/>
      <point x="78" y="659"/>
    </contour>
  </outline>
</glyph>
<glyph name="lvocalicvowelsignbeng" format="2">
  <unicode hex="09E2"/>
  <outline>
    <contour>
      <point x="-328" y="-104" type="curve" smooth="yes"/>
      <point x="-422" y="-104"/>
      <point x="-471" y="-140"/>
      <point x="-471" y="-196" type="curve" smooth="yes"/>
      <point x="-471" y="-211"/>
      <point x="-468" y="-232"/>
      <point x="-461" y="-250" type="curve"/>
      <point x="-337" y="-226" type="line"/>
      <point x="-339" y="-222"/>
      <point x="-341" y="-218"/>
      <point x="-341" y="-212" type="curve" smooth="yes"/>
      <point x="-341" y="-202"/>
      <point x="-333" y="-196"/>
      <point x="-320" y="-196" type="curve" smooth="yes"/>
      <point x="-305" y="-196"/>
      <point x="-299" y="-203"/>
      <point x="-299" y="-213" type="curve" smooth="yes"/>
      <point x="-299" y="-227"/>
      <point x="-310" y="-236"/>
      <point x="-342" y="-238" type="curve"/>
      <point x="-328" y="-318" type="line"/>
      <point x="-312" y="-318" type="line" smooth="yes"/>
      <point x="-144" y="-318"/>
      <point x="0" y="-293"/>
      <point x="0" y="-175" type="curve" smooth="yes"/>
      <point x="0" y="-121"/>
      <point x="-33" y="-75"/>
      <point x="-160" y="-45" type="curve" smooth="yes"/>
      <point x="-209" y="-33"/>
      <point x="-215" y="-28"/>
      <point x="-215" y="-15" type="curve" smooth="yes"/>
      <point x="-215" y="-11"/>
      <point x="-214" y="-6"/>
      <point x="-212" y="-1" type="curve"/>
      <point x="-359" y="20" type="line"/>
      <point x="-366" y="8"/>
      <point x="-371" y="-6"/>
      <point x="-371" y="-20" type="curve" smooth="yes"/>
      <point x="-371" y="-62"/>
      <point x="-349" y="-82"/>
      <point x="-251" y="-107" type="curve" smooth="yes"/>
      <point x="-177" y="-126"/>
      <point x="-145" y="-144"/>
      <point x="-145" y="-181" type="curve" smooth="yes"/>
      <point x="-145" y="-206"/>
      <point x="-164" y="-231"/>
      <point x="-219" y="-231" type="curve"/>
      <point x="-213" y="-248" type="line"/>
      <point x="-190" y="-230"/>
      <point x="-185" y="-210"/>
      <point x="-185" y="-190" type="curve" smooth="yes"/>
      <point x="-185" y="-134"/>
      <point x="-240" y="-104"/>
    </contour>
  </outline>
</glyph>
<glyph name="zerobeng" format="2">
  <advance width="637"/>
  <unicode hex="09E6"/>
  <outline>
    <contour>
      <point x="317" y="73" type="curve" smooth="yes"/>
      <point x="510" y="73"/>
      <point x="587" y="192"/>
      <point x="587" y="311" type="curve" smooth="yes"/>
      <point x="587" y="489"/>
      <point x="471" y="562"/>
      <point x="316" y="562" type="curve" smooth="yes"/>
      <point x="126" y="562"/>
      <point x="49" y="443"/>
      <point x="49" y="324" type="curve" smooth="yes"/>
      <point x="49" y="146"/>
      <point x="165" y="73"/>
    </contour>
    <contour>
      <point x="322" y="421" type="curve" smooth="yes"/>
      <point x="381" y="421"/>
      <point x="409" y="381"/>
      <point x="409" y="323" type="curve" smooth="yes"/>
      <point x="409" y="245"/>
      <point x="370" y="214"/>
      <point x="314" y="214" type="curve" smooth="yes"/>
      <point x="255" y="214"/>
      <point x="227" y="255"/>
      <point x="227" y="314" type="curve" smooth="yes"/>
      <point x="227" y="391"/>
      <point x="266" y="421"/>
    </contour>
  </outline>
</glyph>
<glyph name="onebeng" format="2">
  <advance width="637"/>
  <unicode hex="09E7"/>
  <outline>
    <contour>
      <point x="323" y="0" type="curve" smooth="yes"/>
      <point x="478" y="0"/>
      <point x="579" y="66"/>
      <point x="579" y="189" type="curve" smooth="yes"/>
      <point x="579" y="285"/>
      <point x="534" y="348"/>
      <point x="416" y="413" type="curve" smooth="yes"/>
      <point x="311" y="471"/>
      <point x="303" y="481"/>
      <point x="303" y="507" type="curve" smooth="yes"/>
      <point x="303" y="519"/>
      <point x="310" y="534"/>
      <point x="323" y="549" type="curve"/>
      <point x="165" y="631" type="line"/>
      <point x="129" y="591"/>
      <point x="106" y="548"/>
      <point x="106" y="503" type="curve" smooth="yes"/>
      <point x="106" y="425"/>
      <point x="147" y="378"/>
      <point x="273" y="309" type="curve" smooth="yes"/>
      <point x="388" y="246"/>
      <point x="398" y="230"/>
      <point x="398" y="196" type="curve" smooth="yes"/>
      <point x="398" y="166"/>
      <point x="373" y="144"/>
      <point x="318" y="144" type="curve" smooth="yes"/>
      <point x="287" y="144"/>
      <point x="267" y="156"/>
      <point x="267" y="174" type="curve" smooth="yes"/>
      <point x="267" y="191"/>
      <point x="279" y="198"/>
      <point x="299" y="208" type="curve"/>
      <point x="220" y="326" type="line"/>
      <point x="130" y="284"/>
      <point x="88" y="233"/>
      <point x="88" y="162" type="curve" smooth="yes"/>
      <point x="88" y="62"/>
      <point x="168" y="0"/>
    </contour>
  </outline>
</glyph>
<glyph name="twobeng" format="2">
  <advance width="637"/>
  <unicode hex="09E8"/>
  <outline>
    <contour>
      <point x="109" y="515" type="curve" smooth="yes"/>
      <point x="109" y="453"/>
      <point x="136" y="395"/>
      <point x="264" y="367" type="curve" smooth="yes"/>
      <point x="351" y="348"/>
      <point x="374" y="341"/>
      <point x="374" y="307" type="curve" smooth="yes"/>
      <point x="374" y="270"/>
      <point x="339" y="248"/>
      <point x="232" y="248" type="curve" smooth="yes"/>
      <point x="176" y="248"/>
      <point x="118" y="259"/>
      <point x="72" y="270" type="curve"/>
      <point x="45" y="136" type="line"/>
      <point x="211" y="116"/>
      <point x="385" y="48"/>
      <point x="498" y="-28" type="curve"/>
      <point x="585" y="95" type="line"/>
      <point x="511" y="143"/>
      <point x="442" y="168"/>
      <point x="316" y="199" type="curve"/>
      <point x="282" y="157" type="line"/>
      <point x="303" y="151"/>
      <point x="326" y="148"/>
      <point x="346" y="148" type="curve"/>
      <point x="475" y="169"/>
      <point x="550" y="226"/>
      <point x="550" y="333" type="curve" smooth="yes"/>
      <point x="550" y="424"/>
      <point x="493" y="476"/>
      <point x="369" y="501" type="curve" smooth="yes"/>
      <point x="303" y="515"/>
      <point x="297" y="525"/>
      <point x="297" y="543" type="curve" smooth="yes"/>
      <point x="297" y="555"/>
      <point x="302" y="565"/>
      <point x="309" y="576" type="curve"/>
      <point x="155" y="632" type="line"/>
      <point x="129" y="598"/>
      <point x="109" y="560"/>
    </contour>
  </outline>
</glyph>
<glyph name="threebeng" format="2">
  <advance width="637"/>
  <unicode hex="09E9"/>
  <outline>
    <contour>
      <point x="611" y="288" type="curve" smooth="yes"/>
      <point x="611" y="457"/>
      <point x="533" y="597"/>
      <point x="363" y="597" type="curve" smooth="yes"/>
      <point x="283" y="597"/>
      <point x="206" y="557"/>
      <point x="206" y="467" type="curve" smooth="yes"/>
      <point x="206" y="427"/>
      <point x="216" y="389"/>
      <point x="229" y="356" type="curve"/>
      <point x="367" y="394" type="line"/>
      <point x="362" y="407"/>
      <point x="356" y="424"/>
      <point x="356" y="439" type="curve" smooth="yes"/>
      <point x="356" y="449"/>
      <point x="359" y="461"/>
      <point x="372" y="461" type="curve" smooth="yes"/>
      <point x="404" y="461"/>
      <point x="436" y="386"/>
      <point x="436" y="297" type="curve" smooth="yes"/>
      <point x="436" y="202"/>
      <point x="416" y="166"/>
      <point x="362" y="166" type="curve" smooth="yes"/>
      <point x="290" y="166"/>
      <point x="216" y="237"/>
      <point x="171" y="501" type="curve"/>
      <point x="13" y="464" type="line"/>
      <point x="78" y="110"/>
      <point x="208" y="21"/>
      <point x="378" y="21" type="curve" smooth="yes"/>
      <point x="542" y="21"/>
      <point x="611" y="124"/>
    </contour>
  </outline>
</glyph>
<glyph name="fourbeng" format="2">
  <advance width="637"/>
  <unicode hex="09EA"/>
  <outline>
    <contour>
      <point x="320" y="0" type="curve" smooth="yes"/>
      <point x="498" y="0"/>
      <point x="592" y="57"/>
      <point x="592" y="176" type="curve" smooth="yes"/>
      <point x="592" y="273"/>
      <point x="526" y="318"/>
      <point x="418" y="354" type="curve"/>
      <point x="430" y="307" type="line"/>
      <point x="521" y="344"/>
      <point x="582" y="383"/>
      <point x="582" y="472" type="curve" smooth="yes"/>
      <point x="582" y="547"/>
      <point x="522" y="622"/>
      <point x="317" y="622" type="curve" smooth="yes"/>
      <point x="138" y="622"/>
      <point x="56" y="551"/>
      <point x="56" y="466" type="curve" smooth="yes"/>
      <point x="56" y="384"/>
      <point x="102" y="347"/>
      <point x="222" y="289" type="curve"/>
      <point x="226" y="355" type="line"/>
      <point x="98" y="314"/>
      <point x="45" y="254"/>
      <point x="45" y="177" type="curve" smooth="yes"/>
      <point x="45" y="68"/>
      <point x="144" y="0"/>
    </contour>
    <contour>
      <point x="320" y="138" type="curve" smooth="yes"/>
      <point x="248" y="138"/>
      <point x="222" y="165"/>
      <point x="222" y="194" type="curve" smooth="yes"/>
      <point x="222" y="226"/>
      <point x="256" y="247"/>
      <point x="320" y="262" type="curve" smooth="yes"/>
      <point x="367" y="253"/>
      <point x="416" y="228"/>
      <point x="416" y="193" type="curve" smooth="yes"/>
      <point x="416" y="163"/>
      <point x="393" y="138"/>
    </contour>
    <contour>
      <point x="320" y="393" type="curve"/>
      <point x="261" y="407"/>
      <point x="233" y="421"/>
      <point x="233" y="445" type="curve" smooth="yes"/>
      <point x="233" y="469"/>
      <point x="262" y="484"/>
      <point x="317" y="484" type="curve" smooth="yes"/>
      <point x="379" y="484"/>
      <point x="405" y="468"/>
      <point x="405" y="446" type="curve" smooth="yes"/>
      <point x="405" y="419"/>
      <point x="360" y="403"/>
    </contour>
  </outline>
</glyph>
<glyph name="fivebeng" format="2">
  <advance width="637"/>
  <unicode hex="09EB"/>
  <outline>
    <contour>
      <point x="339" y="0" type="curve" smooth="yes"/>
      <point x="450" y="0"/>
      <point x="547" y="23"/>
      <point x="624" y="62" type="curve"/>
      <point x="568" y="205" type="line"/>
      <point x="559" y="204"/>
      <point x="549" y="203"/>
      <point x="542" y="203" type="curve" smooth="yes"/>
      <point x="509" y="203"/>
      <point x="489" y="217"/>
      <point x="489" y="240" type="curve" smooth="yes"/>
      <point x="489" y="265"/>
      <point x="494" y="293"/>
      <point x="615" y="364" type="curve"/>
      <point x="554" y="464" type="line"/>
      <point x="549" y="463"/>
      <point x="539" y="462"/>
      <point x="531" y="462" type="curve" smooth="yes"/>
      <point x="499" y="462"/>
      <point x="476" y="473"/>
      <point x="476" y="497" type="curve" smooth="yes"/>
      <point x="476" y="508"/>
      <point x="480" y="518"/>
      <point x="486" y="525" type="curve"/>
      <point x="405" y="629" type="line"/>
      <point x="168" y="519"/>
      <point x="31" y="408"/>
      <point x="31" y="248" type="curve" smooth="yes"/>
      <point x="31" y="89"/>
      <point x="163" y="0"/>
    </contour>
    <contour>
      <point x="347" y="138" type="curve" smooth="yes"/>
      <point x="267" y="138"/>
      <point x="209" y="171"/>
      <point x="209" y="242" type="curve" smooth="yes"/>
      <point x="209" y="341"/>
      <point x="294" y="407"/>
      <point x="456" y="492" type="curve"/>
      <point x="367" y="508" type="line"/>
      <point x="351" y="485"/>
      <point x="345" y="466"/>
      <point x="345" y="444" type="curve" smooth="yes"/>
      <point x="345" y="392"/>
      <point x="389" y="336"/>
      <point x="506" y="336" type="curve"/>
      <point x="458" y="433" type="line"/>
      <point x="355" y="357"/>
      <point x="315" y="309"/>
      <point x="315" y="240" type="curve" smooth="yes"/>
      <point x="315" y="177"/>
      <point x="366" y="122"/>
      <point x="475" y="107" type="curve"/>
      <point x="443" y="158" type="line"/>
      <point x="408" y="145"/>
      <point x="389" y="138"/>
    </contour>
  </outline>
</glyph>
<glyph name="sixbeng" format="2">
  <advance width="637"/>
  <unicode hex="09EC"/>
  <outline>
    <contour>
      <point x="375" y="21" type="curve" smooth="yes"/>
      <point x="550" y="21"/>
      <point x="618" y="128"/>
      <point x="618" y="256" type="curve" smooth="yes"/>
      <point x="618" y="312"/>
      <point x="598" y="399"/>
      <point x="556" y="455" type="curve"/>
      <point x="444" y="427" type="line"/>
      <point x="437" y="393"/>
      <point x="419" y="374"/>
      <point x="405" y="374" type="curve" smooth="yes"/>
      <point x="394" y="374"/>
      <point x="390" y="383"/>
      <point x="390" y="403" type="curve" smooth="yes"/>
      <point x="390" y="457" type="line" smooth="yes"/>
      <point x="390" y="512"/>
      <point x="379" y="550"/>
      <point x="343" y="577" type="curve" smooth="yes"/>
      <point x="303" y="607"/>
      <point x="251" y="611"/>
      <point x="187" y="614" type="curve"/>
      <point x="167" y="466" type="line"/>
      <point x="212" y="463"/>
      <point x="224" y="448"/>
      <point x="224" y="403" type="curve" smooth="yes"/>
      <point x="224" y="384" type="line" smooth="yes"/>
      <point x="224" y="326"/>
      <point x="238" y="295"/>
      <point x="259" y="274" type="curve" smooth="yes"/>
      <point x="286" y="248"/>
      <point x="320" y="240"/>
      <point x="359" y="240" type="curve" smooth="yes"/>
      <point x="453" y="240"/>
      <point x="498" y="282"/>
      <point x="566" y="380" type="curve"/>
      <point x="433" y="352" type="line"/>
      <point x="444" y="328"/>
      <point x="451" y="292"/>
      <point x="451" y="257" type="curve" smooth="yes"/>
      <point x="451" y="200"/>
      <point x="424" y="166"/>
      <point x="359" y="166" type="curve" smooth="yes"/>
      <point x="262" y="166"/>
      <point x="209" y="242"/>
      <point x="165" y="442" type="curve"/>
      <point x="10" y="399" type="line"/>
      <point x="76" y="106"/>
      <point x="200" y="21"/>
    </contour>
  </outline>
</glyph>
<glyph name="sevenbeng" format="2">
  <advance width="637"/>
  <unicode hex="09ED"/>
  <outline>
    <contour>
      <point x="355" y="266" type="line"/>
      <point x="355" y="171" type="line" smooth="yes"/>
      <point x="355" y="45"/>
      <point x="414" y="3"/>
      <point x="565" y="-1" type="curve"/>
      <point x="585" y="147" type="line"/>
      <point x="540" y="150"/>
      <point x="530" y="164"/>
      <point x="530" y="206" type="curve" smooth="yes"/>
      <point x="530" y="432" type="line" smooth="yes"/>
      <point x="530" y="515"/>
      <point x="510" y="555"/>
      <point x="474" y="582" type="curve" smooth="yes"/>
      <point x="439" y="609"/>
      <point x="386" y="622"/>
      <point x="326" y="622" type="curve" smooth="yes"/>
      <point x="164" y="622"/>
      <point x="44" y="522"/>
      <point x="44" y="392" type="curve" smooth="yes"/>
      <point x="44" y="279"/>
      <point x="109" y="213"/>
      <point x="279" y="213" type="curve" smooth="yes"/>
      <point x="340" y="213"/>
      <point x="387" y="225"/>
      <point x="446" y="254" type="curve"/>
    </contour>
    <contour>
      <point x="291" y="352" type="curve" smooth="yes"/>
      <point x="242" y="352"/>
      <point x="221" y="366"/>
      <point x="221" y="405" type="curve" smooth="yes"/>
      <point x="221" y="443"/>
      <point x="257" y="484"/>
      <point x="306" y="484" type="curve" smooth="yes"/>
      <point x="322" y="484"/>
      <point x="336" y="481"/>
      <point x="344" y="472" type="curve" smooth="yes"/>
      <point x="353" y="463"/>
      <point x="355" y="449"/>
      <point x="355" y="407" type="curve" smooth="yes"/>
      <point x="355" y="337" type="line"/>
      <point x="389" y="380" type="line"/>
      <point x="360" y="362"/>
      <point x="329" y="352"/>
    </contour>
  </outline>
</glyph>
<glyph name="eightbeng" format="2">
  <advance width="637"/>
  <unicode hex="09EE"/>
  <outline>
    <contour>
      <point x="291" y="0" type="curve" smooth="yes"/>
      <point x="426" y="0"/>
      <point x="540" y="79"/>
      <point x="540" y="225" type="curve" smooth="yes"/>
      <point x="540" y="256"/>
      <point x="532" y="288"/>
      <point x="516" y="313" type="curve"/>
      <point x="446" y="264" type="line"/>
      <point x="455" y="260"/>
      <point x="474" y="258"/>
      <point x="494" y="258" type="curve" smooth="yes"/>
      <point x="537" y="258"/>
      <point x="594" y="273"/>
      <point x="633" y="376" type="curve"/>
      <point x="500" y="443" type="line"/>
      <point x="483" y="409"/>
      <point x="466" y="395"/>
      <point x="428" y="395" type="curve" smooth="yes"/>
      <point x="416" y="395"/>
      <point x="402" y="396"/>
      <point x="387" y="400" type="curve"/>
      <point x="372" y="404"/>
      <point x="353" y="409"/>
      <point x="327" y="409" type="curve" smooth="yes"/>
      <point x="307" y="409"/>
      <point x="285" y="407"/>
      <point x="263" y="401" type="curve"/>
      <point x="263" y="444" type="line" smooth="yes"/>
      <point x="263" y="523"/>
      <point x="247" y="559"/>
      <point x="211" y="586" type="curve" smooth="yes"/>
      <point x="171" y="616"/>
      <point x="117" y="620"/>
      <point x="53" y="623" type="curve"/>
      <point x="33" y="475" type="line"/>
      <point x="78" y="472"/>
      <point x="88" y="450"/>
      <point x="88" y="408" type="curve" smooth="yes"/>
      <point x="88" y="195" type="line" smooth="yes"/>
      <point x="88" y="112"/>
      <point x="107" y="68"/>
      <point x="147" y="37" type="curve" smooth="yes"/>
      <point x="178" y="13"/>
      <point x="222" y="0"/>
    </contour>
    <contour>
      <point x="301" y="138" type="curve" smooth="yes"/>
      <point x="292" y="138"/>
      <point x="284" y="140"/>
      <point x="277" y="146" type="curve" smooth="yes"/>
      <point x="269" y="153"/>
      <point x="263" y="165"/>
      <point x="263" y="192" type="curve" smooth="yes"/>
      <point x="263" y="260" type="line"/>
      <point x="277" y="265"/>
      <point x="293" y="270"/>
      <point x="312" y="270" type="curve" smooth="yes"/>
      <point x="341" y="270"/>
      <point x="363" y="259"/>
      <point x="363" y="222" type="curve" smooth="yes"/>
      <point x="363" y="172"/>
      <point x="337" y="138"/>
    </contour>
  </outline>
</glyph>
<glyph name="ninebeng" format="2">
  <advance width="637"/>
  <unicode hex="09EF"/>
  <outline>
    <contour>
      <point x="213" y="340" type="curve" smooth="yes"/>
      <point x="103" y="340"/>
      <point x="21" y="296"/>
      <point x="21" y="203" type="curve" smooth="yes"/>
      <point x="21" y="178"/>
      <point x="25" y="156"/>
      <point x="34" y="131" type="curve"/>
      <point x="187" y="159" type="line"/>
      <point x="185" y="167"/>
      <point x="184" y="173"/>
      <point x="184" y="182" type="curve" smooth="yes"/>
      <point x="184" y="196"/>
      <point x="194" y="209"/>
      <point x="216" y="209" type="curve" smooth="yes"/>
      <point x="238" y="209"/>
      <point x="250" y="199"/>
      <point x="250" y="182" type="curve" smooth="yes"/>
      <point x="250" y="157"/>
      <point x="228" y="140"/>
      <point x="161" y="136" type="curve"/>
      <point x="183" y="0" type="line"/>
      <point x="200" y="0" type="line" smooth="yes"/>
      <point x="430" y="0"/>
      <point x="618" y="60"/>
      <point x="618" y="244" type="curve" smooth="yes"/>
      <point x="618" y="331"/>
      <point x="591" y="428"/>
      <point x="361" y="490" type="curve" smooth="yes"/>
      <point x="235" y="524"/>
      <point x="220" y="531"/>
      <point x="220" y="554" type="curve" smooth="yes"/>
      <point x="220" y="563"/>
      <point x="226" y="575"/>
      <point x="234" y="585" type="curve"/>
      <point x="76" y="634" type="line"/>
      <point x="50" y="600"/>
      <point x="33" y="562"/>
      <point x="33" y="524" type="curve" smooth="yes"/>
      <point x="33" y="440"/>
      <point x="86" y="401"/>
      <point x="275" y="354" type="curve" smooth="yes"/>
      <point x="412" y="319"/>
      <point x="443" y="286"/>
      <point x="443" y="230" type="curve" smooth="yes"/>
      <point x="443" y="180"/>
      <point x="412" y="145"/>
      <point x="354" y="139" type="curve"/>
      <point x="341" y="62" type="line"/>
      <point x="376" y="91"/>
      <point x="406" y="141"/>
      <point x="406" y="198" type="curve" smooth="yes"/>
      <point x="406" y="281"/>
      <point x="323" y="340"/>
    </contour>
  </outline>
</glyph>
<glyph name="ra1beng" format="2">
  <advance width="661"/>
  <unicode hex="09F0"/>
  <outline>
    <contour>
      <point x="671" y="622" type="line"/>
      <point x="-10" y="622" type="line"/>
      <point x="-10" y="484" type="line"/>
      <point x="418" y="484" type="line"/>
      <point x="417" y="442" type="line"/>
      <point x="428" y="468" type="line"/>
      <point x="294" y="440"/>
      <point x="151" y="394"/>
      <point x="14" y="327" type="curve"/>
      <point x="77" y="170" type="line"/>
      <point x="218" y="142"/>
      <point x="317" y="95"/>
      <point x="406" y="0" type="curve"/>
      <point x="586" y="0" type="line"/>
      <point x="586" y="484" type="line"/>
      <point x="671" y="484" type="line"/>
    </contour>
    <contour>
      <point x="413" y="339" type="line"/>
      <point x="413" y="233" type="line" smooth="yes"/>
      <point x="413" y="203"/>
      <point x="414" y="167"/>
      <point x="417" y="141" type="curve"/>
      <point x="439" y="139" type="line"/>
      <point x="385" y="201"/>
      <point x="273" y="250"/>
      <point x="203" y="261" type="curve"/>
      <point x="271" y="293"/>
      <point x="350" y="318"/>
      <point x="423" y="334" type="curve"/>
    </contour>
    <contour>
      <point x="424" y="195" type="curve"/>
      <point x="451" y="252" type="line"/>
      <point x="401" y="297"/>
      <point x="337" y="317"/>
      <point x="259" y="334" type="curve"/>
      <point x="213" y="289" type="line"/>
      <point x="297" y="271"/>
      <point x="368" y="242"/>
    </contour>
  </outline>
</glyph>
<glyph name="wabeng" format="2">
  <advance width="636"/>
  <unicode hex="09F1"/>
  <outline>
    <contour>
      <point x="646" y="622" type="line"/>
      <point x="-10" y="622" type="line"/>
      <point x="-10" y="484" type="line"/>
      <point x="393" y="484" type="line"/>
      <point x="393" y="442" type="line"/>
      <point x="408" y="468" type="line"/>
      <point x="274" y="437"/>
      <point x="144" y="393"/>
      <point x="14" y="327" type="curve"/>
      <point x="77" y="170" type="line"/>
      <point x="219" y="143"/>
      <point x="303" y="95"/>
      <point x="386" y="0" type="curve"/>
      <point x="561" y="0" type="line"/>
      <point x="561" y="484" type="line"/>
      <point x="646" y="484" type="line"/>
    </contour>
    <contour>
      <point x="386" y="336" type="line"/>
      <point x="386" y="233" type="line" smooth="yes"/>
      <point x="386" y="203"/>
      <point x="389" y="167"/>
      <point x="392" y="141" type="curve"/>
      <point x="419" y="139" type="line"/>
      <point x="372" y="199"/>
      <point x="282" y="247"/>
      <point x="214" y="260" type="curve"/>
      <point x="276" y="290"/>
      <point x="334" y="311"/>
      <point x="404" y="328" type="curve"/>
    </contour>
    <contour>
      <point x="70" y="136" type="curve"/>
      <point x="49" y="35" type="line"/>
      <point x="131" y="19"/>
      <point x="194" y="-5"/>
      <point x="266" y="-57" type="curve"/>
      <point x="328" y="10" type="line"/>
      <point x="260" y="79"/>
      <point x="191" y="115"/>
    </contour>
  </outline>
</glyph>
<glyph name="rupeemarkbeng" format="2">
  <advance width="624"/>
  <unicode hex="09F2"/>
  <outline>
    <contour>
      <point x="409" y="78" type="curve"/>
      <point x="572" y="141" type="line"/>
      <point x="483" y="324"/>
      <point x="369" y="481"/>
      <point x="117" y="550" type="curve"/>
      <point x="57" y="394" type="line"/>
      <point x="238" y="332"/>
      <point x="327" y="230"/>
    </contour>
  </outline>
</glyph>
<glyph name="rupeesignbeng" format="2">
  <advance width="668"/>
  <unicode hex="09F3"/>
  <outline>
    <contour>
      <point x="630" y="519" type="line"/>
      <point x="63" y="519" type="line"/>
      <point x="63" y="381" type="line"/>
      <point x="141" y="381" type="line"/>
      <point x="141" y="196" type="line" smooth="yes"/>
      <point x="141" y="104"/>
      <point x="163" y="65"/>
      <point x="196" y="37" type="curve" smooth="yes"/>
      <point x="228" y="9"/>
      <point x="264" y="0"/>
      <point x="320" y="0" type="curve" smooth="yes"/>
      <point x="469" y="0"/>
      <point x="610" y="86"/>
      <point x="610" y="228" type="curve" smooth="yes"/>
      <point x="610" y="302"/>
      <point x="561" y="344"/>
      <point x="466" y="344" type="curve" smooth="yes"/>
      <point x="427" y="344"/>
      <point x="389" y="338"/>
      <point x="362" y="332" type="curve"/>
      <point x="383" y="204" type="line"/>
      <point x="391" y="206"/>
      <point x="400" y="207"/>
      <point x="409" y="207" type="curve" smooth="yes"/>
      <point x="429" y="207"/>
      <point x="436" y="199"/>
      <point x="436" y="190" type="curve" smooth="yes"/>
      <point x="436" y="165"/>
      <point x="390" y="138"/>
      <point x="348" y="138" type="curve" smooth="yes"/>
      <point x="327" y="138"/>
      <point x="316" y="146"/>
      <point x="316" y="173" type="curve" smooth="yes"/>
      <point x="316" y="381" type="line"/>
      <point x="630" y="381" type="line"/>
    </contour>
    <contour>
      <point x="156" y="754" type="curve" smooth="yes"/>
      <point x="105" y="754"/>
      <point x="63" y="745"/>
      <point x="10" y="725" type="curve"/>
      <point x="56" y="606" type="line"/>
      <point x="74" y="613"/>
      <point x="89" y="617"/>
      <point x="104" y="617" type="curve" smooth="yes"/>
      <point x="130" y="617"/>
      <point x="141" y="604"/>
      <point x="141" y="570" type="curve" smooth="yes"/>
      <point x="141" y="518" type="line"/>
      <point x="316" y="518" type="line"/>
      <point x="316" y="580" type="line" smooth="yes"/>
      <point x="316" y="655"/>
      <point x="301" y="695"/>
      <point x="265" y="722" type="curve" smooth="yes"/>
      <point x="239" y="742"/>
      <point x="202" y="754"/>
    </contour>
  </outline>
</glyph>
<glyph name="uni09F4" format="2">
  <advance width="624"/>
  <unicode hex="09F4"/>
  <outline>
    <contour>
      <point x="57" y="234" type="curve"/>
      <point x="117" y="78" type="line"/>
      <point x="369" y="147"/>
      <point x="483" y="304"/>
      <point x="572" y="487" type="curve"/>
      <point x="409" y="550" type="line"/>
      <point x="327" y="398"/>
      <point x="238" y="296"/>
    </contour>
  </outline>
</glyph>
<glyph name="uni09F5" format="2">
  <advance width="744"/>
  <unicode hex="09F5"/>
  <outline>
    <contour>
      <point x="231" y="438" type="curve" smooth="yes"/>
      <point x="115" y="438"/>
      <point x="33" y="392"/>
      <point x="33" y="299" type="curve" smooth="yes"/>
      <point x="33" y="274"/>
      <point x="38" y="252"/>
      <point x="46" y="227" type="curve"/>
      <point x="206" y="257" type="line"/>
      <point x="204" y="263"/>
      <point x="203" y="269"/>
      <point x="203" y="278" type="curve" smooth="yes"/>
      <point x="203" y="292"/>
      <point x="213" y="305"/>
      <point x="235" y="305" type="curve" smooth="yes"/>
      <point x="257" y="305"/>
      <point x="269" y="295"/>
      <point x="269" y="278" type="curve" smooth="yes"/>
      <point x="269" y="253"/>
      <point x="246" y="237"/>
      <point x="202" y="227" type="curve"/>
      <point x="259" y="78" type="line"/>
      <point x="511" y="147"/>
      <point x="625" y="304"/>
      <point x="714" y="487" type="curve"/>
      <point x="551" y="550" type="line"/>
      <point x="469" y="398"/>
      <point x="424" y="351"/>
      <point x="372" y="306" type="curve"/>
      <point x="411" y="238" type="line"/>
      <point x="419" y="252"/>
      <point x="422" y="278"/>
      <point x="422" y="296" type="curve" smooth="yes"/>
      <point x="422" y="381"/>
      <point x="353" y="438"/>
    </contour>
  </outline>
</glyph>
<glyph name="uni09F6" format="2">
  <advance width="791"/>
  <unicode hex="09F6"/>
  <outline>
    <contour>
      <point x="237" y="0" type="curve" smooth="yes"/>
      <point x="597" y="0"/>
      <point x="713" y="285"/>
      <point x="752" y="606" type="curve"/>
      <point x="576" y="627" type="line"/>
      <point x="536" y="358"/>
      <point x="467" y="138"/>
      <point x="237" y="138" type="curve" smooth="yes"/>
      <point x="213" y="138"/>
      <point x="204" y="144"/>
      <point x="204" y="156" type="curve" smooth="yes"/>
      <point x="204" y="170"/>
      <point x="213" y="177"/>
      <point x="249" y="183" type="curve" smooth="yes"/>
      <point x="336" y="199"/>
      <point x="382" y="217"/>
      <point x="415" y="249" type="curve" smooth="yes"/>
      <point x="441" y="274"/>
      <point x="454" y="306"/>
      <point x="454" y="353" type="curve" smooth="yes"/>
      <point x="454" y="443"/>
      <point x="376" y="505"/>
      <point x="254" y="505" type="curve" smooth="yes"/>
      <point x="137" y="505"/>
      <point x="55" y="459"/>
      <point x="55" y="366" type="curve" smooth="yes"/>
      <point x="55" y="341"/>
      <point x="60" y="319"/>
      <point x="68" y="294" type="curve"/>
      <point x="228" y="324" type="line"/>
      <point x="225" y="332"/>
      <point x="225" y="344"/>
      <point x="225" y="345" type="curve" smooth="yes"/>
      <point x="225" y="361"/>
      <point x="239" y="372"/>
      <point x="257" y="372" type="curve" smooth="yes"/>
      <point x="281" y="372"/>
      <point x="291" y="360"/>
      <point x="291" y="345" type="curve" smooth="yes"/>
      <point x="291" y="319"/>
      <point x="272" y="310"/>
      <point x="213" y="301" type="curve" smooth="yes"/>
      <point x="73" y="279"/>
      <point x="34" y="231"/>
      <point x="34" y="153" type="curve" smooth="yes"/>
      <point x="34" y="61"/>
      <point x="104" y="0"/>
    </contour>
  </outline>
</glyph>
<glyph name="uni09F7" format="2">
  <advance width="347"/>
  <unicode hex="09F7"/>
  <outline>
    <contour>
      <point x="86" y="0" type="line"/>
      <point x="261" y="0" type="line"/>
      <point x="261" y="622" type="line"/>
      <point x="86" y="622" type="line"/>
    </contour>
  </outline>
</glyph>
<glyph name="uni09F8" format="2">
  <advance width="733"/>
  <unicode hex="09F8"/>
  <outline>
    <contour>
      <point x="62" y="627" type="curve"/>
      <point x="42" y="479" type="line"/>
      <point x="87" y="476"/>
      <point x="97" y="462"/>
      <point x="97" y="420" type="curve" smooth="yes"/>
      <point x="97" y="229" type="line"/>
      <point x="248" y="138" type="line"/>
      <point x="320" y="208"/>
      <point x="434" y="310"/>
      <point x="555" y="364" type="curve"/>
      <point x="461" y="337" type="line"/>
      <point x="461" y="176" type="line" smooth="yes"/>
      <point x="461" y="96"/>
      <point x="477" y="60"/>
      <point x="513" y="33" type="curve" smooth="yes"/>
      <point x="553" y="3"/>
      <point x="607" y="-1"/>
      <point x="671" y="-4" type="curve"/>
      <point x="691" y="144" type="line"/>
      <point x="646" y="147"/>
      <point x="636" y="161"/>
      <point x="636" y="203" type="curve"/>
      <point x="636" y="419" type="line"/>
      <point x="516" y="513" type="line"/>
      <point x="392" y="457"/>
      <point x="284" y="372"/>
      <point x="218" y="304" type="curve"/>
      <point x="272" y="290" type="line"/>
      <point x="272" y="447" type="line" smooth="yes"/>
      <point x="272" y="527"/>
      <point x="256" y="563"/>
      <point x="220" y="590" type="curve" smooth="yes"/>
      <point x="180" y="620"/>
      <point x="126" y="624"/>
    </contour>
  </outline>
</glyph>
<glyph name="uni09F9" format="2">
  <advance width="503"/>
  <unicode hex="09F9"/>
  <outline>
    <contour>
      <point x="42" y="330" type="curve" smooth="yes"/>
      <point x="42" y="213"/>
      <point x="128" y="133"/>
      <point x="251" y="133" type="curve" smooth="yes"/>
      <point x="375" y="133"/>
      <point x="461" y="213"/>
      <point x="461" y="330" type="curve" smooth="yes"/>
      <point x="461" y="448"/>
      <point x="375" y="528"/>
      <point x="251" y="528" type="curve" smooth="yes"/>
      <point x="128" y="528"/>
      <point x="42" y="448"/>
    </contour>
    <contour>
      <point x="186" y="330" type="curve" smooth="yes"/>
      <point x="186" y="366"/>
      <point x="213" y="392"/>
      <point x="251" y="392" type="curve" smooth="yes"/>
      <point x="290" y="392"/>
      <point x="317" y="366"/>
      <point x="317" y="330" type="curve" smooth="yes"/>
      <point x="317" y="295"/>
      <point x="290" y="269"/>
      <point x="251" y="269" type="curve" smooth="yes"/>
      <point x="213" y="269"/>
      <point x="186" y="295"/>
    </contour>
  </outline>
</glyph>
<glyph name="issharbeng" format="2">
  <advance width="720"/>
  <unicode hex="09FA"/>
  <outline>
    <contour>
      <point x="322" y="327" type="curve" smooth="yes"/>
      <point x="520" y="327"/>
      <point x="618" y="448"/>
      <point x="685" y="695" type="curve"/>
      <point x="519" y="740" type="line"/>
      <point x="462" y="523"/>
      <point x="416" y="472"/>
      <point x="328" y="472" type="curve" smooth="yes"/>
      <point x="254" y="472"/>
      <point x="226" y="528"/>
      <point x="219" y="622" type="curve"/>
      <point x="54" y="610" type="line"/>
      <point x="68" y="413"/>
      <point x="188" y="327"/>
    </contour>
    <contour>
      <point x="339" y="502" type="curve" smooth="yes"/>
      <point x="390" y="502"/>
      <point x="423" y="538"/>
      <point x="423" y="585" type="curve" smooth="yes"/>
      <point x="423" y="633"/>
      <point x="389" y="669"/>
      <point x="340" y="669" type="curve" smooth="yes"/>
      <point x="292" y="669"/>
      <point x="257" y="633"/>
      <point x="257" y="585" type="curve" smooth="yes"/>
      <point x="257" y="539"/>
      <point x="290" y="502"/>
    </contour>
  </outline>
</glyph>
<glyph name="uni09FB" format="2">
  <advance width="362"/>
  <unicode hex="09FB"/>
  <outline>
    <contour>
      <point x="45" y="258" type="curve" smooth="yes"/>
      <point x="45" y="168"/>
      <point x="96" y="75"/>
      <point x="285" y="-149" type="curve"/>
      <point x="420" y="-44" type="line"/>
      <point x="248" y="154"/>
      <point x="228" y="194"/>
      <point x="228" y="231" type="curve" smooth="yes"/>
      <point x="228" y="264"/>
      <point x="252" y="281"/>
      <point x="296" y="301" type="curve"/>
      <point x="205" y="448" type="line"/>
      <point x="102" y="402"/>
      <point x="45" y="346"/>
    </contour>
  </outline>
</glyph>
<glyph name="uni09FC" format="2">
  <advance width="613"/>
  <unicode hex="09FC"/>
  <outline>
    <contour>
      <point x="565" y="494" type="curve"/>
      <point x="424" y="507" type="line"/>
      <point x="416" y="413"/>
      <point x="377" y="370"/>
      <point x="307" y="370" type="curve" smooth="yes"/>
      <point x="224" y="370"/>
      <point x="197" y="420"/>
      <point x="189" y="506" type="curve"/>
      <point x="48" y="493" type="line"/>
      <point x="64" y="349"/>
      <point x="138" y="249"/>
      <point x="311" y="249" type="curve" smooth="yes"/>
      <point x="487" y="249"/>
      <point x="552" y="355"/>
    </contour>
    <contour>
      <point x="375" y="465" type="curve" smooth="yes"/>
      <point x="375" y="505"/>
      <point x="347" y="530"/>
      <point x="306" y="530" type="curve" smooth="yes"/>
      <point x="263" y="530"/>
      <point x="237" y="505"/>
      <point x="237" y="465" type="curve" smooth="yes"/>
      <point x="237" y="424"/>
      <point x="263" y="399"/>
      <point x="306" y="399" type="curve" smooth="yes"/>
      <point x="349" y="399"/>
      <point x="375" y="423"/>
    </contour>
    <component base="viramabeng" xOffset="438" yOffset="209"/>
  </outline>
</glyph>
<glyph name="uni09FD" format="2">
  <advance width="460"/>
  <unicode hex="09FD"/>
  <outline>
    <contour>
      <point x="230" y="215" type="curve" smooth="yes"/>
      <point x="332" y="215"/>
      <point x="405" y="279"/>
      <point x="405" y="379" type="curve" smooth="yes"/>
      <point x="405" y="480"/>
      <point x="330" y="542"/>
      <point x="230" y="542" type="curve" smooth="yes"/>
      <point x="125" y="542"/>
      <point x="54" y="476"/>
      <point x="54" y="379" type="curve" smooth="yes"/>
      <point x="54" y="273"/>
      <point x="134" y="215"/>
    </contour>
    <contour>
      <point x="230" y="322" type="curve" smooth="yes"/>
      <point x="198" y="322"/>
      <point x="172" y="342"/>
      <point x="172" y="379" type="curve" smooth="yes"/>
      <point x="172" y="410"/>
      <point x="194" y="435"/>
      <point x="230" y="435" type="curve" smooth="yes"/>
      <point x="264" y="435"/>
      <point x="287" y="412"/>
      <point x="287" y="379" type="curve" smooth="yes"/>
      <point x="287" y="345"/>
      <point x="265" y="322"/>
    </contour>
  </outline>
</glyph>
<glyph name="uni09FE" format="2">
  <unicode hex="09FE"/>
  <outline>
    <contour>
      <point x="-5" y="839" type="curve" smooth="yes"/>
      <point x="-82" y="839"/>
      <point x="-135" y="810"/>
      <point x="-135" y="770" type="curve" smooth="yes"/>
      <point x="-135" y="755"/>
      <point x="-132" y="743"/>
      <point x="-127" y="734" type="curve"/>
      <point x="-27" y="740" type="line"/>
      <point x="-30" y="744"/>
      <point x="-31" y="750"/>
      <point x="-31" y="754" type="curve" smooth="yes"/>
      <point x="-31" y="763"/>
      <point x="-26" y="769"/>
      <point x="-4" y="769" type="curve" smooth="yes"/>
      <point x="23" y="769"/>
      <point x="34" y="756"/>
      <point x="34" y="742" type="curve" smooth="yes"/>
      <point x="34" y="723"/>
      <point x="18" y="714"/>
      <point x="-29" y="714" type="curve" smooth="yes"/>
      <point x="-65" y="714"/>
      <point x="-102" y="718"/>
      <point x="-125" y="724" type="curve"/>
      <point x="-141" y="650" type="line"/>
      <point x="-54" y="641"/>
      <point x="36" y="622"/>
      <point x="114" y="570" type="curve"/>
      <point x="162" y="641" type="line"/>
      <point x="110" y="669"/>
      <point x="56" y="683"/>
      <point x="-5" y="692" type="curve"/>
      <point x="31" y="658" type="line"/>
      <point x="103" y="671"/>
      <point x="136" y="698"/>
      <point x="136" y="746" type="curve" smooth="yes"/>
      <point x="136" y="804"/>
      <point x="83" y="839"/>
    </contour>
    <contour>
      <point x="36" y="917" type="line"/>
      <point x="-161" y="917" type="line"/>
      <point x="-161" y="839" type="line"/>
      <point x="-64" y="839" type="line"/>
      <point x="-64" y="822" type="line"/>
      <point x="36" y="810" type="line"/>
    </contour>
  </outline>
</glyph>
<glyph name="uni1CD0" format="2">
  <unicode hex="1CD0"/>
  <outline>
    <contour>
      <point x="-467" y="681" type="line"/>
      <point x="-338" y="632" type="line"/>
      <point x="-253" y="795" type="line"/>
      <point x="-154" y="632" type="line"/>
      <point x="-42" y="680" type="line"/>
      <point x="-189" y="908" type="line"/>
      <point x="-332" y="908" type="line"/>
    </contour>
  </outline>
</glyph>
<glyph name="uni1CD2" format="2">
  <unicode hex="1CD2"/>
  <outline>
    <contour>
      <point x="-459" y="808" type="line"/>
      <point x="-459" y="703" type="line"/>
      <point x="-51" y="703" type="line"/>
      <point x="-51" y="808" type="line"/>
    </contour>
  </outline>
</glyph>
<glyph name="uni1CD5" format="2">
  <unicode hex="1CD5"/>
  <outline>
    <contour>
      <point x="-207" y="-80" type="curve"/>
      <point x="-305" y="-80" type="line"/>
      <point x="-307" y="-133"/>
      <point x="-320" y="-156"/>
      <point x="-350" y="-156" type="curve" smooth="yes"/>
      <point x="-376" y="-156"/>
      <point x="-392" y="-147"/>
      <point x="-396" y="-78" type="curve"/>
      <point x="-511" y="-80" type="line"/>
      <point x="-504" y="-223"/>
      <point x="-447" y="-271"/>
      <point x="-365" y="-271" type="curve" smooth="yes"/>
      <point x="-260" y="-271"/>
      <point x="-235" y="-209"/>
    </contour>
    <contour>
      <point x="-205" y="-80" type="curve"/>
      <point x="-304" y="-80" type="line"/>
      <point x="-277" y="-209"/>
      <point x="-254" y="-271"/>
      <point x="-146" y="-271" type="curve" smooth="yes"/>
      <point x="-64" y="-271"/>
      <point x="-6" y="-223"/>
      <point x="-1" y="-80" type="curve"/>
      <point x="-114" y="-78" type="line"/>
      <point x="-120" y="-147"/>
      <point x="-135" y="-156"/>
      <point x="-160" y="-156" type="curve" smooth="yes"/>
      <point x="-191" y="-156"/>
      <point x="-203" y="-133"/>
    </contour>
  </outline>
</glyph>
<glyph name="uni1CD6" format="2">
  <unicode hex="1CD6"/>
  <outline>
    <contour>
      <point x="-468" y="-74" type="line"/>
      <point x="-468" y="-271" type="line"/>
      <point x="-43" y="-271" type="line"/>
      <point x="-43" y="-166" type="line"/>
      <point x="-348" y="-166" type="line"/>
      <point x="-348" y="-74" type="line"/>
    </contour>
  </outline>
</glyph>
<glyph name="uni1CD8" format="2">
  <unicode hex="1CD8"/>
  <outline>
    <contour>
      <point x="-4" y="-62" type="curve"/>
      <point x="-127" y="-24" type="line"/>
      <point x="-145" y="-112"/>
      <point x="-179" y="-153"/>
      <point x="-252" y="-153" type="curve" smooth="yes"/>
      <point x="-317" y="-153"/>
      <point x="-356" y="-121"/>
      <point x="-396" y="-24" type="curve"/>
      <point x="-508" y="-64" type="line"/>
      <point x="-453" y="-211"/>
      <point x="-364" y="-271"/>
      <point x="-253" y="-271" type="curve" smooth="yes"/>
      <point x="-129" y="-271"/>
      <point x="-42" y="-216"/>
    </contour>
  </outline>
</glyph>
<glyph name="uni1CE1" format="2">
  <advance width="507"/>
  <unicode hex="1CE1"/>
  <outline>
    <contour>
      <point x="479" y="742" type="curve"/>
      <point x="567" y="851" type="line"/>
      <point x="500" y="895"/>
      <point x="445" y="917"/>
      <point x="354" y="917" type="curve" smooth="yes"/>
      <point x="241" y="917"/>
      <point x="101" y="871"/>
      <point x="101" y="634" type="curve" smooth="yes"/>
      <point x="101" y="441"/>
      <point x="197" y="137"/>
      <point x="197" y="-89" type="curve" smooth="yes"/>
      <point x="197" y="-210"/>
      <point x="169" y="-266"/>
      <point x="76" y="-266" type="curve" smooth="yes"/>
      <point x="42" y="-266"/>
      <point x="-14" y="-261"/>
      <point x="-58" y="-252" type="curve"/>
      <point x="-65" y="-390" type="line"/>
      <point x="-12" y="-402"/>
      <point x="39" y="-404"/>
      <point x="85" y="-404" type="curve" smooth="yes"/>
      <point x="339" y="-404"/>
      <point x="375" y="-253"/>
      <point x="375" y="-97" type="curve" smooth="yes"/>
      <point x="375" y="154"/>
      <point x="281" y="430"/>
      <point x="281" y="641" type="curve" smooth="yes"/>
      <point x="281" y="737"/>
      <point x="321" y="778"/>
      <point x="375" y="778" type="curve" smooth="yes"/>
      <point x="419" y="778"/>
      <point x="448" y="763"/>
    </contour>
  </outline>
</glyph>
<glyph name="uni1CEA" format="2">
  <advance width="872"/>
  <unicode hex="1CEA"/>
  <outline>
    <contour>
      <point x="435" y="0" type="curve" smooth="yes"/>
      <point x="668" y="0"/>
      <point x="750" y="83"/>
      <point x="750" y="198" type="curve" smooth="yes"/>
      <point x="750" y="265"/>
      <point x="729" y="308"/>
      <point x="670" y="378" type="curve" smooth="yes"/>
      <point x="627" y="429"/>
      <point x="611" y="449"/>
      <point x="611" y="477" type="curve" smooth="yes"/>
      <point x="611" y="498"/>
      <point x="626" y="520"/>
      <point x="657" y="520" type="curve" smooth="yes"/>
      <point x="672" y="520"/>
      <point x="689" y="513"/>
      <point x="689" y="494" type="curve" smooth="yes"/>
      <point x="689" y="475"/>
      <point x="672" y="465"/>
      <point x="645" y="454" type="curve"/>
      <point x="721" y="351" type="line"/>
      <point x="779" y="378"/>
      <point x="835" y="412"/>
      <point x="835" y="497" type="curve" smooth="yes"/>
      <point x="835" y="583"/>
      <point x="767" y="632"/>
      <point x="645" y="632" type="curve" smooth="yes"/>
      <point x="489" y="632"/>
      <point x="443" y="542"/>
      <point x="443" y="474" type="curve" smooth="yes"/>
      <point x="443" y="422"/>
      <point x="459" y="383"/>
      <point x="508" y="327" type="curve" smooth="yes"/>
      <point x="560" y="267"/>
      <point x="569" y="243"/>
      <point x="569" y="209" type="curve" smooth="yes"/>
      <point x="569" y="161"/>
      <point x="520" y="142"/>
      <point x="432" y="142" type="curve" smooth="yes"/>
      <point x="344" y="142"/>
      <point x="297" y="166"/>
      <point x="297" y="207" type="curve" smooth="yes"/>
      <point x="297" y="236"/>
      <point x="302" y="251"/>
      <point x="355" y="310" type="curve" smooth="yes"/>
      <point x="408" y="370"/>
      <point x="429" y="411"/>
      <point x="429" y="474" type="curve" smooth="yes"/>
      <point x="429" y="548"/>
      <point x="375" y="632"/>
      <point x="220" y="632" type="curve" smooth="yes"/>
      <point x="104" y="632"/>
      <point x="37" y="583"/>
      <point x="37" y="497" type="curve" smooth="yes"/>
      <point x="37" y="426"/>
      <point x="79" y="384"/>
      <point x="152" y="352" type="curve"/>
      <point x="227" y="454" type="line"/>
      <point x="196" y="465"/>
      <point x="183" y="475"/>
      <point x="183" y="494" type="curve" smooth="yes"/>
      <point x="183" y="512"/>
      <point x="198" y="520"/>
      <point x="215" y="520" type="curve" smooth="yes"/>
      <point x="246" y="520"/>
      <point x="261" y="499"/>
      <point x="261" y="478" type="curve" smooth="yes"/>
      <point x="261" y="452"/>
      <point x="245" y="432"/>
      <point x="201" y="380" type="curve" smooth="yes"/>
      <point x="146" y="315"/>
      <point x="115" y="270"/>
      <point x="115" y="204" type="curve" smooth="yes"/>
      <point x="115" y="82"/>
      <point x="218" y="0"/>
    </contour>
  </outline>
</glyph>
<glyph name="uni1CED" format="2">
  <unicode hex="1CED"/>
  <outline>
    <contour>
      <point x="-329" y="-122" type="line"/>
      <point x="-101" y="-271" type="line"/>
      <point x="-25" y="-171" type="line"/>
      <point x="-254" y="-21" type="line"/>
    </contour>
  </outline>
</glyph>
<glyph name="uni1CF2" format="2">
  <advance width="613"/>
  <unicode hex="1CF2"/>
  <outline>
    <contour>
      <point x="310" y="287" type="curve" smooth="yes"/>
      <point x="440" y="287"/>
      <point x="532" y="345"/>
      <point x="572" y="506" type="curve"/>
      <point x="442" y="546" type="line"/>
      <point x="424" y="454"/>
      <point x="388" y="411"/>
      <point x="311" y="411" type="curve" smooth="yes"/>
      <point x="243" y="411"/>
      <point x="202" y="444"/>
      <point x="160" y="547" type="curve"/>
      <point x="42" y="504" type="line"/>
      <point x="100" y="350"/>
      <point x="194" y="287"/>
    </contour>
    <contour>
      <point x="304" y="268" type="curve" smooth="yes"/>
      <point x="174" y="268"/>
      <point x="82" y="210"/>
      <point x="42" y="49" type="curve"/>
      <point x="172" y="9" type="line"/>
      <point x="190" y="101"/>
      <point x="226" y="144"/>
      <point x="303" y="144" type="curve" smooth="yes"/>
      <point x="371" y="144"/>
      <point x="412" y="111"/>
      <point x="454" y="8" type="curve"/>
      <point x="572" y="51" type="line"/>
      <point x="514" y="205"/>
      <point x="420" y="268"/>
    </contour>
  </outline>
</glyph>
<glyph name="uni1CF5" format="2">
  <advance width="567"/>
  <unicode hex="1CF5"/>
  <outline>
    <contour>
      <point x="287" y="163" type="line"/>
      <point x="409" y="8" type="line"/>
      <point x="535" y="101" type="line"/>
      <point x="383" y="276" type="line"/>
      <point x="531" y="452" type="line"/>
      <point x="404" y="545" type="line"/>
      <point x="284" y="392" type="line"/>
      <point x="163" y="546" type="line"/>
      <point x="37" y="453" type="line"/>
      <point x="190" y="280" type="line"/>
      <point x="39" y="103" type="line"/>
      <point x="169" y="14" type="line"/>
    </contour>
  </outline>
</glyph>
<glyph name="uni1CF6" format="2">
  <advance width="751"/>
  <unicode hex="1CF6"/>
  <outline>
    <contour>
      <point x="235" y="169" type="curve" smooth="yes"/>
      <point x="371" y="169"/>
      <point x="396" y="263"/>
      <point x="431" y="449" type="curve"/>
      <point x="312" y="449" type="line"/>
      <point x="310" y="345"/>
      <point x="295" y="306"/>
      <point x="255" y="306" type="curve" smooth="yes"/>
      <point x="215" y="306"/>
      <point x="200" y="328"/>
      <point x="194" y="451" type="curve"/>
      <point x="48" y="445" type="line"/>
      <point x="57" y="233"/>
      <point x="129" y="169"/>
    </contour>
    <contour>
      <point x="517" y="169" type="curve" smooth="yes"/>
      <point x="623" y="169"/>
      <point x="696" y="233"/>
      <point x="703" y="445" type="curve"/>
      <point x="560" y="451" type="line"/>
      <point x="551" y="329"/>
      <point x="535" y="306"/>
      <point x="499" y="306" type="curve" smooth="yes"/>
      <point x="457" y="306"/>
      <point x="444" y="344"/>
      <point x="441" y="449" type="curve"/>
      <point x="322" y="449" type="line"/>
      <point x="353" y="263"/>
      <point x="378" y="169"/>
    </contour>
  </outline>
</glyph>
<glyph name="uni1CF7" format="2">
  <advance width="507"/>
  <unicode hex="1CF7"/>
  <outline>
    <contour>
      <point x="479" y="742" type="curve"/>
      <point x="567" y="851" type="line"/>
      <point x="500" y="895"/>
      <point x="445" y="917"/>
      <point x="354" y="917" type="curve" smooth="yes"/>
      <point x="241" y="917"/>
      <point x="101" y="871"/>
      <point x="101" y="634" type="curve" smooth="yes"/>
      <point x="101" y="403"/>
      <point x="146" y="40"/>
      <point x="146" y="-271" type="curve"/>
      <point x="324" y="-271" type="line"/>
      <point x="324" y="59"/>
      <point x="281" y="391"/>
      <point x="281" y="641" type="curve" smooth="yes"/>
      <point x="281" y="737"/>
      <point x="321" y="778"/>
      <point x="375" y="778" type="curve" smooth="yes"/>
      <point x="419" y="778"/>
      <point x="448" y="763"/>
    </contour>
  </outline>
</glyph>
<glyph name="uni20B9.beng" format="2">
  <advance width="637"/>
  <unicode hex="20B9"/>
  <outline>
    <contour>
      <point x="564" y="504" type="line"/>
      <point x="564" y="622" type="line"/>
      <point x="82" y="622" type="line"/>
      <point x="82" y="504" type="line"/>
      <point x="142" y="504" type="line" smooth="yes"/>
      <point x="186" y="504"/>
      <point x="206" y="501"/>
      <point x="223" y="486" type="curve" smooth="yes"/>
      <point x="239" y="471"/>
      <point x="249" y="446"/>
      <point x="249" y="406" type="curve" smooth="yes"/>
      <point x="249" y="372"/>
      <point x="244" y="345"/>
      <point x="229" y="327" type="curve" smooth="yes"/>
      <point x="211" y="309"/>
      <point x="192" y="301"/>
      <point x="128" y="301" type="curve" smooth="yes"/>
      <point x="102" y="301" type="line"/>
      <point x="80" y="192" type="line"/>
      <point x="237" y="0" type="line"/>
      <point x="456" y="0" type="line"/>
      <point x="264" y="209" type="line"/>
      <point x="266" y="199" type="line"/>
      <point x="364" y="226"/>
      <point x="419" y="297"/>
      <point x="419" y="392" type="curve" smooth="yes"/>
      <point x="419" y="436"/>
      <point x="396" y="484"/>
      <point x="372" y="504" type="curve"/>
    </contour>
    <contour>
      <point x="82" y="462" type="line"/>
      <point x="82" y="345" type="line"/>
      <point x="564" y="345" type="line"/>
      <point x="564" y="462" type="line"/>
    </contour>
  </outline>
</glyph>
<glyph name="minus.beng" format="2">
  <advance width="637"/>
  <unicode hex="2212"/>
  <outline>
    <contour>
      <point x="72" y="388" type="line"/>
      <point x="72" y="259" type="line"/>
      <point x="564" y="259" type="line"/>
      <point x="564" y="388" type="line"/>
    </contour>
  </outline>
</glyph>
<glyph name="uniA8F1" format="2">
  <unicode hex="A8F1"/>
  <outline>
    <contour>
      <point x="-136" y="627" type="curve" smooth="yes"/>
      <point x="-70" y="627"/>
      <point x="-35" y="664"/>
      <point x="-35" y="711" type="curve" smooth="yes"/>
      <point x="-35" y="746"/>
      <point x="-43" y="775"/>
      <point x="-112" y="814" type="curve" smooth="yes"/>
      <point x="-133" y="826"/>
      <point x="-137" y="832"/>
      <point x="-137" y="837" type="curve" smooth="yes"/>
      <point x="-137" y="843"/>
      <point x="-132" y="844"/>
      <point x="-127" y="844" type="curve" smooth="yes"/>
      <point x="-49" y="844" type="line"/>
      <point x="-49" y="917" type="line"/>
      <point x="-110" y="917" type="line" smooth="yes"/>
      <point x="-159" y="917"/>
      <point x="-181" y="911"/>
      <point x="-200" y="899" type="curve"/>
      <point x="-218" y="886"/>
      <point x="-229" y="869"/>
      <point x="-229" y="845" type="curve" smooth="yes"/>
      <point x="-229" y="804"/>
      <point x="-210" y="783"/>
      <point x="-172" y="757" type="curve" smooth="yes"/>
      <point x="-128" y="727"/>
      <point x="-125" y="723"/>
      <point x="-125" y="713" type="curve" smooth="yes"/>
      <point x="-125" y="706"/>
      <point x="-131" y="701"/>
      <point x="-143" y="701" type="curve" smooth="yes"/>
      <point x="-175" y="701"/>
      <point x="-203" y="731"/>
      <point x="-233" y="776" type="curve"/>
      <point x="-307" y="735" type="line"/>
      <point x="-255" y="658"/>
      <point x="-207" y="627"/>
    </contour>
  </outline>
</glyph>
<glyph name="aivowelsigninibeng" format="2">
  <advance width="415"/>
  <outline>
    <contour>
      <point x="258" y="590" type="line"/>
      <point x="425" y="622" type="line"/>
      <point x="421" y="700"/>
      <point x="408" y="745"/>
      <point x="373" y="774" type="curve" smooth="yes"/>
      <point x="337" y="803"/>
      <point x="299" y="812"/>
      <point x="232" y="812" type="curve" smooth="yes"/>
      <point x="230" y="812" type="line" smooth="yes"/>
      <point x="190" y="812"/>
      <point x="172" y="814"/>
      <point x="158" y="826" type="curve" smooth="yes"/>
      <point x="145" y="837"/>
      <point x="141" y="851"/>
      <point x="141" y="874" type="curve" smooth="yes"/>
      <point x="141" y="883"/>
      <point x="142" y="893"/>
      <point x="144" y="905" type="curve"/>
      <point x="-21" y="915" type="line"/>
      <point x="-25" y="891"/>
      <point x="-27" y="872"/>
      <point x="-27" y="853" type="curve" smooth="yes"/>
      <point x="-27" y="799"/>
      <point x="-16" y="761"/>
      <point x="8" y="733" type="curve" smooth="yes"/>
      <point x="46" y="688"/>
      <point x="107" y="675"/>
      <point x="212" y="675" type="curve" smooth="yes"/>
      <point x="214" y="675" type="line" smooth="yes"/>
      <point x="242" y="675"/>
      <point x="258" y="660"/>
      <point x="258" y="617" type="curve" smooth="yes"/>
    </contour>
    <component base="evowelsigninibeng"/>
  </outline>
</glyph>
<glyph name="aulengthmarkshortbeng" format="2">
  <advance width="325"/>
  <outline>
    <contour>
      <point x="250" y="0" type="line"/>
      <point x="250" y="484" type="line"/>
      <point x="335" y="484" type="line"/>
      <point x="335" y="622" type="line"/>
      <point x="-10" y="622" type="line"/>
      <point x="-10" y="484" type="line"/>
      <point x="75" y="484" type="line"/>
      <point x="75" y="0" type="line"/>
    </contour>
    <contour>
      <point x="81" y="622" type="curve"/>
      <point x="248" y="622" type="line"/>
      <point x="244" y="698"/>
      <point x="229" y="745"/>
      <point x="194" y="774" type="curve" smooth="yes"/>
      <point x="158" y="803"/>
      <point x="118" y="812"/>
      <point x="37" y="812" type="curve" smooth="yes"/>
      <point x="-11" y="812" type="line" smooth="yes"/>
      <point x="-59" y="812"/>
      <point x="-78" y="815"/>
      <point x="-92" y="826" type="curve" smooth="yes"/>
      <point x="-105" y="836"/>
      <point x="-110" y="851"/>
      <point x="-110" y="877" type="curve" smooth="yes"/>
      <point x="-110" y="883"/>
      <point x="-109" y="893"/>
      <point x="-107" y="905" type="curve"/>
      <point x="-272" y="915" type="line"/>
      <point x="-276" y="891"/>
      <point x="-278" y="872"/>
      <point x="-278" y="853" type="curve" smooth="yes"/>
      <point x="-278" y="799"/>
      <point x="-266" y="760"/>
      <point x="-242" y="733" type="curve" smooth="yes"/>
      <point x="-203" y="689"/>
      <point x="-141" y="675"/>
      <point x="-26" y="675" type="curve" smooth="yes"/>
      <point x="23" y="675" type="line" smooth="yes"/>
      <point x="67" y="675"/>
      <point x="78" y="659"/>
    </contour>
  </outline>
</glyph>
<glyph name="bababeng" format="2">
  <advance width="1014"/>
  <outline>
    <contour>
      <point x="646" y="622" type="line"/>
      <point x="-10" y="622" type="line"/>
      <point x="-10" y="484" type="line"/>
      <point x="393" y="484" type="line"/>
      <point x="393" y="442" type="line"/>
      <point x="408" y="468" type="line"/>
      <point x="273" y="437"/>
      <point x="144" y="393"/>
      <point x="14" y="327" type="curve"/>
      <point x="77" y="170" type="line"/>
      <point x="219" y="143"/>
      <point x="303" y="95"/>
      <point x="386" y="0" type="curve"/>
      <point x="561" y="0" type="line"/>
      <point x="561" y="484" type="line"/>
      <point x="646" y="484" type="line"/>
    </contour>
    <contour>
      <point x="386" y="336" type="line"/>
      <point x="386" y="233" type="line" smooth="yes"/>
      <point x="386" y="203"/>
      <point x="389" y="167"/>
      <point x="392" y="141" type="curve"/>
      <point x="419" y="139" type="line"/>
      <point x="372" y="199"/>
      <point x="282" y="247"/>
      <point x="214" y="260" type="curve"/>
      <point x="276" y="290"/>
      <point x="334" y="311"/>
      <point x="404" y="328" type="curve"/>
    </contour>
    <contour>
      <point x="1024" y="622" type="line"/>
      <point x="645" y="622" type="line"/>
      <point x="645" y="484" type="line"/>
      <point x="771" y="484" type="line"/>
      <point x="771" y="442" type="line"/>
      <point x="786" y="468" type="line"/>
      <point x="656" y="438"/>
      <point x="553" y="401"/>
      <point x="441" y="342" type="curve"/>
      <point x="455" y="174" type="line"/>
      <point x="594" y="146"/>
      <point x="681" y="95"/>
      <point x="764" y="0" type="curve"/>
      <point x="939" y="0" type="line"/>
      <point x="939" y="484" type="line"/>
      <point x="1024" y="484" type="line"/>
    </contour>
    <contour>
      <point x="764" y="336" type="line"/>
      <point x="764" y="233" type="line" smooth="yes"/>
      <point x="764" y="203"/>
      <point x="767" y="167"/>
      <point x="770" y="141" type="curve"/>
      <point x="797" y="139" type="line"/>
      <point x="750" y="199"/>
      <point x="660" y="247"/>
      <point x="592" y="260" type="curve"/>
      <point x="654" y="290"/>
      <point x="712" y="311"/>
      <point x="782" y="328" type="curve"/>
    </contour>
  </outline>
</glyph>
<glyph name="babhabeng" format="2">
  <advance width="710"/>
  <outline>
    <contour>
      <point x="619" y="498" type="line"/>
      <point x="447" y="512" type="line"/>
      <point x="447" y="484" type="line"/>
      <point x="358" y="463"/>
      <point x="245" y="417"/>
      <point x="176" y="381" type="curve"/>
      <point x="227" y="254" type="line"/>
      <point x="313" y="240"/>
      <point x="379" y="217"/>
      <point x="444" y="171" type="curve"/>
      <point x="619" y="171" type="line"/>
    </contour>
    <contour>
      <point x="450" y="370" type="curve"/>
      <point x="450" y="343" type="line"/>
      <point x="450" y="326"/>
      <point x="450" y="302"/>
      <point x="451" y="283" type="curve"/>
      <point x="410" y="312"/>
      <point x="349" y="331"/>
      <point x="270" y="344" type="curve"/>
      <point x="295" y="312" type="line"/>
      <point x="345" y="334"/>
      <point x="405" y="358"/>
    </contour>
    <contour>
      <point x="720" y="622" type="line"/>
      <point x="-10" y="622" type="line"/>
      <point x="-10" y="484" type="line"/>
      <point x="720" y="484" type="line"/>
    </contour>
    <contour>
      <point x="404" y="32" type="curve" smooth="yes"/>
      <point x="508" y="32"/>
      <point x="569" y="103"/>
      <point x="616" y="158" type="curve"/>
      <point x="635" y="208" type="line"/>
      <point x="505" y="187" type="line"/>
      <point x="482" y="161"/>
      <point x="462" y="143"/>
      <point x="425" y="143" type="curve" smooth="yes"/>
      <point x="404" y="143"/>
      <point x="395" y="151"/>
      <point x="395" y="167" type="curve" smooth="yes"/>
      <point x="395" y="175"/>
      <point x="397" y="184"/>
      <point x="400" y="191" type="curve"/>
      <point x="269" y="210" type="line"/>
      <point x="257" y="186"/>
      <point x="255" y="166"/>
      <point x="255" y="154" type="curve" smooth="yes"/>
      <point x="255" y="61"/>
      <point x="333" y="32"/>
    </contour>
    <contour>
      <point x="406" y="-125" type="curve" smooth="yes"/>
      <point x="579" y="-125"/>
      <point x="682" y="-56"/>
      <point x="682" y="71" type="curve" smooth="yes"/>
      <point x="682" y="120"/>
      <point x="665" y="165"/>
      <point x="635" y="208" type="curve"/>
      <point x="490" y="135" type="line"/>
      <point x="514" y="112"/>
      <point x="521" y="92"/>
      <point x="521" y="59" type="curve" smooth="yes"/>
      <point x="521" y="22"/>
      <point x="481" y="-2"/>
      <point x="401" y="-2" type="curve" smooth="yes"/>
      <point x="287" y="-2"/>
      <point x="219" y="60"/>
      <point x="158" y="218" type="curve"/>
      <point x="13" y="178" type="line"/>
      <point x="84" y="-42"/>
      <point x="244" y="-125"/>
    </contour>
  </outline>
</glyph>
<glyph name="badabeng" format="2">
  <advance width="925"/>
  <outline>
    <contour>
      <point x="935" y="622" type="line"/>
      <point x="-10" y="622" type="line"/>
      <point x="-10" y="484" type="line"/>
      <point x="351" y="484" type="line"/>
      <point x="351" y="77" type="line"/>
      <point x="479" y="77" type="line"/>
      <point x="552" y="147"/>
      <point x="667" y="251"/>
      <point x="793" y="311" type="curve"/>
      <point x="738" y="358" type="line"/>
      <point x="694" y="281"/>
      <point x="671" y="241"/>
      <point x="671" y="162" type="curve" smooth="yes"/>
      <point x="671" y="100"/>
      <point x="680" y="45"/>
      <point x="702" y="-14" type="curve"/>
      <point x="872" y="21" type="line"/>
      <point x="856" y="72"/>
      <point x="847" y="127"/>
      <point x="847" y="170" type="curve" smooth="yes"/>
      <point x="847" y="242"/>
      <point x="858" y="304"/>
      <point x="885" y="357" type="curve"/>
      <point x="764" y="453" type="line"/>
      <point x="634" y="395"/>
      <point x="520" y="309"/>
      <point x="454" y="241" type="curve"/>
      <point x="507" y="226" type="line"/>
      <point x="507" y="484" type="line"/>
      <point x="935" y="484" type="line"/>
    </contour>
    <contour>
      <point x="459" y="500" type="line"/>
      <point x="336" y="503" type="line"/>
      <point x="336" y="471" type="line"/>
      <point x="232" y="444"/>
      <point x="119" y="401"/>
      <point x="14" y="348" type="curve"/>
      <point x="70" y="208" type="line"/>
      <point x="191" y="186"/>
      <point x="258" y="148"/>
      <point x="340" y="77" type="curve"/>
      <point x="458" y="77" type="line"/>
    </contour>
    <contour>
      <point x="333" y="373" type="line"/>
      <point x="333" y="278" type="line" smooth="yes"/>
      <point x="333" y="265"/>
      <point x="333" y="245"/>
      <point x="335" y="227" type="curve"/>
      <point x="294" y="258"/>
      <point x="230" y="295"/>
      <point x="167" y="303" type="curve"/>
      <point x="165" y="273" type="line"/>
      <point x="229" y="305"/>
      <point x="306" y="333"/>
      <point x="382" y="354" type="curve"/>
    </contour>
  </outline>
</glyph>
<glyph name="badarabeng" format="2">
  <advance width="863"/>
  <outline>
    <contour>
      <point x="873" y="622" type="line"/>
      <point x="-10" y="622" type="line"/>
      <point x="-10" y="484" type="line"/>
      <point x="320" y="484" type="line"/>
      <point x="320" y="144" type="line"/>
      <point x="451" y="144" type="line"/>
      <point x="525" y="202"/>
      <point x="621" y="264"/>
      <point x="725" y="308" type="curve"/>
      <point x="670" y="361" type="line"/>
      <point x="621" y="286"/>
      <point x="607" y="240"/>
      <point x="607" y="165" type="curve" smooth="yes"/>
      <point x="607" y="108"/>
      <point x="616" y="56"/>
      <point x="628" y="9" type="curve"/>
      <point x="645" y="-60" type="line"/>
      <point x="810" y="-23" type="line"/>
      <point x="791" y="49"/>
      <point x="783" y="106"/>
      <point x="783" y="166" type="curve" smooth="yes"/>
      <point x="783" y="242"/>
      <point x="794" y="304"/>
      <point x="821" y="357" type="curve"/>
      <point x="698" y="457" type="line"/>
      <point x="609" y="417"/>
      <point x="492" y="353"/>
      <point x="426" y="293" type="curve"/>
      <point x="473" y="221" type="line"/>
      <point x="473" y="484" type="line"/>
      <point x="873" y="484" type="line"/>
    </contour>
    <contour>
      <point x="443" y="516" type="line"/>
      <point x="302" y="496" type="line"/>
      <point x="302" y="474" type="line"/>
      <point x="213" y="454"/>
      <point x="105" y="406"/>
      <point x="18" y="360" type="curve"/>
      <point x="70" y="233" type="line"/>
      <point x="166" y="217"/>
      <point x="222" y="193"/>
      <point x="296" y="144" type="curve"/>
      <point x="443" y="144" type="line"/>
    </contour>
    <contour>
      <point x="299" y="424" type="line"/>
      <point x="299" y="326" type="line" smooth="yes"/>
      <point x="299" y="316"/>
      <point x="299" y="287"/>
      <point x="301" y="267" type="curve"/>
      <point x="265" y="289"/>
      <point x="206" y="313"/>
      <point x="152" y="318" type="curve"/>
      <point x="136" y="290" type="line"/>
      <point x="214" y="327"/>
      <point x="285" y="350"/>
      <point x="356" y="367" type="curve"/>
    </contour>
    <contour>
      <point x="648" y="14" type="line"/>
      <point x="643" y="57" type="line"/>
      <point x="594" y="107"/>
      <point x="560" y="120"/>
      <point x="491" y="120" type="curve" smooth="yes"/>
      <point x="442" y="120"/>
      <point x="374" y="106"/>
      <point x="296" y="106" type="curve" smooth="yes"/>
      <point x="233" y="106"/>
      <point x="217" y="124"/>
      <point x="217" y="149" type="curve" smooth="yes"/>
      <point x="217" y="157"/>
      <point x="218" y="164"/>
      <point x="220" y="171" type="curve"/>
      <point x="56" y="191" type="line"/>
      <point x="51" y="175"/>
      <point x="47" y="149"/>
      <point x="47" y="122" type="curve" smooth="yes"/>
      <point x="47" y="1"/>
      <point x="145" y="-32"/>
      <point x="269" y="-32" type="curve" smooth="yes"/>
      <point x="376" y="-32"/>
      <point x="446" y="-17"/>
      <point x="505" y="-17" type="curve" smooth="yes"/>
      <point x="592" y="-17"/>
      <point x="615" y="-32"/>
      <point x="645" y="-60" type="curve"/>
    </contour>
  </outline>
</glyph>
<glyph name="badhabeng" format="2">
  <advance width="813"/>
  <outline>
    <contour>
      <point x="530" y="547" type="line"/>
      <point x="358" y="546" type="line"/>
      <point x="358" y="469" type="line"/>
      <point x="367" y="481" type="line"/>
      <point x="244" y="453"/>
      <point x="125" y="408"/>
      <point x="15" y="355" type="curve"/>
      <point x="68" y="224" type="line"/>
      <point x="151" y="214"/>
      <point x="186" y="201"/>
      <point x="235" y="180" type="curve"/>
      <point x="358" y="182" type="line"/>
      <point x="530" y="198" type="line"/>
    </contour>
    <contour>
      <point x="358" y="398" type="line"/>
      <point x="358" y="264" type="line"/>
      <point x="320" y="258" type="line"/>
      <point x="285" y="280"/>
      <point x="222" y="305"/>
      <point x="154" y="315" type="curve"/>
      <point x="146" y="275" type="line"/>
      <point x="200" y="302"/>
      <point x="324" y="350"/>
      <point x="398" y="366" type="curve"/>
    </contour>
    <contour>
      <point x="823" y="622" type="line"/>
      <point x="-10" y="622" type="line"/>
      <point x="-10" y="484" type="line"/>
      <point x="823" y="484" type="line"/>
    </contour>
    <contour>
      <point x="530" y="329" type="line"/>
      <point x="373" y="277" type="line"/>
      <point x="259" y="240"/>
      <point x="178" y="204"/>
      <point x="94" y="160" type="curve"/>
      <point x="145" y="32" type="line"/>
      <point x="241" y="11"/>
      <point x="284" y="-10"/>
      <point x="355" y="-58" type="curve"/>
      <point x="530" y="-58" type="line"/>
    </contour>
    <contour>
      <point x="362" y="156" type="curve"/>
      <point x="362" y="115" type="line"/>
      <point x="362" y="97"/>
      <point x="363" y="72"/>
      <point x="364" y="63" type="curve"/>
      <point x="327" y="88"/>
      <point x="270" y="113"/>
      <point x="208" y="124" type="curve"/>
      <point x="205" y="90" type="line"/>
      <point x="260" y="119"/>
      <point x="317" y="142"/>
    </contour>
    <contour>
      <point x="755" y="134" type="curve" smooth="yes"/>
      <point x="755" y="191"/>
      <point x="765" y="243"/>
      <point x="786" y="289" type="curve"/>
      <point x="683" y="374" type="line"/>
      <point x="596" y="355"/>
      <point x="521" y="331"/>
      <point x="442" y="303" type="curve"/>
      <point x="466" y="185" type="line"/>
      <point x="544" y="205"/>
      <point x="641" y="230"/>
      <point x="744" y="248" type="curve"/>
      <point x="645" y="323" type="line"/>
      <point x="606" y="261"/>
      <point x="587" y="203"/>
      <point x="587" y="122" type="curve" smooth="yes"/>
      <point x="587" y="58"/>
      <point x="597" y="9"/>
      <point x="614" y="-45" type="curve"/>
      <point x="776" y="-15" type="line"/>
      <point x="760" y="41"/>
      <point x="755" y="89"/>
    </contour>
  </outline>
</glyph>
<glyph name="bahalfbeng" format="2">
  <advance width="541"/>
  <outline>
    <contour>
      <point x="551" y="622" type="line"/>
      <point x="-10" y="622" type="line"/>
      <point x="-10" y="484" type="line"/>
      <point x="551" y="484" type="line"/>
    </contour>
    <contour>
      <point x="501" y="540" type="line"/>
      <point x="329" y="546" type="line"/>
      <point x="329" y="469" type="line"/>
      <point x="344" y="481" type="line"/>
      <point x="218" y="452"/>
      <point x="120" y="415"/>
      <point x="14" y="365" type="curve"/>
      <point x="70" y="225" type="line"/>
      <point x="160" y="213"/>
      <point x="239" y="187"/>
      <point x="326" y="117" type="curve"/>
      <point x="501" y="117" type="line"/>
    </contour>
    <contour>
      <point x="329" y="398" type="line"/>
      <point x="329" y="312" type="line" smooth="yes"/>
      <point x="329" y="296"/>
      <point x="329" y="272"/>
      <point x="331" y="249" type="curve"/>
      <point x="285" y="287"/>
      <point x="223" y="314"/>
      <point x="153" y="325" type="curve"/>
      <point x="145" y="285" type="line"/>
      <point x="199" y="312"/>
      <point x="305" y="350"/>
      <point x="375" y="366" type="curve"/>
    </contour>
  </outline>
</glyph>
